<mxfile host="app.diagrams.net" agent="Mozilla/5.0 (Windows NT 10.0; Win64; x64) AppleWebKit/537.36 (KHTML, like Gecko) Chrome/135.0.0.0 Safari/537.36 Edg/135.0.0.0" version="26.2.14">
  <diagram name="Page-1" id="b520641d-4fe3-3701-9064-5fc419738815">
    <mxGraphModel dx="6788" dy="13142" grid="1" gridSize="10" guides="1" tooltips="1" connect="1" arrows="1" fold="1" page="1" pageScale="1" pageWidth="1100" pageHeight="850" background="none" math="0" shadow="0">
      <root>
        <mxCell id="0" />
        <mxCell id="1" parent="0" />
        <mxCell id="oPP6584VSFWBGFHBGUR1-365" value="&lt;font style=&quot;font-size: 48px;&quot;&gt;&lt;b style=&quot;&quot;&gt;Your Choice&lt;/b&gt;&lt;/font&gt;" style="ellipse;whiteSpace=wrap;html=1;fillColor=light-dark(#FFFFFF,#000000);strokeColor=light-dark(#000000,#FFFFFF);fontColor=light-dark(#000000,#FFFFFF);strokeWidth=10;" parent="1" vertex="1">
          <mxGeometry x="315.38" y="-9720" width="325" height="305" as="geometry" />
        </mxCell>
        <mxCell id="oPP6584VSFWBGFHBGUR1-366" value="&lt;font style=&quot;font-size: 24px;&quot;&gt;صفحة ريئيسة&lt;/font&gt;" style="ellipse;whiteSpace=wrap;html=1;fillColor=#3399FF;strokeColor=#001DBC;fontColor=#ffffff;" parent="1" vertex="1">
          <mxGeometry x="-109.4" y="-8630" width="150" height="100" as="geometry" />
        </mxCell>
        <mxCell id="oPP6584VSFWBGFHBGUR1-367" value="&lt;font style=&quot;font-size: 24px;&quot;&gt;صفحة فئات&lt;/font&gt;" style="ellipse;whiteSpace=wrap;html=1;fillColor=#3399FF;strokeColor=#001DBC;fontColor=#ffffff;" parent="1" vertex="1">
          <mxGeometry x="-159.4" y="-8420" width="150" height="100" as="geometry" />
        </mxCell>
        <mxCell id="oPP6584VSFWBGFHBGUR1-368" value="&lt;font style=&quot;font-size: 24px;&quot;&gt;صفحة منتجات&lt;/font&gt;" style="ellipse;whiteSpace=wrap;html=1;fillColor=#3399FF;strokeColor=#001DBC;fontColor=#ffffff;" parent="1" vertex="1">
          <mxGeometry x="-39.4" y="-8230" width="150" height="100" as="geometry" />
        </mxCell>
        <mxCell id="oPP6584VSFWBGFHBGUR1-369" value="&lt;font style=&quot;font-size: 18px;&quot;&gt;صفحة تسجيل دخول&lt;/font&gt;" style="ellipse;whiteSpace=wrap;html=1;fillColor=#3399FF;strokeColor=#001DBC;fontColor=#ffffff;" parent="1" vertex="1">
          <mxGeometry x="740.6" y="-8640" width="150" height="100" as="geometry" />
        </mxCell>
        <mxCell id="oPP6584VSFWBGFHBGUR1-370" value="&lt;font style=&quot;font-size: 18px;&quot;&gt;صفحة عربة تسوق&lt;/font&gt;" style="ellipse;whiteSpace=wrap;html=1;fillColor=#3399FF;strokeColor=#001DBC;fontColor=#ffffff;" parent="1" vertex="1">
          <mxGeometry x="800.6" y="-8420" width="150" height="100" as="geometry" />
        </mxCell>
        <mxCell id="oPP6584VSFWBGFHBGUR1-371" value="&lt;font style=&quot;font-size: 18px;&quot;&gt;صفحة ارسال رسائل&lt;/font&gt;" style="ellipse;whiteSpace=wrap;html=1;fillColor=#3399FF;strokeColor=#001DBC;fontColor=#ffffff;" parent="1" vertex="1">
          <mxGeometry x="750.6" y="-8250" width="150" height="100" as="geometry" />
        </mxCell>
        <mxCell id="oPP6584VSFWBGFHBGUR1-372" value="" style="endArrow=classic;html=1;rounded=0;entryX=0.953;entryY=0.73;entryDx=0;entryDy=0;entryPerimeter=0;exitX=0.062;exitY=0.257;exitDx=0;exitDy=0;exitPerimeter=0;strokeWidth=5;" parent="1" target="oPP6584VSFWBGFHBGUR1-366" edge="1">
          <mxGeometry width="50" height="50" relative="1" as="geometry">
            <mxPoint x="250.75000000000009" y="-8418.46" as="sourcePoint" />
            <mxPoint x="210.6" y="-8390" as="targetPoint" />
          </mxGeometry>
        </mxCell>
        <mxCell id="oPP6584VSFWBGFHBGUR1-373" value="" style="endArrow=classic;html=1;rounded=0;exitX=0;exitY=0.5;exitDx=0;exitDy=0;entryX=1;entryY=0.5;entryDx=0;entryDy=0;strokeWidth=5;" parent="1" target="oPP6584VSFWBGFHBGUR1-367" edge="1">
          <mxGeometry width="50" height="50" relative="1" as="geometry">
            <mxPoint x="230.6" y="-8365" as="sourcePoint" />
            <mxPoint x="200.6" y="-8510" as="targetPoint" />
          </mxGeometry>
        </mxCell>
        <mxCell id="oPP6584VSFWBGFHBGUR1-374" value="" style="endArrow=classic;html=1;rounded=0;exitX=0.064;exitY=0.748;exitDx=0;exitDy=0;exitPerimeter=0;entryX=1;entryY=0;entryDx=0;entryDy=0;strokeWidth=5;" parent="1" target="oPP6584VSFWBGFHBGUR1-368" edge="1">
          <mxGeometry width="50" height="50" relative="1" as="geometry">
            <mxPoint x="251.39999999999972" y="-8310.44" as="sourcePoint" />
            <mxPoint x="190.6" y="-8220" as="targetPoint" />
          </mxGeometry>
        </mxCell>
        <mxCell id="oPP6584VSFWBGFHBGUR1-375" value="" style="endArrow=classic;html=1;rounded=0;entryX=0.083;entryY=0.78;entryDx=0;entryDy=0;entryPerimeter=0;exitX=0.902;exitY=0.205;exitDx=0;exitDy=0;exitPerimeter=0;strokeWidth=5;" parent="1" target="oPP6584VSFWBGFHBGUR1-369" edge="1">
          <mxGeometry width="50" height="50" relative="1" as="geometry">
            <mxPoint x="523.7500000000001" y="-8429.9" as="sourcePoint" />
            <mxPoint x="750.5999999999999" y="-8561.4" as="targetPoint" />
          </mxGeometry>
        </mxCell>
        <mxCell id="oPP6584VSFWBGFHBGUR1-376" value="" style="endArrow=classic;html=1;rounded=0;exitX=1.002;exitY=0.479;exitDx=0;exitDy=0;exitPerimeter=0;strokeWidth=5;entryX=0;entryY=0.5;entryDx=0;entryDy=0;" parent="1" target="oPP6584VSFWBGFHBGUR1-370" edge="1">
          <mxGeometry width="50" height="50" relative="1" as="geometry">
            <mxPoint x="555.6" y="-8369.46" as="sourcePoint" />
            <mxPoint x="800.6" y="-8371" as="targetPoint" />
          </mxGeometry>
        </mxCell>
        <mxCell id="oPP6584VSFWBGFHBGUR1-377" value="" style="endArrow=classic;html=1;rounded=0;exitX=0.971;exitY=0.674;exitDx=0;exitDy=0;exitPerimeter=0;entryX=0.055;entryY=0.271;entryDx=0;entryDy=0;entryPerimeter=0;strokeWidth=5;strokeColor=#000817;" parent="1" target="oPP6584VSFWBGFHBGUR1-371" edge="1">
          <mxGeometry width="50" height="50" relative="1" as="geometry">
            <mxPoint x="546.1749999999998" y="-8326.720000000001" as="sourcePoint" />
            <mxPoint x="940.6" y="-8370" as="targetPoint" />
          </mxGeometry>
        </mxCell>
        <mxCell id="oPP6584VSFWBGFHBGUR1-378" value="&lt;font style=&quot;font-size: 52px;&quot;&gt;&lt;b style=&quot;&quot;&gt;المدير&lt;/b&gt;&lt;/font&gt;" style="rounded=1;whiteSpace=wrap;html=1;fillColor=light-dark(#FFFFFF,#000000);gradientColor=none;strokeColor=light-dark(#000000,#FFFFFF);fontColor=light-dark(#000000,#FFFFFF);strokeWidth=10;" parent="1" vertex="1">
          <mxGeometry x="-464.62" y="-9630" width="330" height="120" as="geometry" />
        </mxCell>
        <mxCell id="oPP6584VSFWBGFHBGUR1-379" value="&lt;font style=&quot;font-size: 53px;&quot;&gt;&lt;b style=&quot;&quot;&gt;المستخدم&lt;/b&gt;&lt;/font&gt;" style="rounded=1;whiteSpace=wrap;html=1;fillColor=light-dark(#FFFFFF,#000000);gradientColor=none;strokeColor=light-dark(#000000,#FFFFFF);fontColor=light-dark(#000000,#FFFFFF);strokeWidth=10;" parent="1" vertex="1">
          <mxGeometry x="1064.92" y="-9630" width="330" height="120" as="geometry" />
        </mxCell>
        <mxCell id="oPP6584VSFWBGFHBGUR1-380" value="" style="endArrow=classic;html=1;rounded=0;exitX=1;exitY=0.25;exitDx=0;exitDy=0;entryX=0.014;entryY=0.395;entryDx=0;entryDy=0;entryPerimeter=0;strokeWidth=10;" parent="1" source="oPP6584VSFWBGFHBGUR1-378" target="oPP6584VSFWBGFHBGUR1-365" edge="1">
          <mxGeometry width="50" height="50" relative="1" as="geometry">
            <mxPoint x="-104.94000000000014" y="-9600" as="sourcePoint" />
            <mxPoint x="315.3749999999999" y="-9598.555" as="targetPoint" />
          </mxGeometry>
        </mxCell>
        <mxCell id="oPP6584VSFWBGFHBGUR1-381" value="" style="endArrow=classic;html=1;rounded=0;exitX=0.003;exitY=0.563;exitDx=0;exitDy=0;exitPerimeter=0;entryX=1.009;entryY=0.694;entryDx=0;entryDy=0;entryPerimeter=0;strokeWidth=10;" parent="1" source="oPP6584VSFWBGFHBGUR1-365" target="oPP6584VSFWBGFHBGUR1-378" edge="1">
          <mxGeometry width="50" height="50" relative="1" as="geometry">
            <mxPoint x="125.38" y="-9500" as="sourcePoint" />
            <mxPoint x="175.38" y="-9550" as="targetPoint" />
          </mxGeometry>
        </mxCell>
        <mxCell id="oPP6584VSFWBGFHBGUR1-382" value="" style="endArrow=classic;html=1;rounded=0;exitX=0.992;exitY=0.594;exitDx=0;exitDy=0;exitPerimeter=0;strokeWidth=10;entryX=0;entryY=0.75;entryDx=0;entryDy=0;" parent="1" source="oPP6584VSFWBGFHBGUR1-365" edge="1" target="oPP6584VSFWBGFHBGUR1-379">
          <mxGeometry width="50" height="50" relative="1" as="geometry">
            <mxPoint x="745.3849999999999" y="-9539.44" as="sourcePoint" />
            <mxPoint x="1053.3000000000004" y="-9539.54" as="targetPoint" />
          </mxGeometry>
        </mxCell>
        <mxCell id="oPP6584VSFWBGFHBGUR1-383" value="" style="endArrow=classic;html=1;rounded=0;entryX=0.999;entryY=0.43;entryDx=0;entryDy=0;entryPerimeter=0;strokeWidth=10;exitX=0.001;exitY=0.334;exitDx=0;exitDy=0;exitPerimeter=0;" parent="1" target="oPP6584VSFWBGFHBGUR1-365" edge="1" source="oPP6584VSFWBGFHBGUR1-379">
          <mxGeometry width="50" height="50" relative="1" as="geometry">
            <mxPoint x="1053.3000000000002" y="-9589" as="sourcePoint" />
            <mxPoint x="747.0000000000002" y="-9588.545" as="targetPoint" />
          </mxGeometry>
        </mxCell>
        <mxCell id="oPP6584VSFWBGFHBGUR1-384" value="&lt;font style=&quot;font-size: 45px;&quot;&gt;طلب اطلاع علي المتجر&lt;/font&gt;" style="text;html=1;align=center;verticalAlign=middle;resizable=0;points=[];autosize=1;strokeColor=none;fillColor=none;fontSize=40;fontStyle=1" parent="1" vertex="1">
          <mxGeometry x="535.61" y="-9250" width="370" height="70" as="geometry" />
        </mxCell>
        <mxCell id="oPP6584VSFWBGFHBGUR1-385" value="&lt;font style=&quot;font-size: 48px;&quot;&gt;&lt;b&gt;معلومات عن لوحة التحكم&lt;/b&gt;&lt;/font&gt;" style="text;html=1;align=center;verticalAlign=middle;resizable=0;points=[];autosize=1;strokeColor=none;fillColor=none;" parent="1" vertex="1">
          <mxGeometry x="639.71" y="-9540" width="420" height="70" as="geometry" />
        </mxCell>
        <mxCell id="oPP6584VSFWBGFHBGUR1-386" value="&lt;font&gt;&lt;b&gt;معلومات عن لوحة التحكم&lt;/b&gt;&lt;/font&gt;" style="text;html=1;align=center;verticalAlign=middle;resizable=0;points=[];autosize=1;strokeColor=none;fillColor=none;fontSize=50;" parent="1" vertex="1">
          <mxGeometry x="-120" y="-9540" width="440" height="70" as="geometry" />
        </mxCell>
        <mxCell id="oPP6584VSFWBGFHBGUR1-387" value="&lt;font style=&quot;font-size: 48px;&quot;&gt;&lt;b style=&quot;&quot;&gt;طلب اطلاع علي لوحة التحكم&lt;/b&gt;&lt;/font&gt;" style="text;html=1;align=center;verticalAlign=middle;resizable=0;points=[];autosize=1;strokeColor=none;fillColor=none;fontSize=45;" parent="1" vertex="1">
          <mxGeometry x="-134.62" y="-9675" width="470" height="70" as="geometry" />
        </mxCell>
        <mxCell id="oPP6584VSFWBGFHBGUR1-388" style="edgeStyle=orthogonalEdgeStyle;rounded=0;orthogonalLoop=1;jettySize=auto;html=1;exitX=1;exitY=0.5;exitDx=0;exitDy=0;entryX=0;entryY=0.5;entryDx=0;entryDy=0;strokeWidth=5;" parent="1" edge="1">
          <mxGeometry relative="1" as="geometry">
            <mxPoint x="15.670000000000087" y="-5910" as="sourcePoint" />
            <mxPoint x="235.6700000000001" y="-5910" as="targetPoint" />
          </mxGeometry>
        </mxCell>
        <mxCell id="oPP6584VSFWBGFHBGUR1-389" value="&lt;font color=&quot;#ffffff&quot; style=&quot;font-size: 72px;&quot;&gt;&lt;b style=&quot;&quot;&gt;المدير&lt;/b&gt;&lt;/font&gt;" style="rounded=1;whiteSpace=wrap;html=1;fillColor=#3399FF;gradientColor=none;strokeColor=#6c8ebf;" parent="1" vertex="1">
          <mxGeometry x="-314.3299999999999" y="-5950" width="330" height="120" as="geometry" />
        </mxCell>
        <mxCell id="oPP6584VSFWBGFHBGUR1-390" style="edgeStyle=orthogonalEdgeStyle;rounded=0;orthogonalLoop=1;jettySize=auto;html=1;exitX=0;exitY=0.75;exitDx=0;exitDy=0;entryX=1;entryY=0.75;entryDx=0;entryDy=0;strokeWidth=5;" parent="1" source="oPP6584VSFWBGFHBGUR1-391" target="oPP6584VSFWBGFHBGUR1-394" edge="1">
          <mxGeometry relative="1" as="geometry" />
        </mxCell>
        <mxCell id="oPP6584VSFWBGFHBGUR1-391" value="&lt;b style=&quot;color: rgb(255, 255, 255);&quot;&gt;&lt;font style=&quot;font-size: 48px;&quot;&gt;صفحة لوحة التحكم&lt;/font&gt;&lt;/b&gt;" style="rounded=1;whiteSpace=wrap;html=1;fillColor=#3399FF;gradientColor=none;strokeColor=#6c8ebf;" parent="1" vertex="1">
          <mxGeometry x="830.6700000000001" y="-5950" width="330" height="120" as="geometry" />
        </mxCell>
        <mxCell id="oPP6584VSFWBGFHBGUR1-392" style="edgeStyle=orthogonalEdgeStyle;rounded=0;orthogonalLoop=1;jettySize=auto;html=1;exitX=1;exitY=0.5;exitDx=0;exitDy=0;entryX=0;entryY=0.5;entryDx=0;entryDy=0;strokeWidth=5;" parent="1" edge="1">
          <mxGeometry relative="1" as="geometry">
            <mxPoint x="565.6700000000001" y="-5900" as="sourcePoint" />
            <mxPoint x="830.6700000000001" y="-5900" as="targetPoint" />
          </mxGeometry>
        </mxCell>
        <mxCell id="oPP6584VSFWBGFHBGUR1-393" style="edgeStyle=orthogonalEdgeStyle;rounded=0;orthogonalLoop=1;jettySize=auto;html=1;exitX=0;exitY=0.75;exitDx=0;exitDy=0;entryX=1;entryY=0.75;entryDx=0;entryDy=0;strokeWidth=5;" parent="1" source="oPP6584VSFWBGFHBGUR1-394" target="oPP6584VSFWBGFHBGUR1-389" edge="1">
          <mxGeometry relative="1" as="geometry" />
        </mxCell>
        <mxCell id="oPP6584VSFWBGFHBGUR1-394" value="&lt;b style=&quot;color: rgb(255, 255, 255);&quot;&gt;&lt;font style=&quot;font-size: 48px;&quot;&gt;صفحة تسجيل دخول&lt;/font&gt;&lt;/b&gt;" style="rounded=1;whiteSpace=wrap;html=1;fillColor=#3399FF;gradientColor=none;strokeColor=#6c8ebf;" parent="1" vertex="1">
          <mxGeometry x="235.6700000000001" y="-5950" width="330" height="120" as="geometry" />
        </mxCell>
        <mxCell id="oPP6584VSFWBGFHBGUR1-395" style="edgeStyle=orthogonalEdgeStyle;rounded=0;orthogonalLoop=1;jettySize=auto;html=1;exitX=1;exitY=0.5;exitDx=0;exitDy=0;entryX=0.005;entryY=0.429;entryDx=0;entryDy=0;strokeWidth=5;entryPerimeter=0;" parent="1" target="oPP6584VSFWBGFHBGUR1-400" edge="1">
          <mxGeometry relative="1" as="geometry">
            <mxPoint x="-30" y="-4625" as="sourcePoint" />
            <mxPoint x="360.00000000000045" y="-4625" as="targetPoint" />
          </mxGeometry>
        </mxCell>
        <mxCell id="oPP6584VSFWBGFHBGUR1-396" value="&lt;b style=&quot;color: rgb(255, 255, 255);&quot;&gt;&lt;font style=&quot;font-size: 72px;&quot;&gt;صفحة الرئيسية&lt;/font&gt;&lt;/b&gt;" style="rounded=1;whiteSpace=wrap;html=1;fillColor=#3399FF;gradientColor=none;strokeColor=#6c8ebf;" parent="1" vertex="1">
          <mxGeometry x="-450" y="-4685" width="420" height="150" as="geometry" />
        </mxCell>
        <mxCell id="oPP6584VSFWBGFHBGUR1-397" value="" style="endArrow=classic;html=1;rounded=0;exitX=0.025;exitY=0.631;exitDx=0;exitDy=0;exitPerimeter=0;entryX=1;entryY=0.75;entryDx=0;entryDy=0;strokeWidth=5;" parent="1" source="oPP6584VSFWBGFHBGUR1-400" edge="1">
          <mxGeometry width="50" height="50" relative="1" as="geometry">
            <mxPoint x="359.34000000000015" y="-4585" as="sourcePoint" />
            <mxPoint x="-30" y="-4581.7" as="targetPoint" />
          </mxGeometry>
        </mxCell>
        <mxCell id="oPP6584VSFWBGFHBGUR1-398" value="" style="html=1;dashed=0;whiteSpace=wrap;shape=mxgraph.dfd.dataStoreID;align=left;spacingLeft=3;points=[[0,0],[0.5,0],[1,0],[0,0.5],[1,0.5],[0,1],[0.5,1],[1,1]];strokeWidth=5;" parent="1" vertex="1">
          <mxGeometry x="-2180" y="-10820" width="280" height="110" as="geometry" />
        </mxCell>
        <mxCell id="oPP6584VSFWBGFHBGUR1-399" value="&lt;b&gt;&lt;font style=&quot;font-size: 48px;&quot;&gt;استجابة&lt;/font&gt;&lt;/b&gt;" style="text;html=1;align=center;verticalAlign=middle;resizable=0;points=[];autosize=1;strokeColor=none;fillColor=none;" parent="1" vertex="1">
          <mxGeometry x="90" y="-4565" width="140" height="70" as="geometry" />
        </mxCell>
        <mxCell id="oPP6584VSFWBGFHBGUR1-400" value="&lt;span style=&quot;background-color: rgb(51, 153, 255);&quot;&gt;&lt;font style=&quot;font-size: 48px;&quot;&gt;&lt;b style=&quot;forced-color-adjust: none; color: rgb(255, 255, 255); font-family: Helvetica; font-style: normal; font-variant-ligatures: normal; font-variant-caps: normal; letter-spacing: normal; orphans: 2; text-align: center; text-indent: 0px; text-transform: none; widows: 2; word-spacing: 0px; -webkit-text-stroke-width: 0px; white-space: normal; text-decoration-thickness: initial; text-decoration-style: initial; text-decoration-color: initial;&quot;&gt;عملية البحث&lt;/b&gt;&lt;/font&gt;&lt;br&gt;&lt;/span&gt;" style="ellipse;whiteSpace=wrap;html=1;fillColor=#3399FF;strokeColor=#66B2FF;" parent="1" vertex="1">
          <mxGeometry x="365.6100000000001" y="-4710" width="300" height="200" as="geometry" />
        </mxCell>
        <mxCell id="oPP6584VSFWBGFHBGUR1-401" value="&lt;font style=&quot;font-size: 48px;&quot;&gt;&lt;b&gt;ادخال البيانات&lt;/b&gt;&lt;/font&gt;" style="text;html=1;align=center;verticalAlign=middle;resizable=0;points=[];autosize=1;strokeColor=none;fillColor=none;" parent="1" vertex="1">
          <mxGeometry x="40" y="-4705" width="230" height="70" as="geometry" />
        </mxCell>
        <mxCell id="oPP6584VSFWBGFHBGUR1-402" value="&lt;b style=&quot;color: rgb(255, 255, 255);&quot;&gt;&lt;font style=&quot;font-size: 72px;&quot;&gt;العميل&lt;/font&gt;&lt;/b&gt;&lt;b style=&quot;color: rgb(255, 255, 255); font-size: 48px;&quot;&gt;&amp;nbsp;&lt;/b&gt;" style="rounded=1;whiteSpace=wrap;html=1;fillColor=#3399FF;gradientColor=none;strokeColor=#6c8ebf;" parent="1" vertex="1">
          <mxGeometry x="-1010" y="-4685" width="370" height="150" as="geometry" />
        </mxCell>
        <mxCell id="oPP6584VSFWBGFHBGUR1-403" style="edgeStyle=orthogonalEdgeStyle;rounded=0;orthogonalLoop=1;jettySize=auto;html=1;exitX=1;exitY=0.537;exitDx=0;exitDy=0;entryX=0;entryY=0.5;entryDx=0;entryDy=0;strokeWidth=5;exitPerimeter=0;" parent="1" source="oPP6584VSFWBGFHBGUR1-402" edge="1">
          <mxGeometry relative="1" as="geometry">
            <mxPoint x="-670" y="-4605" as="sourcePoint" />
            <mxPoint x="-450" y="-4605" as="targetPoint" />
          </mxGeometry>
        </mxCell>
        <mxCell id="oPP6584VSFWBGFHBGUR1-404" style="edgeStyle=orthogonalEdgeStyle;rounded=0;orthogonalLoop=1;jettySize=auto;html=1;exitX=1;exitY=0.5;exitDx=0;exitDy=0;entryX=0.005;entryY=0.429;entryDx=0;entryDy=0;strokeWidth=5;entryPerimeter=0;" parent="1" target="oPP6584VSFWBGFHBGUR1-420" edge="1">
          <mxGeometry relative="1" as="geometry">
            <mxPoint x="130" y="-2495" as="sourcePoint" />
            <mxPoint x="520.0000000000005" y="-2495" as="targetPoint" />
          </mxGeometry>
        </mxCell>
        <mxCell id="oPP6584VSFWBGFHBGUR1-405" style="edgeStyle=orthogonalEdgeStyle;rounded=0;orthogonalLoop=1;jettySize=auto;html=1;strokeWidth=5;entryX=0;entryY=0.5;entryDx=0;entryDy=0;" parent="1" target="oPP6584VSFWBGFHBGUR1-421" edge="1">
          <mxGeometry relative="1" as="geometry">
            <mxPoint x="75.61000000000001" y="-2400" as="sourcePoint" />
            <mxPoint x="477.6100000000001" y="-2215.05" as="targetPoint" />
            <Array as="points">
              <mxPoint x="75.61000000000001" y="-2405" />
              <mxPoint x="75.61000000000001" y="-2245" />
            </Array>
          </mxGeometry>
        </mxCell>
        <mxCell id="oPP6584VSFWBGFHBGUR1-406" value="&lt;b style=&quot;color: rgb(255, 255, 255);&quot;&gt;&lt;font style=&quot;font-size: 72px;&quot;&gt;صفحة فئات&lt;/font&gt;&lt;/b&gt;" style="rounded=1;whiteSpace=wrap;html=1;fillColor=#3399FF;gradientColor=none;strokeColor=#6c8ebf;" parent="1" vertex="1">
          <mxGeometry x="-290" y="-2555" width="420" height="150" as="geometry" />
        </mxCell>
        <mxCell id="oPP6584VSFWBGFHBGUR1-407" value="" style="endArrow=classic;html=1;rounded=0;exitX=0.025;exitY=0.631;exitDx=0;exitDy=0;exitPerimeter=0;entryX=1;entryY=0.75;entryDx=0;entryDy=0;strokeWidth=5;" parent="1" source="oPP6584VSFWBGFHBGUR1-420" edge="1">
          <mxGeometry width="50" height="50" relative="1" as="geometry">
            <mxPoint x="519.3400000000001" y="-2455" as="sourcePoint" />
            <mxPoint x="130" y="-2451.7" as="targetPoint" />
          </mxGeometry>
        </mxCell>
        <mxCell id="oPP6584VSFWBGFHBGUR1-408" style="edgeStyle=orthogonalEdgeStyle;rounded=0;orthogonalLoop=1;jettySize=auto;html=1;strokeWidth=5;entryX=0.002;entryY=0.454;entryDx=0;entryDy=0;entryPerimeter=0;" parent="1" target="oPP6584VSFWBGFHBGUR1-422" edge="1">
          <mxGeometry relative="1" as="geometry">
            <mxPoint x="-64.39" y="-2400" as="sourcePoint" />
            <mxPoint x="521.2000000000061" y="-1755" as="targetPoint" />
            <Array as="points">
              <mxPoint x="-64.39" y="-2405" />
              <mxPoint x="-64.39" y="-1764" />
            </Array>
          </mxGeometry>
        </mxCell>
        <mxCell id="oPP6584VSFWBGFHBGUR1-409" style="edgeStyle=orthogonalEdgeStyle;rounded=0;orthogonalLoop=1;jettySize=auto;html=1;strokeWidth=5;entryX=0;entryY=0.5;entryDx=0;entryDy=0;exitX=0.333;exitY=1.002;exitDx=0;exitDy=0;exitPerimeter=0;" parent="1" target="oPP6584VSFWBGFHBGUR1-423" edge="1">
          <mxGeometry relative="1" as="geometry">
            <mxPoint x="-124.53000000000031" y="-2404.7" as="sourcePoint" />
            <mxPoint x="497.6900000000005" y="-1525.3999999999996" as="targetPoint" />
            <Array as="points">
              <mxPoint x="-124.38999999999999" y="-1505" />
            </Array>
          </mxGeometry>
        </mxCell>
        <mxCell id="oPP6584VSFWBGFHBGUR1-410" value="&lt;b&gt;&lt;font style=&quot;font-size: 36px;&quot;&gt;ملف المفضلة&lt;/font&gt;&lt;/b&gt;" style="html=1;dashed=0;whiteSpace=wrap;shape=partialRectangle;right=0;strokeWidth=5;" parent="1" vertex="1">
          <mxGeometry x="1145.61" y="-2260" width="230" height="90" as="geometry" />
        </mxCell>
        <mxCell id="oPP6584VSFWBGFHBGUR1-411" value="&lt;b&gt;&lt;font style=&quot;font-size: 36px;&quot;&gt;ملف المستخدمين&lt;/font&gt;&lt;/b&gt;" style="html=1;dashed=0;whiteSpace=wrap;shape=partialRectangle;right=0;strokeWidth=5;" parent="1" vertex="1">
          <mxGeometry x="1145.61" y="-1560" width="230" height="90" as="geometry" />
        </mxCell>
        <mxCell id="oPP6584VSFWBGFHBGUR1-412" value="" style="html=1;dashed=0;whiteSpace=wrap;shape=partialRectangle;right=0;strokeWidth=5;" parent="1" vertex="1">
          <mxGeometry x="1145.61" y="-1995" height="10" as="geometry" />
        </mxCell>
        <mxCell id="oPP6584VSFWBGFHBGUR1-413" style="edgeStyle=orthogonalEdgeStyle;rounded=0;orthogonalLoop=1;jettySize=auto;html=1;entryX=-0.01;entryY=0.306;entryDx=0;entryDy=0;entryPerimeter=0;strokeWidth=5;exitX=0.978;exitY=0.363;exitDx=0;exitDy=0;exitPerimeter=0;" parent="1" source="oPP6584VSFWBGFHBGUR1-423" target="oPP6584VSFWBGFHBGUR1-411" edge="1">
          <mxGeometry relative="1" as="geometry">
            <mxPoint x="845.6099999999999" y="-1532" as="sourcePoint" />
            <mxPoint x="1161.7" y="-1532.1800000000003" as="targetPoint" />
          </mxGeometry>
        </mxCell>
        <mxCell id="oPP6584VSFWBGFHBGUR1-414" style="edgeStyle=orthogonalEdgeStyle;rounded=0;orthogonalLoop=1;jettySize=auto;html=1;exitX=0;exitY=0.75;exitDx=0;exitDy=0;entryX=0.999;entryY=0.56;entryDx=0;entryDy=0;entryPerimeter=0;strokeWidth=5;" parent="1" source="oPP6584VSFWBGFHBGUR1-411" target="oPP6584VSFWBGFHBGUR1-423" edge="1">
          <mxGeometry relative="1" as="geometry">
            <mxPoint x="1164.9499999999998" y="-1492.1800000000003" as="sourcePoint" />
            <mxPoint x="895.6100000000001" y="-1492.9400000000005" as="targetPoint" />
          </mxGeometry>
        </mxCell>
        <mxCell id="oPP6584VSFWBGFHBGUR1-415" value="&lt;b&gt;&lt;font style=&quot;font-size: 24px;&quot;&gt;تحقق من التسجيل&lt;/font&gt;&lt;/b&gt;" style="text;html=1;align=center;verticalAlign=middle;resizable=0;points=[];autosize=1;strokeColor=none;fillColor=none;" parent="1" vertex="1">
          <mxGeometry x="960.6099999999999" y="-1590" width="170" height="40" as="geometry" />
        </mxCell>
        <mxCell id="oPP6584VSFWBGFHBGUR1-416" value="&lt;font style=&quot;font-size: 24px;&quot;&gt;&lt;b&gt;رد&lt;/b&gt;&lt;/font&gt;" style="text;html=1;align=center;verticalAlign=middle;resizable=0;points=[];autosize=1;strokeColor=none;fillColor=none;" parent="1" vertex="1">
          <mxGeometry x="1015.6099999999999" y="-1480" width="40" height="40" as="geometry" />
        </mxCell>
        <mxCell id="oPP6584VSFWBGFHBGUR1-417" value="&lt;b&gt;&lt;font style=&quot;font-size: 48px;&quot;&gt;استجابة&lt;/font&gt;&lt;/b&gt;" style="text;html=1;align=center;verticalAlign=middle;resizable=0;points=[];autosize=1;strokeColor=none;fillColor=none;" parent="1" vertex="1">
          <mxGeometry x="250" y="-2435" width="140" height="70" as="geometry" />
        </mxCell>
        <mxCell id="oPP6584VSFWBGFHBGUR1-418" style="edgeStyle=orthogonalEdgeStyle;rounded=0;orthogonalLoop=1;jettySize=auto;html=1;exitX=1;exitY=0.5;exitDx=0;exitDy=0;strokeWidth=5;entryX=0;entryY=0.289;entryDx=0;entryDy=0;entryPerimeter=0;" parent="1" target="oPP6584VSFWBGFHBGUR1-410" edge="1">
          <mxGeometry relative="1" as="geometry">
            <mxPoint x="837.4499999999998" y="-2234.9400000000005" as="sourcePoint" />
            <mxPoint x="1135.61" y="-2234" as="targetPoint" />
            <Array as="points">
              <mxPoint x="827.6099999999999" y="-2235" />
            </Array>
          </mxGeometry>
        </mxCell>
        <mxCell id="oPP6584VSFWBGFHBGUR1-419" value="&lt;font style=&quot;font-size: 24px;&quot;&gt;&lt;b&gt;حصول علي قائمة المفضلة&lt;/b&gt;&lt;/font&gt;" style="text;html=1;align=center;verticalAlign=middle;resizable=0;points=[];autosize=1;strokeColor=none;fillColor=none;" parent="1" vertex="1">
          <mxGeometry x="865.6099999999999" y="-2275" width="240" height="40" as="geometry" />
        </mxCell>
        <mxCell id="oPP6584VSFWBGFHBGUR1-420" value="&lt;span style=&quot;background-color: rgb(51, 153, 255);&quot;&gt;&lt;font style=&quot;font-size: 48px;&quot;&gt;&lt;b style=&quot;forced-color-adjust: none; color: rgb(255, 255, 255); font-family: Helvetica; font-style: normal; font-variant-ligatures: normal; font-variant-caps: normal; letter-spacing: normal; orphans: 2; text-align: center; text-indent: 0px; text-transform: none; widows: 2; word-spacing: 0px; -webkit-text-stroke-width: 0px; white-space: normal; text-decoration-thickness: initial; text-decoration-style: initial; text-decoration-color: initial;&quot;&gt;عملية البحث&lt;/b&gt;&lt;/font&gt;&lt;br&gt;&lt;/span&gt;" style="ellipse;whiteSpace=wrap;html=1;fillColor=#3399FF;strokeColor=#66B2FF;" parent="1" vertex="1">
          <mxGeometry x="545.6100000000001" y="-2580" width="300" height="200" as="geometry" />
        </mxCell>
        <mxCell id="oPP6584VSFWBGFHBGUR1-421" value="&lt;font color=&quot;#ffffff&quot;&gt;&lt;span style=&quot;font-size: 36px; background-color: rgb(51, 153, 255);&quot;&gt;&lt;b&gt;عرض قائمة مفضلة&lt;/b&gt;&lt;/span&gt;&lt;/font&gt;" style="ellipse;whiteSpace=wrap;html=1;fillColor=#3399FF;strokeColor=#66B2FF;" parent="1" vertex="1">
          <mxGeometry x="545.6100000000001" y="-2345" width="300" height="200" as="geometry" />
        </mxCell>
        <mxCell id="oPP6584VSFWBGFHBGUR1-422" value="&lt;b style=&quot;font-size: 36px; text-wrap: nowrap;&quot;&gt;&lt;font color=&quot;#ffffff&quot;&gt;انتقال الي صفحة التسوق&lt;/font&gt;&lt;/b&gt;&lt;span style=&quot;background-color: rgb(51, 153, 255);&quot;&gt;&lt;br&gt;&lt;/span&gt;" style="ellipse;whiteSpace=wrap;html=1;fillColor=#3399FF;strokeColor=#66B2FF;" parent="1" vertex="1">
          <mxGeometry x="545.6100000000001" y="-1855" width="300" height="200" as="geometry" />
        </mxCell>
        <mxCell id="oPP6584VSFWBGFHBGUR1-423" value="&lt;b style=&quot;text-wrap: nowrap;&quot;&gt;&lt;font color=&quot;#ffffff&quot; style=&quot;font-size: 47px;&quot;&gt;طلب تسجيل الدخول&lt;/font&gt;&lt;/b&gt;&lt;span style=&quot;background-color: rgb(51, 153, 255);&quot;&gt;&lt;br&gt;&lt;/span&gt;" style="ellipse;whiteSpace=wrap;html=1;fillColor=#3399FF;strokeColor=#66B2FF;" parent="1" vertex="1">
          <mxGeometry x="535.6100000000001" y="-1605" width="300" height="200" as="geometry" />
        </mxCell>
        <mxCell id="oPP6584VSFWBGFHBGUR1-424" value="&lt;font style=&quot;font-size: 48px;&quot;&gt;&lt;b&gt;ادخال البيانات&lt;/b&gt;&lt;/font&gt;" style="text;html=1;align=center;verticalAlign=middle;resizable=0;points=[];autosize=1;strokeColor=none;fillColor=none;" parent="1" vertex="1">
          <mxGeometry x="200" y="-2575" width="230" height="70" as="geometry" />
        </mxCell>
        <mxCell id="oPP6584VSFWBGFHBGUR1-425" value="&lt;b style=&quot;color: rgb(255, 255, 255);&quot;&gt;&lt;font style=&quot;font-size: 72px;&quot;&gt;العميل&lt;/font&gt;&lt;/b&gt;&lt;b style=&quot;color: rgb(255, 255, 255); font-size: 48px;&quot;&gt;&amp;nbsp;&lt;/b&gt;" style="rounded=1;whiteSpace=wrap;html=1;fillColor=#3399FF;gradientColor=none;strokeColor=#6c8ebf;" parent="1" vertex="1">
          <mxGeometry x="-850" y="-2555" width="370" height="150" as="geometry" />
        </mxCell>
        <mxCell id="oPP6584VSFWBGFHBGUR1-426" style="edgeStyle=orthogonalEdgeStyle;rounded=0;orthogonalLoop=1;jettySize=auto;html=1;exitX=1;exitY=0.537;exitDx=0;exitDy=0;entryX=0;entryY=0.5;entryDx=0;entryDy=0;strokeWidth=5;exitPerimeter=0;" parent="1" source="oPP6584VSFWBGFHBGUR1-425" edge="1">
          <mxGeometry relative="1" as="geometry">
            <mxPoint x="-510" y="-2475" as="sourcePoint" />
            <mxPoint x="-290" y="-2475" as="targetPoint" />
          </mxGeometry>
        </mxCell>
        <mxCell id="oPP6584VSFWBGFHBGUR1-427" style="edgeStyle=orthogonalEdgeStyle;rounded=0;orthogonalLoop=1;jettySize=auto;html=1;entryX=0.959;entryY=0.704;entryDx=0;entryDy=0;entryPerimeter=0;strokeWidth=5;" parent="1" target="oPP6584VSFWBGFHBGUR1-421" edge="1">
          <mxGeometry relative="1" as="geometry">
            <mxPoint x="1147.11" y="-2205" as="sourcePoint" />
            <mxPoint x="845.6099999999999" y="-2204.2" as="targetPoint" />
            <Array as="points">
              <mxPoint x="857.6099999999999" y="-2205" />
            </Array>
          </mxGeometry>
        </mxCell>
        <mxCell id="oPP6584VSFWBGFHBGUR1-428" style="edgeStyle=orthogonalEdgeStyle;rounded=0;orthogonalLoop=1;jettySize=auto;html=1;strokeWidth=5;entryX=0;entryY=0.5;entryDx=0;entryDy=0;exitX=0.641;exitY=1.009;exitDx=0;exitDy=0;exitPerimeter=0;" parent="1" target="oPP6584VSFWBGFHBGUR1-432" edge="1">
          <mxGeometry relative="1" as="geometry">
            <mxPoint x="4.830000000000259" y="-2403.6500000000005" as="sourcePoint" />
            <mxPoint x="477.6100000000001" y="-2005.0500000000002" as="targetPoint" />
            <Array as="points">
              <mxPoint x="4.610000000000005" y="-1995" />
            </Array>
          </mxGeometry>
        </mxCell>
        <mxCell id="oPP6584VSFWBGFHBGUR1-429" value="&lt;b&gt;&lt;font style=&quot;font-size: 36px;&quot;&gt;ملف المفضلة&lt;/font&gt;&lt;/b&gt;" style="html=1;dashed=0;whiteSpace=wrap;shape=partialRectangle;right=0;strokeWidth=5;" parent="1" vertex="1">
          <mxGeometry x="1145.61" y="-2050" width="230" height="90" as="geometry" />
        </mxCell>
        <mxCell id="oPP6584VSFWBGFHBGUR1-430" style="edgeStyle=orthogonalEdgeStyle;rounded=0;orthogonalLoop=1;jettySize=auto;html=1;exitX=1;exitY=0.5;exitDx=0;exitDy=0;strokeWidth=5;entryX=0;entryY=0.289;entryDx=0;entryDy=0;entryPerimeter=0;" parent="1" target="oPP6584VSFWBGFHBGUR1-429" edge="1">
          <mxGeometry relative="1" as="geometry">
            <mxPoint x="837.4499999999998" y="-2024.9400000000005" as="sourcePoint" />
            <mxPoint x="1135.61" y="-2024" as="targetPoint" />
            <Array as="points">
              <mxPoint x="827.6099999999999" y="-2025" />
            </Array>
          </mxGeometry>
        </mxCell>
        <mxCell id="oPP6584VSFWBGFHBGUR1-431" value="&lt;font style=&quot;font-size: 24px;&quot;&gt;&lt;b&gt;عدل علي قائمة المفضلة&lt;/b&gt;&lt;/font&gt;" style="text;html=1;align=center;verticalAlign=middle;resizable=0;points=[];autosize=1;strokeColor=none;fillColor=none;" parent="1" vertex="1">
          <mxGeometry x="880.6099999999999" y="-2065" width="210" height="40" as="geometry" />
        </mxCell>
        <mxCell id="oPP6584VSFWBGFHBGUR1-432" value="&lt;font color=&quot;#ffffff&quot;&gt;&lt;span style=&quot;font-size: 36px; background-color: rgb(51, 153, 255);&quot;&gt;&lt;b&gt;اضافة او حذف من&lt;/b&gt;&lt;/span&gt;&lt;/font&gt;&lt;div&gt;&lt;font color=&quot;#ffffff&quot;&gt;&lt;span style=&quot;font-size: 36px; background-color: rgb(51, 153, 255);&quot;&gt;&lt;b&gt;&amp;nbsp;قائمة المفضلة&lt;/b&gt;&lt;/span&gt;&lt;/font&gt;&lt;/div&gt;" style="ellipse;whiteSpace=wrap;html=1;fillColor=#3399FF;strokeColor=#66B2FF;" parent="1" vertex="1">
          <mxGeometry x="555.6100000000001" y="-2095" width="300" height="200" as="geometry" />
        </mxCell>
        <mxCell id="oPP6584VSFWBGFHBGUR1-433" style="edgeStyle=orthogonalEdgeStyle;rounded=0;orthogonalLoop=1;jettySize=auto;html=1;strokeWidth=5;entryX=1;entryY=0.548;entryDx=0;entryDy=0;entryPerimeter=0;" parent="1" target="oPP6584VSFWBGFHBGUR1-432" edge="1">
          <mxGeometry relative="1" as="geometry">
            <mxPoint x="1145.61" y="-1985" as="sourcePoint" />
            <mxPoint x="905.6099999999999" y="-1995" as="targetPoint" />
            <Array as="points">
              <mxPoint x="905.6099999999999" y="-1985" />
            </Array>
          </mxGeometry>
        </mxCell>
        <mxCell id="oPP6584VSFWBGFHBGUR1-434" value="&lt;font style=&quot;font-size: 24px;&quot;&gt;&lt;b&gt;رد&lt;/b&gt;&lt;/font&gt;" style="text;html=1;align=center;verticalAlign=middle;resizable=0;points=[];autosize=1;strokeColor=none;fillColor=none;" parent="1" vertex="1">
          <mxGeometry x="965.6099999999999" y="-1985" width="40" height="40" as="geometry" />
        </mxCell>
        <mxCell id="oPP6584VSFWBGFHBGUR1-435" value="&lt;font style=&quot;font-size: 24px;&quot;&gt;&lt;b&gt;رد&lt;/b&gt;&lt;/font&gt;" style="text;html=1;align=center;verticalAlign=middle;resizable=0;points=[];autosize=1;strokeColor=none;fillColor=none;" parent="1" vertex="1">
          <mxGeometry x="965.6099999999999" y="-2205" width="40" height="40" as="geometry" />
        </mxCell>
        <mxCell id="oPP6584VSFWBGFHBGUR1-436" style="edgeStyle=orthogonalEdgeStyle;rounded=0;orthogonalLoop=1;jettySize=auto;html=1;strokeWidth=5;exitX=0.233;exitY=0.996;exitDx=0;exitDy=0;exitPerimeter=0;entryX=0;entryY=0.5;entryDx=0;entryDy=0;" parent="1" target="oPP6584VSFWBGFHBGUR1-437" edge="1">
          <mxGeometry relative="1" as="geometry">
            <mxPoint x="-182.14000000000033" y="-2405" as="sourcePoint" />
            <mxPoint x="540" y="-1260" as="targetPoint" />
            <Array as="points">
              <mxPoint x="-182" y="-1260" />
            </Array>
          </mxGeometry>
        </mxCell>
        <mxCell id="oPP6584VSFWBGFHBGUR1-437" value="&lt;span style=&quot;background-color: rgb(51, 153, 255); font-size: 36px; text-wrap: nowrap;&quot;&gt;&lt;font color=&quot;#ffffff&quot;&gt;&lt;b&gt;تعديل علي الصفوف&amp;nbsp;&lt;/b&gt;&lt;/font&gt;&lt;/span&gt;&lt;div&gt;&lt;span style=&quot;background-color: rgb(51, 153, 255); font-size: 36px; text-wrap: nowrap;&quot;&gt;&lt;font color=&quot;#ffffff&quot;&gt;&lt;b&gt;او علي الاعمدة&lt;/b&gt;&lt;/font&gt;&lt;/span&gt;&lt;/div&gt;" style="ellipse;whiteSpace=wrap;html=1;fillColor=#3399FF;strokeColor=#66B2FF;" parent="1" vertex="1">
          <mxGeometry x="545.6100000000001" y="-1360" width="300" height="200" as="geometry" />
        </mxCell>
        <mxCell id="oPP6584VSFWBGFHBGUR1-438" style="edgeStyle=orthogonalEdgeStyle;rounded=0;orthogonalLoop=1;jettySize=auto;html=1;strokeWidth=5;entryX=0;entryY=0.5;entryDx=0;entryDy=0;" parent="1" target="oPP6584VSFWBGFHBGUR1-450" edge="1">
          <mxGeometry relative="1" as="geometry">
            <mxPoint x="-99.39999999999998" y="-4530" as="sourcePoint" />
            <mxPoint x="302.5999999999999" y="-4345.05" as="targetPoint" />
            <Array as="points">
              <mxPoint x="-99.39999999999998" y="-4535" />
              <mxPoint x="-99.39999999999998" y="-4375" />
            </Array>
          </mxGeometry>
        </mxCell>
        <mxCell id="oPP6584VSFWBGFHBGUR1-439" style="edgeStyle=orthogonalEdgeStyle;rounded=0;orthogonalLoop=1;jettySize=auto;html=1;strokeWidth=5;entryX=0.002;entryY=0.454;entryDx=0;entryDy=0;entryPerimeter=0;" parent="1" target="oPP6584VSFWBGFHBGUR1-451" edge="1">
          <mxGeometry relative="1" as="geometry">
            <mxPoint x="-239.39999999999998" y="-4530" as="sourcePoint" />
            <mxPoint x="346.19000000000597" y="-3885" as="targetPoint" />
            <Array as="points">
              <mxPoint x="-239.39999999999998" y="-4535" />
              <mxPoint x="-239.39999999999998" y="-3894" />
            </Array>
          </mxGeometry>
        </mxCell>
        <mxCell id="oPP6584VSFWBGFHBGUR1-440" style="edgeStyle=orthogonalEdgeStyle;rounded=0;orthogonalLoop=1;jettySize=auto;html=1;strokeWidth=5;entryX=0;entryY=0.5;entryDx=0;entryDy=0;exitX=0.333;exitY=1.002;exitDx=0;exitDy=0;exitPerimeter=0;" parent="1" target="oPP6584VSFWBGFHBGUR1-452" edge="1">
          <mxGeometry relative="1" as="geometry">
            <mxPoint x="-299.4" y="-4535" as="sourcePoint" />
            <mxPoint x="322.6800000000003" y="-3655.3999999999996" as="targetPoint" />
            <Array as="points">
              <mxPoint x="-299.4" y="-3635" />
            </Array>
          </mxGeometry>
        </mxCell>
        <mxCell id="oPP6584VSFWBGFHBGUR1-441" value="&lt;b&gt;&lt;font style=&quot;font-size: 36px;&quot;&gt;ملف المفضلة&lt;/font&gt;&lt;/b&gt;" style="html=1;dashed=0;whiteSpace=wrap;shape=partialRectangle;right=0;strokeWidth=5;" parent="1" vertex="1">
          <mxGeometry x="982.8999999999999" y="-4415" width="230" height="90" as="geometry" />
        </mxCell>
        <mxCell id="oPP6584VSFWBGFHBGUR1-442" value="&lt;b&gt;&lt;font style=&quot;font-size: 36px;&quot;&gt;ملف المستخدمين&lt;/font&gt;&lt;/b&gt;" style="html=1;dashed=0;whiteSpace=wrap;shape=partialRectangle;right=0;strokeWidth=5;" parent="1" vertex="1">
          <mxGeometry x="970.5999999999999" y="-3690" width="230" height="90" as="geometry" />
        </mxCell>
        <mxCell id="oPP6584VSFWBGFHBGUR1-443" value="" style="html=1;dashed=0;whiteSpace=wrap;shape=partialRectangle;right=0;strokeWidth=5;" parent="1" vertex="1">
          <mxGeometry x="970.5999999999999" y="-4115" height="10" as="geometry" />
        </mxCell>
        <mxCell id="oPP6584VSFWBGFHBGUR1-444" style="edgeStyle=orthogonalEdgeStyle;rounded=0;orthogonalLoop=1;jettySize=auto;html=1;entryX=-0.01;entryY=0.306;entryDx=0;entryDy=0;entryPerimeter=0;strokeWidth=5;exitX=0.978;exitY=0.363;exitDx=0;exitDy=0;exitPerimeter=0;" parent="1" source="oPP6584VSFWBGFHBGUR1-452" target="oPP6584VSFWBGFHBGUR1-442" edge="1">
          <mxGeometry relative="1" as="geometry">
            <mxPoint x="670.5999999999999" y="-3662" as="sourcePoint" />
            <mxPoint x="986.69" y="-3662.1800000000003" as="targetPoint" />
          </mxGeometry>
        </mxCell>
        <mxCell id="oPP6584VSFWBGFHBGUR1-445" style="edgeStyle=orthogonalEdgeStyle;rounded=0;orthogonalLoop=1;jettySize=auto;html=1;exitX=0;exitY=0.75;exitDx=0;exitDy=0;entryX=0.999;entryY=0.56;entryDx=0;entryDy=0;entryPerimeter=0;strokeWidth=5;" parent="1" source="oPP6584VSFWBGFHBGUR1-442" target="oPP6584VSFWBGFHBGUR1-452" edge="1">
          <mxGeometry relative="1" as="geometry">
            <mxPoint x="989.9399999999998" y="-3622.1800000000003" as="sourcePoint" />
            <mxPoint x="720.6000000000001" y="-3622.9400000000005" as="targetPoint" />
          </mxGeometry>
        </mxCell>
        <mxCell id="oPP6584VSFWBGFHBGUR1-446" value="&lt;b&gt;&lt;font style=&quot;font-size: 24px;&quot;&gt;تحقق من التسجيل&lt;/font&gt;&lt;/b&gt;" style="text;html=1;align=center;verticalAlign=middle;resizable=0;points=[];autosize=1;strokeColor=none;fillColor=none;" parent="1" vertex="1">
          <mxGeometry x="785.5999999999999" y="-3720" width="170" height="40" as="geometry" />
        </mxCell>
        <mxCell id="oPP6584VSFWBGFHBGUR1-447" value="&lt;font style=&quot;font-size: 24px;&quot;&gt;&lt;b&gt;رد&lt;/b&gt;&lt;/font&gt;" style="text;html=1;align=center;verticalAlign=middle;resizable=0;points=[];autosize=1;strokeColor=none;fillColor=none;" parent="1" vertex="1">
          <mxGeometry x="840.5999999999999" y="-3610" width="40" height="40" as="geometry" />
        </mxCell>
        <mxCell id="oPP6584VSFWBGFHBGUR1-448" style="edgeStyle=orthogonalEdgeStyle;rounded=0;orthogonalLoop=1;jettySize=auto;html=1;exitX=1;exitY=0.5;exitDx=0;exitDy=0;strokeWidth=5;entryX=0;entryY=0.289;entryDx=0;entryDy=0;entryPerimeter=0;" parent="1" target="oPP6584VSFWBGFHBGUR1-441" edge="1">
          <mxGeometry relative="1" as="geometry">
            <mxPoint x="662.4399999999998" y="-4364.9400000000005" as="sourcePoint" />
            <mxPoint x="960.5999999999999" y="-4364" as="targetPoint" />
            <Array as="points">
              <mxPoint x="652.5999999999999" y="-4365" />
            </Array>
          </mxGeometry>
        </mxCell>
        <mxCell id="oPP6584VSFWBGFHBGUR1-449" value="&lt;font style=&quot;font-size: 24px;&quot;&gt;&lt;b&gt;حصول علي قائمة المفضلة&lt;/b&gt;&lt;/font&gt;" style="text;html=1;align=center;verticalAlign=middle;resizable=0;points=[];autosize=1;strokeColor=none;fillColor=none;" parent="1" vertex="1">
          <mxGeometry x="702.8999999999999" y="-4430" width="240" height="40" as="geometry" />
        </mxCell>
        <mxCell id="oPP6584VSFWBGFHBGUR1-450" value="&lt;font color=&quot;#ffffff&quot;&gt;&lt;span style=&quot;font-size: 36px; background-color: rgb(51, 153, 255);&quot;&gt;&lt;b&gt;عرض قائمة مفضلة&lt;/b&gt;&lt;/span&gt;&lt;/font&gt;" style="ellipse;whiteSpace=wrap;html=1;fillColor=#3399FF;strokeColor=#66B2FF;" parent="1" vertex="1">
          <mxGeometry x="370.5999999999999" y="-4475" width="300" height="200" as="geometry" />
        </mxCell>
        <mxCell id="oPP6584VSFWBGFHBGUR1-451" value="&lt;b style=&quot;font-size: 36px; text-wrap: nowrap;&quot;&gt;&lt;font color=&quot;#ffffff&quot;&gt;انتقال الي صفحة التسوق&lt;/font&gt;&lt;/b&gt;&lt;span style=&quot;background-color: rgb(51, 153, 255);&quot;&gt;&lt;br&gt;&lt;/span&gt;" style="ellipse;whiteSpace=wrap;html=1;fillColor=#3399FF;strokeColor=#66B2FF;" parent="1" vertex="1">
          <mxGeometry x="370.5999999999999" y="-3985" width="300" height="200" as="geometry" />
        </mxCell>
        <mxCell id="oPP6584VSFWBGFHBGUR1-452" value="&lt;b style=&quot;text-wrap: nowrap;&quot;&gt;&lt;font color=&quot;#ffffff&quot; style=&quot;font-size: 47px;&quot;&gt;طلب تسجيل الدخول&lt;/font&gt;&lt;/b&gt;&lt;span style=&quot;background-color: rgb(51, 153, 255);&quot;&gt;&lt;br&gt;&lt;/span&gt;" style="ellipse;whiteSpace=wrap;html=1;fillColor=#3399FF;strokeColor=#66B2FF;" parent="1" vertex="1">
          <mxGeometry x="360.5999999999999" y="-3735" width="300" height="200" as="geometry" />
        </mxCell>
        <mxCell id="oPP6584VSFWBGFHBGUR1-453" style="edgeStyle=orthogonalEdgeStyle;rounded=0;orthogonalLoop=1;jettySize=auto;html=1;entryX=0.959;entryY=0.704;entryDx=0;entryDy=0;entryPerimeter=0;strokeWidth=5;" parent="1" edge="1">
          <mxGeometry relative="1" as="geometry">
            <mxPoint x="984.3999999999999" y="-4360" as="sourcePoint" />
            <mxPoint x="670.6000000000001" y="-4359.2" as="targetPoint" />
            <Array as="points">
              <mxPoint x="694.8999999999999" y="-4360" />
            </Array>
          </mxGeometry>
        </mxCell>
        <mxCell id="oPP6584VSFWBGFHBGUR1-454" style="edgeStyle=orthogonalEdgeStyle;rounded=0;orthogonalLoop=1;jettySize=auto;html=1;strokeWidth=5;entryX=0;entryY=0.5;entryDx=0;entryDy=0;exitX=0.641;exitY=1.009;exitDx=0;exitDy=0;exitPerimeter=0;" parent="1" target="oPP6584VSFWBGFHBGUR1-458" edge="1">
          <mxGeometry relative="1" as="geometry">
            <mxPoint x="-170.39999999999998" y="-4534" as="sourcePoint" />
            <mxPoint x="302.5999999999999" y="-4135.05" as="targetPoint" />
            <Array as="points">
              <mxPoint x="-170.39999999999998" y="-4125" />
            </Array>
          </mxGeometry>
        </mxCell>
        <mxCell id="oPP6584VSFWBGFHBGUR1-455" value="&lt;b&gt;&lt;font style=&quot;font-size: 36px;&quot;&gt;ملف المفضلة&lt;/font&gt;&lt;/b&gt;" style="html=1;dashed=0;whiteSpace=wrap;shape=partialRectangle;right=0;strokeWidth=5;" parent="1" vertex="1">
          <mxGeometry x="970.5999999999999" y="-4170" width="230" height="90" as="geometry" />
        </mxCell>
        <mxCell id="oPP6584VSFWBGFHBGUR1-456" style="edgeStyle=orthogonalEdgeStyle;rounded=0;orthogonalLoop=1;jettySize=auto;html=1;exitX=1;exitY=0.5;exitDx=0;exitDy=0;strokeWidth=5;entryX=0;entryY=0.289;entryDx=0;entryDy=0;entryPerimeter=0;" parent="1" target="oPP6584VSFWBGFHBGUR1-455" edge="1">
          <mxGeometry relative="1" as="geometry">
            <mxPoint x="662.4399999999998" y="-4144.9400000000005" as="sourcePoint" />
            <mxPoint x="960.5999999999999" y="-4144" as="targetPoint" />
            <Array as="points">
              <mxPoint x="652.5999999999999" y="-4145" />
            </Array>
          </mxGeometry>
        </mxCell>
        <mxCell id="oPP6584VSFWBGFHBGUR1-457" value="&lt;font style=&quot;font-size: 24px;&quot;&gt;&lt;b&gt;عدل علي قائمة المفضلة&lt;/b&gt;&lt;/font&gt;" style="text;html=1;align=center;verticalAlign=middle;resizable=0;points=[];autosize=1;strokeColor=none;fillColor=none;" parent="1" vertex="1">
          <mxGeometry x="705.5999999999999" y="-4185" width="210" height="40" as="geometry" />
        </mxCell>
        <mxCell id="oPP6584VSFWBGFHBGUR1-458" value="&lt;font color=&quot;#ffffff&quot;&gt;&lt;span style=&quot;font-size: 36px; background-color: rgb(51, 153, 255);&quot;&gt;&lt;b&gt;اضافة او حذف من&lt;/b&gt;&lt;/span&gt;&lt;/font&gt;&lt;div&gt;&lt;font color=&quot;#ffffff&quot;&gt;&lt;span style=&quot;font-size: 36px; background-color: rgb(51, 153, 255);&quot;&gt;&lt;b&gt;&amp;nbsp;قائمة المفضلة&lt;/b&gt;&lt;/span&gt;&lt;/font&gt;&lt;/div&gt;" style="ellipse;whiteSpace=wrap;html=1;fillColor=#3399FF;strokeColor=#66B2FF;" parent="1" vertex="1">
          <mxGeometry x="380.5999999999999" y="-4225" width="300" height="200" as="geometry" />
        </mxCell>
        <mxCell id="oPP6584VSFWBGFHBGUR1-459" style="edgeStyle=orthogonalEdgeStyle;rounded=0;orthogonalLoop=1;jettySize=auto;html=1;strokeWidth=5;entryX=0.988;entryY=0.602;entryDx=0;entryDy=0;entryPerimeter=0;" parent="1" target="oPP6584VSFWBGFHBGUR1-458" edge="1">
          <mxGeometry relative="1" as="geometry">
            <mxPoint x="970.5999999999999" y="-4105" as="sourcePoint" />
            <mxPoint x="680" y="-4105" as="targetPoint" />
            <Array as="points">
              <mxPoint x="731" y="-4105" />
            </Array>
          </mxGeometry>
        </mxCell>
        <mxCell id="oPP6584VSFWBGFHBGUR1-460" value="&lt;font style=&quot;font-size: 24px;&quot;&gt;&lt;b&gt;رد&lt;/b&gt;&lt;/font&gt;" style="text;html=1;align=center;verticalAlign=middle;resizable=0;points=[];autosize=1;strokeColor=none;fillColor=none;" parent="1" vertex="1">
          <mxGeometry x="790.5999999999999" y="-4105" width="40" height="40" as="geometry" />
        </mxCell>
        <mxCell id="oPP6584VSFWBGFHBGUR1-461" value="&lt;font style=&quot;font-size: 24px;&quot;&gt;&lt;b&gt;رد&lt;/b&gt;&lt;/font&gt;" style="text;html=1;align=center;verticalAlign=middle;resizable=0;points=[];autosize=1;strokeColor=none;fillColor=none;" parent="1" vertex="1">
          <mxGeometry x="802.8999999999999" y="-4360" width="40" height="40" as="geometry" />
        </mxCell>
        <mxCell id="oPP6584VSFWBGFHBGUR1-462" style="edgeStyle=orthogonalEdgeStyle;rounded=0;orthogonalLoop=1;jettySize=auto;html=1;strokeWidth=5;entryX=0.004;entryY=0.447;entryDx=0;entryDy=0;entryPerimeter=0;" parent="1" target="oPP6584VSFWBGFHBGUR1-463" edge="1">
          <mxGeometry relative="1" as="geometry">
            <mxPoint x="-380" y="-4532.98" as="sourcePoint" />
            <mxPoint x="360" y="-3385" as="targetPoint" />
            <Array as="points">
              <mxPoint x="-380" y="-3386" />
            </Array>
          </mxGeometry>
        </mxCell>
        <mxCell id="oPP6584VSFWBGFHBGUR1-463" value="&lt;b style=&quot;color: rgb(255, 255, 255); font-size: 48px; text-wrap: nowrap;&quot;&gt;عرض الملابس&lt;/b&gt;" style="ellipse;whiteSpace=wrap;html=1;fillColor=#3399FF;strokeColor=#66B2FF;" parent="1" vertex="1">
          <mxGeometry x="360.5999999999999" y="-3475" width="300" height="200" as="geometry" />
        </mxCell>
        <mxCell id="oPP6584VSFWBGFHBGUR1-464" value="&lt;font style=&quot;font-size: 48px;&quot; color=&quot;#ffffff&quot;&gt;&lt;span style=&quot;text-wrap: nowrap; background-color: rgb(51, 153, 255);&quot;&gt;&lt;b style=&quot;&quot;&gt;انتقال الي&amp;nbsp;&lt;br&gt;صفحة المنتجات&lt;/b&gt;&lt;/span&gt;&lt;/font&gt;" style="ellipse;whiteSpace=wrap;html=1;fillColor=#3399FF;strokeColor=#66B2FF;" parent="1" vertex="1">
          <mxGeometry x="950" y="-3475" width="300" height="200" as="geometry" />
        </mxCell>
        <mxCell id="oPP6584VSFWBGFHBGUR1-465" style="edgeStyle=orthogonalEdgeStyle;rounded=0;orthogonalLoop=1;jettySize=auto;html=1;strokeWidth=5;exitX=0.978;exitY=0.363;exitDx=0;exitDy=0;exitPerimeter=0;" parent="1" edge="1">
          <mxGeometry relative="1" as="geometry">
            <mxPoint x="663" y="-3375" as="sourcePoint" />
            <mxPoint x="950" y="-3375" as="targetPoint" />
          </mxGeometry>
        </mxCell>
        <mxCell id="oPP6584VSFWBGFHBGUR1-466" value="&lt;font style=&quot;font-size: 48px;&quot; color=&quot;#ffffff&quot;&gt;&lt;span style=&quot;text-wrap: nowrap; background-color: rgb(51, 153, 255);&quot;&gt;&lt;b style=&quot;&quot;&gt;انتقال الي&amp;nbsp;&lt;br&gt;صفحة المنتجات&lt;/b&gt;&lt;/span&gt;&lt;/font&gt;" style="ellipse;whiteSpace=wrap;html=1;fillColor=#3399FF;strokeColor=#66B2FF;" parent="1" vertex="1">
          <mxGeometry x="1115.6000000000001" y="-1120" width="300" height="200" as="geometry" />
        </mxCell>
        <mxCell id="oPP6584VSFWBGFHBGUR1-467" style="edgeStyle=orthogonalEdgeStyle;rounded=0;orthogonalLoop=1;jettySize=auto;html=1;strokeWidth=5;entryX=0.003;entryY=0.511;entryDx=0;entryDy=0;entryPerimeter=0;" parent="1" target="oPP6584VSFWBGFHBGUR1-466" edge="1">
          <mxGeometry relative="1" as="geometry">
            <mxPoint x="848.4199999999998" y="-1020" as="sourcePoint" />
            <mxPoint x="1090" y="-1018" as="targetPoint" />
            <Array as="points">
              <mxPoint x="848" y="-1018" />
            </Array>
          </mxGeometry>
        </mxCell>
        <mxCell id="oPP6584VSFWBGFHBGUR1-468" style="edgeStyle=orthogonalEdgeStyle;rounded=0;orthogonalLoop=1;jettySize=auto;html=1;strokeWidth=5;exitX=0.142;exitY=1.008;exitDx=0;exitDy=0;exitPerimeter=0;entryX=0;entryY=0.5;entryDx=0;entryDy=0;" parent="1" source="oPP6584VSFWBGFHBGUR1-406" target="oPP6584VSFWBGFHBGUR1-469" edge="1">
          <mxGeometry relative="1" as="geometry">
            <mxPoint x="-250" y="-2390" as="sourcePoint" />
            <mxPoint x="510" y="-1040" as="targetPoint" />
            <Array as="points">
              <mxPoint x="-230" y="-1020" />
              <mxPoint x="-230" y="-1010" />
            </Array>
          </mxGeometry>
        </mxCell>
        <mxCell id="oPP6584VSFWBGFHBGUR1-469" value="&lt;font style=&quot;font-size: 48px;&quot; color=&quot;#ffffff&quot;&gt;&lt;span style=&quot;text-wrap: nowrap; background-color: rgb(51, 153, 255);&quot;&gt;&lt;b style=&quot;&quot;&gt;عرض الملابس&lt;/b&gt;&lt;/span&gt;&lt;/font&gt;" style="ellipse;whiteSpace=wrap;html=1;fillColor=#3399FF;strokeColor=#66B2FF;" parent="1" vertex="1">
          <mxGeometry x="545.6099999999999" y="-1110" width="300" height="200" as="geometry" />
        </mxCell>
        <mxCell id="oPP6584VSFWBGFHBGUR1-470" style="edgeStyle=orthogonalEdgeStyle;rounded=0;orthogonalLoop=1;jettySize=auto;html=1;exitX=1;exitY=0.5;exitDx=0;exitDy=0;entryX=0.005;entryY=0.429;entryDx=0;entryDy=0;strokeWidth=5;entryPerimeter=0;" parent="1" target="oPP6584VSFWBGFHBGUR1-486" edge="1">
          <mxGeometry relative="1" as="geometry">
            <mxPoint x="300" y="-105" as="sourcePoint" />
            <mxPoint x="690.0000000000005" y="-105" as="targetPoint" />
            <Array as="points">
              <mxPoint x="290" y="-105" />
              <mxPoint x="290" y="-114" />
            </Array>
          </mxGeometry>
        </mxCell>
        <mxCell id="oPP6584VSFWBGFHBGUR1-471" style="edgeStyle=orthogonalEdgeStyle;rounded=0;orthogonalLoop=1;jettySize=auto;html=1;strokeWidth=5;entryX=0;entryY=0.5;entryDx=0;entryDy=0;" parent="1" target="oPP6584VSFWBGFHBGUR1-487" edge="1">
          <mxGeometry relative="1" as="geometry">
            <mxPoint x="245.61" y="-10" as="sourcePoint" />
            <mxPoint x="647.6100000000001" y="174.95000000000073" as="targetPoint" />
            <Array as="points">
              <mxPoint x="245.61" y="-15" />
              <mxPoint x="245.61" y="145" />
            </Array>
          </mxGeometry>
        </mxCell>
        <mxCell id="oPP6584VSFWBGFHBGUR1-472" value="&lt;b style=&quot;color: rgb(255, 255, 255);&quot;&gt;&lt;font style=&quot;font-size: 72px;&quot;&gt;صفحة المنتجات&lt;/font&gt;&lt;/b&gt;" style="rounded=1;whiteSpace=wrap;html=1;fillColor=#3399FF;gradientColor=none;strokeColor=#6c8ebf;" parent="1" vertex="1">
          <mxGeometry x="-290" y="-200" width="590" height="185" as="geometry" />
        </mxCell>
        <mxCell id="oPP6584VSFWBGFHBGUR1-473" value="" style="endArrow=classic;html=1;rounded=0;exitX=0.008;exitY=0.617;exitDx=0;exitDy=0;exitPerimeter=0;strokeWidth=5;" parent="1" source="oPP6584VSFWBGFHBGUR1-486" edge="1">
          <mxGeometry width="50" height="50" relative="1" as="geometry">
            <mxPoint x="689.3400000000001" y="-65" as="sourcePoint" />
            <mxPoint x="300" y="-74" as="targetPoint" />
          </mxGeometry>
        </mxCell>
        <mxCell id="oPP6584VSFWBGFHBGUR1-474" style="edgeStyle=orthogonalEdgeStyle;rounded=0;orthogonalLoop=1;jettySize=auto;html=1;strokeWidth=5;entryX=0.002;entryY=0.454;entryDx=0;entryDy=0;entryPerimeter=0;" parent="1" target="oPP6584VSFWBGFHBGUR1-488" edge="1">
          <mxGeometry relative="1" as="geometry">
            <mxPoint x="105.61000000000001" y="-10" as="sourcePoint" />
            <mxPoint x="691.2000000000062" y="635" as="targetPoint" />
            <Array as="points">
              <mxPoint x="105.61000000000001" y="-15" />
              <mxPoint x="105.61000000000001" y="626" />
            </Array>
          </mxGeometry>
        </mxCell>
        <mxCell id="oPP6584VSFWBGFHBGUR1-475" style="edgeStyle=orthogonalEdgeStyle;rounded=0;orthogonalLoop=1;jettySize=auto;html=1;strokeWidth=5;entryX=0;entryY=0.5;entryDx=0;entryDy=0;exitX=0.333;exitY=1.002;exitDx=0;exitDy=0;exitPerimeter=0;" parent="1" edge="1">
          <mxGeometry relative="1" as="geometry">
            <mxPoint x="39.85999999999967" y="-15" as="sourcePoint" />
            <mxPoint x="699.9999999999945" y="884.7000000000007" as="targetPoint" />
            <Array as="points">
              <mxPoint x="40.389999999999986" y="884.7000000000007" />
            </Array>
          </mxGeometry>
        </mxCell>
        <mxCell id="oPP6584VSFWBGFHBGUR1-476" value="&lt;b&gt;&lt;font style=&quot;font-size: 36px;&quot;&gt;ملف المفضلة&lt;/font&gt;&lt;/b&gt;" style="html=1;dashed=0;whiteSpace=wrap;shape=partialRectangle;right=0;strokeWidth=5;" parent="1" vertex="1">
          <mxGeometry x="1315.61" y="130" width="230" height="90" as="geometry" />
        </mxCell>
        <mxCell id="oPP6584VSFWBGFHBGUR1-477" value="&lt;b&gt;&lt;font style=&quot;font-size: 36px;&quot;&gt;ملف المستخدمين&lt;/font&gt;&lt;/b&gt;" style="html=1;dashed=0;whiteSpace=wrap;shape=partialRectangle;right=0;strokeWidth=5;" parent="1" vertex="1">
          <mxGeometry x="1315.61" y="830" width="230" height="90" as="geometry" />
        </mxCell>
        <mxCell id="oPP6584VSFWBGFHBGUR1-478" value="" style="html=1;dashed=0;whiteSpace=wrap;shape=partialRectangle;right=0;strokeWidth=5;" parent="1" vertex="1">
          <mxGeometry x="1315.61" y="395" height="10" as="geometry" />
        </mxCell>
        <mxCell id="oPP6584VSFWBGFHBGUR1-479" style="edgeStyle=orthogonalEdgeStyle;rounded=0;orthogonalLoop=1;jettySize=auto;html=1;entryX=-0.01;entryY=0.306;entryDx=0;entryDy=0;entryPerimeter=0;strokeWidth=5;exitX=0.978;exitY=0.363;exitDx=0;exitDy=0;exitPerimeter=0;" parent="1" source="oPP6584VSFWBGFHBGUR1-489" target="oPP6584VSFWBGFHBGUR1-477" edge="1">
          <mxGeometry relative="1" as="geometry">
            <mxPoint x="1015.6099999999999" y="858" as="sourcePoint" />
            <mxPoint x="1331.7" y="857.8199999999997" as="targetPoint" />
          </mxGeometry>
        </mxCell>
        <mxCell id="oPP6584VSFWBGFHBGUR1-480" style="edgeStyle=orthogonalEdgeStyle;rounded=0;orthogonalLoop=1;jettySize=auto;html=1;exitX=0;exitY=0.75;exitDx=0;exitDy=0;entryX=0.999;entryY=0.56;entryDx=0;entryDy=0;entryPerimeter=0;strokeWidth=5;" parent="1" source="oPP6584VSFWBGFHBGUR1-477" target="oPP6584VSFWBGFHBGUR1-489" edge="1">
          <mxGeometry relative="1" as="geometry">
            <mxPoint x="1334.9499999999998" y="897.8199999999997" as="sourcePoint" />
            <mxPoint x="1065.6100000000001" y="897.0599999999995" as="targetPoint" />
          </mxGeometry>
        </mxCell>
        <mxCell id="oPP6584VSFWBGFHBGUR1-481" value="&lt;b&gt;&lt;font style=&quot;font-size: 36px;&quot;&gt;تحقق من التسجيل&lt;/font&gt;&lt;/b&gt;" style="text;html=1;align=center;verticalAlign=middle;resizable=0;points=[];autosize=1;strokeColor=none;fillColor=none;" parent="1" vertex="1">
          <mxGeometry x="1060.61" y="790" width="230" height="60" as="geometry" />
        </mxCell>
        <mxCell id="oPP6584VSFWBGFHBGUR1-482" value="&lt;font style=&quot;font-size: 36px;&quot;&gt;&lt;b style=&quot;&quot;&gt;رد&lt;/b&gt;&lt;/font&gt;" style="text;html=1;align=center;verticalAlign=middle;resizable=0;points=[];autosize=1;strokeColor=none;fillColor=none;" parent="1" vertex="1">
          <mxGeometry x="1145.61" y="900" width="50" height="60" as="geometry" />
        </mxCell>
        <mxCell id="oPP6584VSFWBGFHBGUR1-483" value="&lt;b&gt;&lt;font style=&quot;font-size: 48px;&quot;&gt;استجابة&lt;/font&gt;&lt;/b&gt;" style="text;html=1;align=center;verticalAlign=middle;resizable=0;points=[];autosize=1;strokeColor=none;fillColor=none;" parent="1" vertex="1">
          <mxGeometry x="415" y="-70" width="140" height="70" as="geometry" />
        </mxCell>
        <mxCell id="oPP6584VSFWBGFHBGUR1-484" style="edgeStyle=orthogonalEdgeStyle;rounded=0;orthogonalLoop=1;jettySize=auto;html=1;exitX=1;exitY=0.5;exitDx=0;exitDy=0;strokeWidth=5;entryX=0;entryY=0.289;entryDx=0;entryDy=0;entryPerimeter=0;" parent="1" target="oPP6584VSFWBGFHBGUR1-476" edge="1">
          <mxGeometry relative="1" as="geometry">
            <mxPoint x="1007.4499999999998" y="155.0599999999995" as="sourcePoint" />
            <mxPoint x="1305.61" y="156" as="targetPoint" />
            <Array as="points">
              <mxPoint x="997.6099999999999" y="155" />
            </Array>
          </mxGeometry>
        </mxCell>
        <mxCell id="oPP6584VSFWBGFHBGUR1-485" value="&lt;font style=&quot;font-size: 24px;&quot;&gt;&lt;b&gt;حصول علي قائمة المفضلة&lt;/b&gt;&lt;/font&gt;" style="text;html=1;align=center;verticalAlign=middle;resizable=0;points=[];autosize=1;strokeColor=none;fillColor=none;" parent="1" vertex="1">
          <mxGeometry x="1035.61" y="115" width="240" height="40" as="geometry" />
        </mxCell>
        <mxCell id="oPP6584VSFWBGFHBGUR1-486" value="&lt;span style=&quot;background-color: rgb(51, 153, 255);&quot;&gt;&lt;font style=&quot;font-size: 48px;&quot;&gt;&lt;b style=&quot;forced-color-adjust: none; color: rgb(255, 255, 255); font-family: Helvetica; font-style: normal; font-variant-ligatures: normal; font-variant-caps: normal; letter-spacing: normal; orphans: 2; text-align: center; text-indent: 0px; text-transform: none; widows: 2; word-spacing: 0px; -webkit-text-stroke-width: 0px; white-space: normal; text-decoration-thickness: initial; text-decoration-style: initial; text-decoration-color: initial;&quot;&gt;عملية البحث&lt;/b&gt;&lt;/font&gt;&lt;br&gt;&lt;/span&gt;" style="ellipse;whiteSpace=wrap;html=1;fillColor=#3399FF;strokeColor=#66B2FF;" parent="1" vertex="1">
          <mxGeometry x="720" y="-200" width="300" height="200" as="geometry" />
        </mxCell>
        <mxCell id="oPP6584VSFWBGFHBGUR1-487" value="&lt;font color=&quot;#ffffff&quot;&gt;&lt;span style=&quot;font-size: 36px; background-color: rgb(51, 153, 255);&quot;&gt;&lt;b&gt;عرض قائمة مفضلة&lt;/b&gt;&lt;/span&gt;&lt;/font&gt;" style="ellipse;whiteSpace=wrap;html=1;fillColor=#3399FF;strokeColor=#66B2FF;" parent="1" vertex="1">
          <mxGeometry x="715.6100000000001" y="45" width="300" height="200" as="geometry" />
        </mxCell>
        <mxCell id="oPP6584VSFWBGFHBGUR1-488" value="&lt;b style=&quot;font-size: 36px; text-wrap: nowrap;&quot;&gt;&lt;font color=&quot;#ffffff&quot;&gt;انتقال الي صفحة التسوق&lt;/font&gt;&lt;/b&gt;&lt;span style=&quot;background-color: rgb(51, 153, 255);&quot;&gt;&lt;br&gt;&lt;/span&gt;" style="ellipse;whiteSpace=wrap;html=1;fillColor=#3399FF;strokeColor=#66B2FF;" parent="1" vertex="1">
          <mxGeometry x="715.6100000000001" y="535" width="300" height="200" as="geometry" />
        </mxCell>
        <mxCell id="oPP6584VSFWBGFHBGUR1-489" value="&lt;b style=&quot;text-wrap: nowrap;&quot;&gt;&lt;font color=&quot;#ffffff&quot; style=&quot;font-size: 47px;&quot;&gt;طلب تسجيل الدخول&lt;/font&gt;&lt;/b&gt;&lt;span style=&quot;background-color: rgb(51, 153, 255);&quot;&gt;&lt;br&gt;&lt;/span&gt;" style="ellipse;whiteSpace=wrap;html=1;fillColor=#3399FF;strokeColor=#66B2FF;" parent="1" vertex="1">
          <mxGeometry x="705.6100000000001" y="785" width="300" height="200" as="geometry" />
        </mxCell>
        <mxCell id="oPP6584VSFWBGFHBGUR1-490" value="&lt;font style=&quot;font-size: 48px;&quot;&gt;&lt;b&gt;ادخال البيانات&lt;/b&gt;&lt;/font&gt;" style="text;html=1;align=center;verticalAlign=middle;resizable=0;points=[];autosize=1;strokeColor=none;fillColor=none;" parent="1" vertex="1">
          <mxGeometry x="370" y="-185" width="230" height="70" as="geometry" />
        </mxCell>
        <mxCell id="oPP6584VSFWBGFHBGUR1-491" value="&lt;b style=&quot;color: rgb(255, 255, 255);&quot;&gt;&lt;font style=&quot;font-size: 72px;&quot;&gt;العميل&lt;/font&gt;&lt;/b&gt;&lt;b style=&quot;color: rgb(255, 255, 255); font-size: 48px;&quot;&gt;&amp;nbsp;&lt;/b&gt;" style="rounded=1;whiteSpace=wrap;html=1;fillColor=#3399FF;gradientColor=none;strokeColor=#6c8ebf;" parent="1" vertex="1">
          <mxGeometry x="-990" y="-195" width="370" height="150" as="geometry" />
        </mxCell>
        <mxCell id="oPP6584VSFWBGFHBGUR1-492" style="edgeStyle=orthogonalEdgeStyle;rounded=0;orthogonalLoop=1;jettySize=auto;html=1;entryX=0.959;entryY=0.704;entryDx=0;entryDy=0;entryPerimeter=0;strokeWidth=5;" parent="1" target="oPP6584VSFWBGFHBGUR1-487" edge="1">
          <mxGeometry relative="1" as="geometry">
            <mxPoint x="1317.11" y="185" as="sourcePoint" />
            <mxPoint x="1015.6099999999999" y="185.79999999999927" as="targetPoint" />
            <Array as="points">
              <mxPoint x="1027.61" y="185" />
            </Array>
          </mxGeometry>
        </mxCell>
        <mxCell id="oPP6584VSFWBGFHBGUR1-493" style="edgeStyle=orthogonalEdgeStyle;rounded=0;orthogonalLoop=1;jettySize=auto;html=1;strokeWidth=5;entryX=0;entryY=0.5;entryDx=0;entryDy=0;exitX=0.641;exitY=1.009;exitDx=0;exitDy=0;exitPerimeter=0;" parent="1" target="oPP6584VSFWBGFHBGUR1-497" edge="1">
          <mxGeometry relative="1" as="geometry">
            <mxPoint x="174.83000000000027" y="-13.650000000001455" as="sourcePoint" />
            <mxPoint x="647.6100000000001" y="384.9500000000007" as="targetPoint" />
            <Array as="points">
              <mxPoint x="174.61" y="395" />
            </Array>
          </mxGeometry>
        </mxCell>
        <mxCell id="oPP6584VSFWBGFHBGUR1-494" value="&lt;b&gt;&lt;font style=&quot;font-size: 36px;&quot;&gt;ملف المفضلة&lt;/font&gt;&lt;/b&gt;" style="html=1;dashed=0;whiteSpace=wrap;shape=partialRectangle;right=0;strokeWidth=5;" parent="1" vertex="1">
          <mxGeometry x="1315.61" y="340" width="230" height="90" as="geometry" />
        </mxCell>
        <mxCell id="oPP6584VSFWBGFHBGUR1-495" style="edgeStyle=orthogonalEdgeStyle;rounded=0;orthogonalLoop=1;jettySize=auto;html=1;exitX=1;exitY=0.5;exitDx=0;exitDy=0;strokeWidth=5;entryX=0;entryY=0.289;entryDx=0;entryDy=0;entryPerimeter=0;" parent="1" target="oPP6584VSFWBGFHBGUR1-494" edge="1">
          <mxGeometry relative="1" as="geometry">
            <mxPoint x="1007.4499999999998" y="365.0599999999995" as="sourcePoint" />
            <mxPoint x="1305.61" y="366" as="targetPoint" />
            <Array as="points">
              <mxPoint x="997.6099999999999" y="365" />
            </Array>
          </mxGeometry>
        </mxCell>
        <mxCell id="oPP6584VSFWBGFHBGUR1-496" value="&lt;font style=&quot;font-size: 24px;&quot;&gt;&lt;b style=&quot;&quot;&gt;عدل علي قائمة المفضلة&lt;/b&gt;&lt;/font&gt;" style="text;html=1;align=center;verticalAlign=middle;resizable=0;points=[];autosize=1;strokeColor=none;fillColor=none;" parent="1" vertex="1">
          <mxGeometry x="1050.61" y="325" width="210" height="40" as="geometry" />
        </mxCell>
        <mxCell id="oPP6584VSFWBGFHBGUR1-497" value="&lt;font color=&quot;#ffffff&quot;&gt;&lt;span style=&quot;font-size: 36px; background-color: rgb(51, 153, 255);&quot;&gt;&lt;b&gt;اضافة او حذف من&lt;/b&gt;&lt;/span&gt;&lt;/font&gt;&lt;div&gt;&lt;font color=&quot;#ffffff&quot;&gt;&lt;span style=&quot;font-size: 36px; background-color: rgb(51, 153, 255);&quot;&gt;&lt;b&gt;&amp;nbsp;قائمة المفضلة&lt;/b&gt;&lt;/span&gt;&lt;/font&gt;&lt;/div&gt;" style="ellipse;whiteSpace=wrap;html=1;fillColor=#3399FF;strokeColor=#66B2FF;" parent="1" vertex="1">
          <mxGeometry x="725.6100000000001" y="295" width="300" height="200" as="geometry" />
        </mxCell>
        <mxCell id="oPP6584VSFWBGFHBGUR1-498" style="edgeStyle=orthogonalEdgeStyle;rounded=0;orthogonalLoop=1;jettySize=auto;html=1;strokeWidth=5;entryX=1;entryY=0.548;entryDx=0;entryDy=0;entryPerimeter=0;" parent="1" target="oPP6584VSFWBGFHBGUR1-497" edge="1">
          <mxGeometry relative="1" as="geometry">
            <mxPoint x="1315.61" y="405" as="sourcePoint" />
            <mxPoint x="1075.61" y="395" as="targetPoint" />
            <Array as="points">
              <mxPoint x="1075.61" y="405" />
            </Array>
          </mxGeometry>
        </mxCell>
        <mxCell id="oPP6584VSFWBGFHBGUR1-499" value="&lt;font style=&quot;font-size: 36px;&quot;&gt;&lt;b style=&quot;&quot;&gt;رد&lt;/b&gt;&lt;/font&gt;" style="text;html=1;align=center;verticalAlign=middle;resizable=0;points=[];autosize=1;strokeColor=none;fillColor=none;" parent="1" vertex="1">
          <mxGeometry x="1130.61" y="405" width="50" height="60" as="geometry" />
        </mxCell>
        <mxCell id="oPP6584VSFWBGFHBGUR1-500" value="&lt;font style=&quot;font-size: 36px;&quot;&gt;&lt;b style=&quot;&quot;&gt;رد&lt;/b&gt;&lt;/font&gt;" style="text;html=1;align=center;verticalAlign=middle;resizable=0;points=[];autosize=1;strokeColor=none;fillColor=none;" parent="1" vertex="1">
          <mxGeometry x="1130.61" y="185" width="50" height="60" as="geometry" />
        </mxCell>
        <mxCell id="oPP6584VSFWBGFHBGUR1-501" style="edgeStyle=orthogonalEdgeStyle;rounded=0;orthogonalLoop=1;jettySize=auto;html=1;strokeWidth=5;exitX=0.233;exitY=0.996;exitDx=0;exitDy=0;exitPerimeter=0;entryX=0;entryY=0.5;entryDx=0;entryDy=0;" parent="1" edge="1">
          <mxGeometry relative="1" as="geometry">
            <mxPoint x="-17.15000000000032" y="-15" as="sourcePoint" />
            <mxPoint x="710.600000000001" y="1130" as="targetPoint" />
            <Array as="points">
              <mxPoint x="-17.00999999999999" y="1130" />
            </Array>
          </mxGeometry>
        </mxCell>
        <mxCell id="oPP6584VSFWBGFHBGUR1-502" value="&lt;font style=&quot;font-size: 48px;&quot; color=&quot;#ffffff&quot;&gt;&lt;span style=&quot;text-wrap: nowrap; background-color: rgb(51, 153, 255);&quot;&gt;&lt;b style=&quot;&quot;&gt;اختيار الحجم&lt;/b&gt;&lt;/span&gt;&lt;/font&gt;" style="ellipse;whiteSpace=wrap;html=1;fillColor=#3399FF;strokeColor=#66B2FF;" parent="1" vertex="1">
          <mxGeometry x="715.6100000000001" y="1030" width="300" height="200" as="geometry" />
        </mxCell>
        <mxCell id="oPP6584VSFWBGFHBGUR1-503" style="edgeStyle=orthogonalEdgeStyle;rounded=0;orthogonalLoop=1;jettySize=auto;html=1;strokeWidth=5;entryX=0;entryY=0.5;entryDx=0;entryDy=0;" parent="1" edge="1">
          <mxGeometry relative="1" as="geometry">
            <mxPoint x="-80" y="-11" as="sourcePoint" />
            <mxPoint x="735.6099999999997" y="1379" as="targetPoint" />
            <Array as="points">
              <mxPoint x="-80" y="-15" />
              <mxPoint x="-80" y="1379" />
            </Array>
          </mxGeometry>
        </mxCell>
        <mxCell id="oPP6584VSFWBGFHBGUR1-504" value="&lt;b style=&quot;color: rgb(255, 255, 255); font-size: 48px; text-wrap: nowrap;&quot;&gt;اختيار الاوان&lt;/b&gt;" style="ellipse;whiteSpace=wrap;html=1;fillColor=#3399FF;strokeColor=#66B2FF;" parent="1" vertex="1">
          <mxGeometry x="715.6099999999999" y="1280" width="300" height="200" as="geometry" />
        </mxCell>
        <mxCell id="oPP6584VSFWBGFHBGUR1-505" style="edgeStyle=orthogonalEdgeStyle;rounded=0;orthogonalLoop=1;jettySize=auto;html=1;strokeWidth=5;entryX=0;entryY=0.5;entryDx=0;entryDy=0;exitX=0.189;exitY=1.019;exitDx=0;exitDy=0;exitPerimeter=0;" parent="1" edge="1">
          <mxGeometry relative="1" as="geometry">
            <mxPoint x="-133.48999999999978" y="-14.9950000000008" as="sourcePoint" />
            <mxPoint x="760.0000000000082" y="1616.4899999999998" as="targetPoint" />
            <Array as="points">
              <mxPoint x="-134.61" y="1616.4899999999998" />
            </Array>
          </mxGeometry>
        </mxCell>
        <mxCell id="oPP6584VSFWBGFHBGUR1-506" value="&lt;b style=&quot;color: rgb(255, 255, 255); font-size: 48px; text-wrap: nowrap;&quot;&gt;اختيار الكمية&lt;/b&gt;" style="ellipse;whiteSpace=wrap;html=1;fillColor=#3399FF;strokeColor=#66B2FF;" parent="1" vertex="1">
          <mxGeometry x="715" y="1520" width="300" height="200" as="geometry" />
        </mxCell>
        <mxCell id="oPP6584VSFWBGFHBGUR1-507" style="edgeStyle=orthogonalEdgeStyle;rounded=0;orthogonalLoop=1;jettySize=auto;html=1;strokeWidth=5;entryX=0;entryY=0.5;entryDx=0;entryDy=0;exitX=0.15;exitY=0.999;exitDx=0;exitDy=0;exitPerimeter=0;" parent="1" edge="1">
          <mxGeometry relative="1" as="geometry">
            <mxPoint x="-189.99" y="-14.594999999999345" as="sourcePoint" />
            <mxPoint x="771.5100000000002" y="1874.5900000000001" as="targetPoint" />
            <Array as="points">
              <mxPoint x="-190.49" y="0.5900000000001455" />
              <mxPoint x="-189.49" y="0.5900000000001455" />
              <mxPoint x="-189.49" y="1874.5900000000001" />
            </Array>
          </mxGeometry>
        </mxCell>
        <mxCell id="oPP6584VSFWBGFHBGUR1-508" value="&lt;span style=&quot;color: rgb(255, 255, 255); text-wrap: nowrap;&quot;&gt;&lt;font style=&quot;font-size: 36px;&quot;&gt;&lt;b&gt;&amp;nbsp;زر اضافة الي السلة&amp;nbsp;&lt;/b&gt;&lt;/font&gt;&lt;/span&gt;" style="ellipse;whiteSpace=wrap;html=1;fillColor=#3399FF;strokeColor=#66B2FF;" parent="1" vertex="1">
          <mxGeometry x="710.5999999999999" y="1764" width="300" height="200" as="geometry" />
        </mxCell>
        <mxCell id="oPP6584VSFWBGFHBGUR1-509" value="&lt;font style=&quot;font-size: 48px;&quot; color=&quot;#ffffff&quot;&gt;&lt;span style=&quot;text-wrap: nowrap; background-color: rgb(51, 153, 255);&quot;&gt;&lt;b style=&quot;&quot;&gt;انتقال الي&amp;nbsp;&lt;br&gt;صفحة المنتجات&lt;/b&gt;&lt;/span&gt;&lt;/font&gt;" style="ellipse;whiteSpace=wrap;html=1;fillColor=#3399FF;strokeColor=#66B2FF;" parent="1" vertex="1">
          <mxGeometry x="1282.8000000000002" y="2021" width="300" height="200" as="geometry" />
        </mxCell>
        <mxCell id="oPP6584VSFWBGFHBGUR1-510" style="edgeStyle=orthogonalEdgeStyle;rounded=0;orthogonalLoop=1;jettySize=auto;html=1;strokeWidth=5;entryX=0.003;entryY=0.511;entryDx=0;entryDy=0;entryPerimeter=0;" parent="1" target="oPP6584VSFWBGFHBGUR1-509" edge="1">
          <mxGeometry relative="1" as="geometry">
            <mxPoint x="1015.6199999999999" y="2121" as="sourcePoint" />
            <mxPoint x="1257.2" y="2123" as="targetPoint" />
            <Array as="points">
              <mxPoint x="1015.2" y="2123" />
            </Array>
          </mxGeometry>
        </mxCell>
        <mxCell id="oPP6584VSFWBGFHBGUR1-511" style="edgeStyle=orthogonalEdgeStyle;rounded=0;orthogonalLoop=1;jettySize=auto;html=1;strokeWidth=5;entryX=0;entryY=0.5;entryDx=0;entryDy=0;" parent="1" edge="1">
          <mxGeometry relative="1" as="geometry">
            <mxPoint x="-240" y="-15" as="sourcePoint" />
            <mxPoint x="732.81" y="2134" as="targetPoint" />
            <Array as="points">
              <mxPoint x="-240" y="2134" />
            </Array>
          </mxGeometry>
        </mxCell>
        <mxCell id="oPP6584VSFWBGFHBGUR1-512" value="&lt;font style=&quot;font-size: 48px;&quot; color=&quot;#ffffff&quot;&gt;&lt;span style=&quot;text-wrap: nowrap; background-color: rgb(51, 153, 255);&quot;&gt;&lt;b style=&quot;&quot;&gt;عرض الملابس&lt;/b&gt;&lt;/span&gt;&lt;/font&gt;" style="ellipse;whiteSpace=wrap;html=1;fillColor=#3399FF;strokeColor=#66B2FF;" parent="1" vertex="1">
          <mxGeometry x="712.81" y="2031" width="300" height="200" as="geometry" />
        </mxCell>
        <mxCell id="oPP6584VSFWBGFHBGUR1-513" style="edgeStyle=orthogonalEdgeStyle;rounded=0;orthogonalLoop=1;jettySize=auto;html=1;entryX=0.005;entryY=0.429;entryDx=0;entryDy=0;strokeWidth=5;entryPerimeter=0;exitX=0.999;exitY=0.535;exitDx=0;exitDy=0;exitPerimeter=0;" parent="1" source="oPP6584VSFWBGFHBGUR1-491" edge="1">
          <mxGeometry relative="1" as="geometry">
            <mxPoint x="-617.04" y="-114.29999999999927" as="sourcePoint" />
            <mxPoint x="-290" y="-115" as="targetPoint" />
          </mxGeometry>
        </mxCell>
        <mxCell id="oPP6584VSFWBGFHBGUR1-514" value="&lt;b&gt;&lt;font style=&quot;font-size: 36px;&quot;&gt;ملف السلة&lt;/font&gt;&lt;/b&gt;" style="html=1;dashed=0;whiteSpace=wrap;shape=partialRectangle;right=0;strokeWidth=5;" parent="1" vertex="1">
          <mxGeometry x="1329.4199999999998" y="1830" width="230" height="90" as="geometry" />
        </mxCell>
        <mxCell id="oPP6584VSFWBGFHBGUR1-515" style="edgeStyle=orthogonalEdgeStyle;rounded=0;orthogonalLoop=1;jettySize=auto;html=1;entryX=-0.01;entryY=0.306;entryDx=0;entryDy=0;entryPerimeter=0;strokeWidth=5;exitX=0.978;exitY=0.363;exitDx=0;exitDy=0;exitPerimeter=0;" parent="1" edge="1">
          <mxGeometry relative="1" as="geometry">
            <mxPoint x="1012.81" y="1870.4699999999993" as="sourcePoint" />
            <mxPoint x="1327.12" y="1870.0099999999984" as="targetPoint" />
          </mxGeometry>
        </mxCell>
        <mxCell id="oPP6584VSFWBGFHBGUR1-516" value="&lt;b&gt;&lt;font style=&quot;font-size: 36px;&quot;&gt;اضافة الي السلة&lt;/font&gt;&lt;/b&gt;" style="text;html=1;align=center;verticalAlign=middle;resizable=0;points=[];autosize=1;strokeColor=none;fillColor=none;" parent="1" vertex="1">
          <mxGeometry x="1067.9199999999998" y="1800" width="210" height="60" as="geometry" />
        </mxCell>
        <mxCell id="oPP6584VSFWBGFHBGUR1-517" style="edgeStyle=orthogonalEdgeStyle;rounded=0;orthogonalLoop=1;jettySize=auto;html=1;exitX=1;exitY=0.5;exitDx=0;exitDy=0;entryX=0.005;entryY=0.429;entryDx=0;entryDy=0;strokeWidth=5;entryPerimeter=0;" parent="1" edge="1">
          <mxGeometry relative="1" as="geometry">
            <mxPoint x="490" y="11189.5" as="sourcePoint" />
            <mxPoint x="892.2219500000001" y="11190.3" as="targetPoint" />
            <Array as="points">
              <mxPoint x="750" y="11190.5" />
              <mxPoint x="750" y="11190.5" />
            </Array>
          </mxGeometry>
        </mxCell>
        <mxCell id="oPP6584VSFWBGFHBGUR1-518" value="&lt;span style=&quot;color: rgb(255, 255, 255);&quot;&gt;&lt;font style=&quot;font-size: 48px;&quot;&gt;&lt;b style=&quot;&quot;&gt;صفحة تسجيل الدخول&lt;/b&gt;&lt;/font&gt;&lt;/span&gt;" style="rounded=1;whiteSpace=wrap;html=1;fillColor=#3399FF;gradientColor=none;strokeColor=#6c8ebf;" parent="1" vertex="1">
          <mxGeometry x="140" y="11125" width="350" height="130" as="geometry" />
        </mxCell>
        <mxCell id="oPP6584VSFWBGFHBGUR1-519" value="&lt;span style=&quot;background-color: rgb(51, 153, 255); font-size: 48px;&quot;&gt;&lt;font color=&quot;#ffffff&quot;&gt;&lt;b&gt;انشاء حساب جديد&lt;/b&gt;&lt;/font&gt;&lt;/span&gt;" style="ellipse;whiteSpace=wrap;html=1;fillColor=#3399FF;strokeColor=#66B2FF;" parent="1" vertex="1">
          <mxGeometry x="891.22" y="11090" width="324.39" height="200" as="geometry" />
        </mxCell>
        <mxCell id="oPP6584VSFWBGFHBGUR1-520" value="&lt;b style=&quot;color: rgb(255, 255, 255);&quot;&gt;&lt;font style=&quot;font-size: 72px;&quot;&gt;العميل&lt;/font&gt;&lt;/b&gt;&lt;b style=&quot;color: rgb(255, 255, 255); font-size: 48px;&quot;&gt;&amp;nbsp;&lt;/b&gt;" style="rounded=1;whiteSpace=wrap;html=1;fillColor=#3399FF;gradientColor=none;strokeColor=#6c8ebf;" parent="1" vertex="1">
          <mxGeometry x="-420" y="11132.5" width="340" height="120" as="geometry" />
        </mxCell>
        <mxCell id="oPP6584VSFWBGFHBGUR1-521" style="edgeStyle=orthogonalEdgeStyle;rounded=0;orthogonalLoop=1;jettySize=auto;html=1;entryX=0;entryY=0.5;entryDx=0;entryDy=0;strokeWidth=5;" parent="1" edge="1">
          <mxGeometry relative="1" as="geometry">
            <mxPoint x="-80" y="11192.17" as="sourcePoint" />
            <mxPoint x="140" y="11192.17" as="targetPoint" />
            <Array as="points">
              <mxPoint x="-80" y="11192.17" />
              <mxPoint x="30" y="11192.17" />
              <mxPoint x="140" y="11193.17" />
            </Array>
          </mxGeometry>
        </mxCell>
        <mxCell id="oPP6584VSFWBGFHBGUR1-522" style="edgeStyle=orthogonalEdgeStyle;rounded=0;orthogonalLoop=1;jettySize=auto;html=1;strokeWidth=5;exitX=0.515;exitY=1.002;exitDx=0;exitDy=0;exitPerimeter=0;entryX=0;entryY=0.5;entryDx=0;entryDy=0;" parent="1" target="oPP6584VSFWBGFHBGUR1-528" edge="1">
          <mxGeometry relative="1" as="geometry">
            <mxPoint x="300.24999999999955" y="11254.999999999998" as="sourcePoint" />
            <mxPoint x="740" y="11372.5" as="targetPoint" />
            <Array as="points">
              <mxPoint x="300" y="11466.5" />
              <mxPoint x="740" y="11466.5" />
            </Array>
          </mxGeometry>
        </mxCell>
        <mxCell id="oPP6584VSFWBGFHBGUR1-523" value="&lt;b&gt;&lt;font style=&quot;font-size: 36px;&quot;&gt;ملف المستخدمين&lt;/font&gt;&lt;/b&gt;" style="html=1;dashed=0;whiteSpace=wrap;shape=partialRectangle;right=0;strokeWidth=5;" parent="1" vertex="1">
          <mxGeometry x="1520" y="11414.74" width="230" height="90" as="geometry" />
        </mxCell>
        <mxCell id="oPP6584VSFWBGFHBGUR1-524" style="edgeStyle=orthogonalEdgeStyle;rounded=0;orthogonalLoop=1;jettySize=auto;html=1;entryX=-0.01;entryY=0.306;entryDx=0;entryDy=0;entryPerimeter=0;strokeWidth=5;exitX=0.978;exitY=0.363;exitDx=0;exitDy=0;exitPerimeter=0;" parent="1" source="oPP6584VSFWBGFHBGUR1-528" target="oPP6584VSFWBGFHBGUR1-523" edge="1">
          <mxGeometry relative="1" as="geometry">
            <mxPoint x="1220" y="11442.74" as="sourcePoint" />
            <mxPoint x="1536.0900000000001" y="11442.56" as="targetPoint" />
            <Array as="points">
              <mxPoint x="1203" y="11442.5" />
            </Array>
          </mxGeometry>
        </mxCell>
        <mxCell id="oPP6584VSFWBGFHBGUR1-525" style="edgeStyle=orthogonalEdgeStyle;rounded=0;orthogonalLoop=1;jettySize=auto;html=1;exitX=0;exitY=0.75;exitDx=0;exitDy=0;entryX=0.999;entryY=0.56;entryDx=0;entryDy=0;entryPerimeter=0;strokeWidth=5;" parent="1" source="oPP6584VSFWBGFHBGUR1-523" target="oPP6584VSFWBGFHBGUR1-528" edge="1">
          <mxGeometry relative="1" as="geometry">
            <mxPoint x="1539.34" y="11482.56" as="sourcePoint" />
            <mxPoint x="1270.0000000000002" y="11481.8" as="targetPoint" />
            <Array as="points">
              <mxPoint x="1520" y="11478.5" />
            </Array>
          </mxGeometry>
        </mxCell>
        <mxCell id="oPP6584VSFWBGFHBGUR1-526" value="&lt;b&gt;&lt;font style=&quot;font-size: 36px;&quot;&gt;تحقق من التسجيل&lt;/font&gt;&lt;/b&gt;" style="text;html=1;align=center;verticalAlign=middle;resizable=0;points=[];autosize=1;strokeColor=none;fillColor=none;" parent="1" vertex="1">
          <mxGeometry x="1250" y="11379.74" width="230" height="60" as="geometry" />
        </mxCell>
        <mxCell id="oPP6584VSFWBGFHBGUR1-527" value="&lt;font style=&quot;font-size: 36px;&quot;&gt;&lt;b style=&quot;&quot;&gt;رد&lt;/b&gt;&lt;/font&gt;" style="text;html=1;align=center;verticalAlign=middle;resizable=0;points=[];autosize=1;strokeColor=none;fillColor=none;" parent="1" vertex="1">
          <mxGeometry x="1340" y="11484.74" width="50" height="60" as="geometry" />
        </mxCell>
        <mxCell id="oPP6584VSFWBGFHBGUR1-528" value="&lt;b style=&quot;text-wrap: nowrap;&quot;&gt;&lt;font color=&quot;#ffffff&quot; style=&quot;font-size: 48px;&quot;&gt;طلب تسجيل الدخول&lt;/font&gt;&lt;/b&gt;&lt;span style=&quot;background-color: rgb(51, 153, 255);&quot;&gt;&lt;br&gt;&lt;/span&gt;" style="ellipse;whiteSpace=wrap;html=1;fillColor=#3399FF;strokeColor=#66B2FF;" parent="1" vertex="1">
          <mxGeometry x="880" y="11362.5" width="330" height="207.24" as="geometry" />
        </mxCell>
        <mxCell id="oPP6584VSFWBGFHBGUR1-529" value="&lt;b&gt;&lt;font style=&quot;font-size: 36px;&quot;&gt;ملف المستخدمين&lt;/font&gt;&lt;/b&gt;" style="html=1;dashed=0;whiteSpace=wrap;shape=partialRectangle;right=0;strokeWidth=5;" parent="1" vertex="1">
          <mxGeometry x="1522.9" y="11152.5" width="230" height="90" as="geometry" />
        </mxCell>
        <mxCell id="oPP6584VSFWBGFHBGUR1-530" style="edgeStyle=orthogonalEdgeStyle;rounded=0;orthogonalLoop=1;jettySize=auto;html=1;strokeWidth=5;entryX=-0.007;entryY=0.333;entryDx=0;entryDy=0;entryPerimeter=0;exitX=1;exitY=0.461;exitDx=0;exitDy=0;exitPerimeter=0;" parent="1" source="oPP6584VSFWBGFHBGUR1-519" target="oPP6584VSFWBGFHBGUR1-529" edge="1">
          <mxGeometry relative="1" as="geometry">
            <mxPoint x="1240" y="11102.5" as="sourcePoint" />
            <mxPoint x="1515.6100000000001" y="11175" as="targetPoint" />
            <Array as="points">
              <mxPoint x="1500" y="11182.5" />
              <mxPoint x="1521" y="11182.5" />
            </Array>
          </mxGeometry>
        </mxCell>
        <mxCell id="oPP6584VSFWBGFHBGUR1-531" value="&lt;font style=&quot;font-size: 24px;&quot;&gt;&lt;b&gt;اضافة مستخدمين الجدد&lt;/b&gt;&lt;/font&gt;" style="text;html=1;align=center;verticalAlign=middle;resizable=0;points=[];autosize=1;strokeColor=none;fillColor=none;" parent="1" vertex="1">
          <mxGeometry x="1253.17" y="11130" width="210" height="40" as="geometry" />
        </mxCell>
        <mxCell id="oPP6584VSFWBGFHBGUR1-532" style="edgeStyle=orthogonalEdgeStyle;rounded=0;orthogonalLoop=1;jettySize=auto;html=1;strokeWidth=5;entryX=0.988;entryY=0.611;entryDx=0;entryDy=0;entryPerimeter=0;" parent="1" target="oPP6584VSFWBGFHBGUR1-519" edge="1">
          <mxGeometry relative="1" as="geometry">
            <mxPoint x="1520" y="11212.5" as="sourcePoint" />
            <mxPoint x="1215.6143900000004" y="11212.500000000004" as="targetPoint" />
            <Array as="points">
              <mxPoint x="1523" y="11212.5" />
            </Array>
          </mxGeometry>
        </mxCell>
        <mxCell id="oPP6584VSFWBGFHBGUR1-533" value="&lt;font style=&quot;font-size: 24px;&quot;&gt;&lt;b&gt;رد&lt;/b&gt;&lt;/font&gt;" style="text;html=1;align=center;verticalAlign=middle;resizable=0;points=[];autosize=1;strokeColor=none;fillColor=none;" parent="1" vertex="1">
          <mxGeometry x="1340.6100000000001" y="11212.5" width="40" height="40" as="geometry" />
        </mxCell>
        <mxCell id="oPP6584VSFWBGFHBGUR1-534" value="" style="shape=flexArrow;endArrow=classic;startArrow=classic;html=1;rounded=0;strokeWidth=12;width=20;startSize=9;" parent="1" edge="1">
          <mxGeometry width="100" height="100" relative="1" as="geometry">
            <mxPoint x="-2230" y="10840" as="sourcePoint" />
            <mxPoint x="3090" y="10850" as="targetPoint" />
          </mxGeometry>
        </mxCell>
        <mxCell id="oPP6584VSFWBGFHBGUR1-535" value="" style="shape=flexArrow;endArrow=classic;startArrow=classic;html=1;rounded=0;strokeWidth=12;width=20;startSize=9;" parent="1" edge="1">
          <mxGeometry width="100" height="100" relative="1" as="geometry">
            <mxPoint x="-2280" y="11880" as="sourcePoint" />
            <mxPoint x="3040" y="11890" as="targetPoint" />
          </mxGeometry>
        </mxCell>
        <mxCell id="oPP6584VSFWBGFHBGUR1-536" value="&lt;b style=&quot;color: rgb(255, 255, 255);&quot;&gt;&lt;font style=&quot;font-size: 60px;&quot;&gt;صفحة ريئيسة&lt;/font&gt;&lt;/b&gt;&lt;span style=&quot;background-color: rgb(51, 153, 255);&quot;&gt;&lt;br&gt;&lt;/span&gt;" style="ellipse;whiteSpace=wrap;html=1;fillColor=#3399FF;strokeColor=#66B2FF;" parent="1" vertex="1">
          <mxGeometry x="1486.7" y="11590" width="330" height="207.24" as="geometry" />
        </mxCell>
        <mxCell id="oPP6584VSFWBGFHBGUR1-537" style="edgeStyle=orthogonalEdgeStyle;rounded=0;orthogonalLoop=1;jettySize=auto;html=1;strokeWidth=5;entryX=0;entryY=0.5;entryDx=0;entryDy=0;exitX=0.483;exitY=1.001;exitDx=0;exitDy=0;exitPerimeter=0;" parent="1" source="oPP6584VSFWBGFHBGUR1-528" edge="1">
          <mxGeometry relative="1" as="geometry">
            <mxPoint x="1040.000000000001" y="11609.94724" as="sourcePoint" />
            <mxPoint x="1491.45" y="11701" as="targetPoint" />
            <Array as="points">
              <mxPoint x="1039" y="11701" />
            </Array>
          </mxGeometry>
        </mxCell>
        <mxCell id="oPP6584VSFWBGFHBGUR1-538" style="edgeStyle=orthogonalEdgeStyle;rounded=0;orthogonalLoop=1;jettySize=auto;html=1;exitX=1;exitY=0.5;exitDx=0;exitDy=0;entryX=0.005;entryY=0.429;entryDx=0;entryDy=0;strokeWidth=5;entryPerimeter=0;" parent="1" target="oPP6584VSFWBGFHBGUR1-553" edge="1">
          <mxGeometry relative="1" as="geometry">
            <mxPoint x="293.07" y="3005" as="sourcePoint" />
            <mxPoint x="683.0700000000005" y="3005" as="targetPoint" />
          </mxGeometry>
        </mxCell>
        <mxCell id="oPP6584VSFWBGFHBGUR1-539" style="edgeStyle=orthogonalEdgeStyle;rounded=0;orthogonalLoop=1;jettySize=auto;html=1;strokeWidth=5;entryX=0;entryY=0.5;entryDx=0;entryDy=0;" parent="1" target="oPP6584VSFWBGFHBGUR1-554" edge="1">
          <mxGeometry relative="1" as="geometry">
            <mxPoint x="238.68" y="3100" as="sourcePoint" />
            <mxPoint x="640.6800000000002" y="3284.9500000000007" as="targetPoint" />
            <Array as="points">
              <mxPoint x="238.68" y="3095" />
              <mxPoint x="238.68" y="3255" />
            </Array>
          </mxGeometry>
        </mxCell>
        <mxCell id="oPP6584VSFWBGFHBGUR1-540" value="&lt;b style=&quot;color: rgb(255, 255, 255);&quot;&gt;&lt;font style=&quot;font-size: 60px;&quot;&gt;صفحة عربة تسوق&lt;/font&gt;&lt;/b&gt;" style="rounded=1;whiteSpace=wrap;html=1;fillColor=#3399FF;gradientColor=none;strokeColor=#6c8ebf;" parent="1" vertex="1">
          <mxGeometry x="-126.92999999999998" y="2945" width="420" height="150" as="geometry" />
        </mxCell>
        <mxCell id="oPP6584VSFWBGFHBGUR1-541" value="" style="endArrow=classic;html=1;rounded=0;exitX=0.025;exitY=0.631;exitDx=0;exitDy=0;exitPerimeter=0;entryX=1;entryY=0.75;entryDx=0;entryDy=0;strokeWidth=5;" parent="1" source="oPP6584VSFWBGFHBGUR1-553" edge="1">
          <mxGeometry width="50" height="50" relative="1" as="geometry">
            <mxPoint x="682.4100000000002" y="3045" as="sourcePoint" />
            <mxPoint x="293.07" y="3048.2999999999993" as="targetPoint" />
          </mxGeometry>
        </mxCell>
        <mxCell id="oPP6584VSFWBGFHBGUR1-542" style="edgeStyle=orthogonalEdgeStyle;rounded=0;orthogonalLoop=1;jettySize=auto;html=1;strokeWidth=5;entryX=0;entryY=0.5;entryDx=0;entryDy=0;exitX=0.593;exitY=0.999;exitDx=0;exitDy=0;exitPerimeter=0;" parent="1" source="oPP6584VSFWBGFHBGUR1-540" target="oPP6584VSFWBGFHBGUR1-556" edge="1">
          <mxGeometry relative="1" as="geometry">
            <mxPoint x="98.68000000000004" y="3100" as="sourcePoint" />
            <mxPoint x="553.07" y="3740" as="targetPoint" />
            <Array as="points">
              <mxPoint x="122.07000000000002" y="3770" />
            </Array>
          </mxGeometry>
        </mxCell>
        <mxCell id="oPP6584VSFWBGFHBGUR1-543" style="edgeStyle=orthogonalEdgeStyle;rounded=0;orthogonalLoop=1;jettySize=auto;html=1;strokeWidth=5;exitX=0.333;exitY=1.002;exitDx=0;exitDy=0;exitPerimeter=0;entryX=-0.002;entryY=0.53;entryDx=0;entryDy=0;entryPerimeter=0;" parent="1" target="oPP6584VSFWBGFHBGUR1-568" edge="1">
          <mxGeometry relative="1" as="geometry">
            <mxPoint x="63.5399999999997" y="3095" as="sourcePoint" />
            <mxPoint x="703.07" y="4010" as="targetPoint" />
            <Array as="points">
              <mxPoint x="64.07000000000002" y="4011" />
            </Array>
          </mxGeometry>
        </mxCell>
        <mxCell id="oPP6584VSFWBGFHBGUR1-544" value="&lt;b&gt;&lt;font style=&quot;font-size: 36px;&quot;&gt;ملف المفضلة&lt;/font&gt;&lt;/b&gt;" style="html=1;dashed=0;whiteSpace=wrap;shape=partialRectangle;right=0;strokeWidth=5;" parent="1" vertex="1">
          <mxGeometry x="1308.6799999999998" y="3240" width="230" height="90" as="geometry" />
        </mxCell>
        <mxCell id="oPP6584VSFWBGFHBGUR1-545" value="&lt;b&gt;&lt;font style=&quot;font-size: 36px;&quot;&gt;ملف المستخدمين&lt;/font&gt;&lt;/b&gt;" style="html=1;dashed=0;whiteSpace=wrap;shape=partialRectangle;right=0;strokeWidth=5;" parent="1" vertex="1">
          <mxGeometry x="1318.07" y="3715" width="230" height="90" as="geometry" />
        </mxCell>
        <mxCell id="oPP6584VSFWBGFHBGUR1-546" style="edgeStyle=orthogonalEdgeStyle;rounded=0;orthogonalLoop=1;jettySize=auto;html=1;entryX=-0.01;entryY=0.306;entryDx=0;entryDy=0;entryPerimeter=0;strokeWidth=5;exitX=0.978;exitY=0.363;exitDx=0;exitDy=0;exitPerimeter=0;" parent="1" source="oPP6584VSFWBGFHBGUR1-556" target="oPP6584VSFWBGFHBGUR1-545" edge="1">
          <mxGeometry relative="1" as="geometry">
            <mxPoint x="1018.07" y="3743" as="sourcePoint" />
            <mxPoint x="1334.16" y="3742.8199999999997" as="targetPoint" />
          </mxGeometry>
        </mxCell>
        <mxCell id="oPP6584VSFWBGFHBGUR1-547" style="edgeStyle=orthogonalEdgeStyle;rounded=0;orthogonalLoop=1;jettySize=auto;html=1;exitX=0;exitY=0.75;exitDx=0;exitDy=0;entryX=0.999;entryY=0.56;entryDx=0;entryDy=0;entryPerimeter=0;strokeWidth=5;" parent="1" source="oPP6584VSFWBGFHBGUR1-545" target="oPP6584VSFWBGFHBGUR1-556" edge="1">
          <mxGeometry relative="1" as="geometry">
            <mxPoint x="1337.4099999999999" y="3782.8199999999997" as="sourcePoint" />
            <mxPoint x="1068.0700000000002" y="3782.0599999999995" as="targetPoint" />
          </mxGeometry>
        </mxCell>
        <mxCell id="oPP6584VSFWBGFHBGUR1-548" value="&lt;b&gt;&lt;font style=&quot;font-size: 24px;&quot;&gt;تحقق من التسجيل&lt;/font&gt;&lt;/b&gt;" style="text;html=1;align=center;verticalAlign=middle;resizable=0;points=[];autosize=1;strokeColor=none;fillColor=none;" parent="1" vertex="1">
          <mxGeometry x="1079.77" y="3700" width="170" height="40" as="geometry" />
        </mxCell>
        <mxCell id="oPP6584VSFWBGFHBGUR1-549" value="&lt;font style=&quot;font-size: 24px;&quot;&gt;&lt;b&gt;رد&lt;/b&gt;&lt;/font&gt;" style="text;html=1;align=center;verticalAlign=middle;resizable=0;points=[];autosize=1;strokeColor=none;fillColor=none;" parent="1" vertex="1">
          <mxGeometry x="1149.77" y="3780" width="40" height="40" as="geometry" />
        </mxCell>
        <mxCell id="oPP6584VSFWBGFHBGUR1-550" value="&lt;b&gt;&lt;font style=&quot;font-size: 48px;&quot;&gt;استجابة&lt;/font&gt;&lt;/b&gt;" style="text;html=1;align=center;verticalAlign=middle;resizable=0;points=[];autosize=1;strokeColor=none;fillColor=none;" parent="1" vertex="1">
          <mxGeometry x="413.07" y="3065" width="140" height="70" as="geometry" />
        </mxCell>
        <mxCell id="oPP6584VSFWBGFHBGUR1-551" style="edgeStyle=orthogonalEdgeStyle;rounded=0;orthogonalLoop=1;jettySize=auto;html=1;exitX=1;exitY=0.5;exitDx=0;exitDy=0;strokeWidth=5;entryX=0;entryY=0.289;entryDx=0;entryDy=0;entryPerimeter=0;" parent="1" target="oPP6584VSFWBGFHBGUR1-544" edge="1">
          <mxGeometry relative="1" as="geometry">
            <mxPoint x="1000.5199999999999" y="3265.0599999999995" as="sourcePoint" />
            <mxPoint x="1298.6799999999998" y="3266" as="targetPoint" />
            <Array as="points">
              <mxPoint x="990.68" y="3265" />
            </Array>
          </mxGeometry>
        </mxCell>
        <mxCell id="oPP6584VSFWBGFHBGUR1-552" value="&lt;font style=&quot;font-size: 24px;&quot;&gt;&lt;b&gt;حصول علي قائمة المفضلة&lt;/b&gt;&lt;/font&gt;" style="text;html=1;align=center;verticalAlign=middle;resizable=0;points=[];autosize=1;strokeColor=none;fillColor=none;" parent="1" vertex="1">
          <mxGeometry x="1028.6799999999998" y="3225" width="240" height="40" as="geometry" />
        </mxCell>
        <mxCell id="oPP6584VSFWBGFHBGUR1-553" value="&lt;span style=&quot;background-color: rgb(51, 153, 255);&quot;&gt;&lt;font style=&quot;font-size: 48px;&quot;&gt;&lt;b style=&quot;forced-color-adjust: none; color: rgb(255, 255, 255); font-family: Helvetica; font-style: normal; font-variant-ligatures: normal; font-variant-caps: normal; letter-spacing: normal; orphans: 2; text-align: center; text-indent: 0px; text-transform: none; widows: 2; word-spacing: 0px; -webkit-text-stroke-width: 0px; white-space: normal; text-decoration-thickness: initial; text-decoration-style: initial; text-decoration-color: initial;&quot;&gt;عملية البحث&lt;/b&gt;&lt;/font&gt;&lt;br&gt;&lt;/span&gt;" style="ellipse;whiteSpace=wrap;html=1;fillColor=#3399FF;strokeColor=#66B2FF;" parent="1" vertex="1">
          <mxGeometry x="708.6800000000002" y="2920" width="300" height="200" as="geometry" />
        </mxCell>
        <mxCell id="oPP6584VSFWBGFHBGUR1-554" value="&lt;font color=&quot;#ffffff&quot;&gt;&lt;span style=&quot;font-size: 36px; background-color: rgb(51, 153, 255);&quot;&gt;&lt;b&gt;عرض قائمة مفضلة&lt;/b&gt;&lt;/span&gt;&lt;/font&gt;" style="ellipse;whiteSpace=wrap;html=1;fillColor=#3399FF;strokeColor=#66B2FF;" parent="1" vertex="1">
          <mxGeometry x="708.6800000000002" y="3155" width="300" height="200" as="geometry" />
        </mxCell>
        <mxCell id="oPP6584VSFWBGFHBGUR1-555" value="&lt;b style=&quot;font-size: 36px; text-wrap: nowrap;&quot;&gt;&lt;font color=&quot;#ffffff&quot;&gt;انتقال الي صفحة التسوق&lt;/font&gt;&lt;/b&gt;&lt;span style=&quot;background-color: rgb(51, 153, 255);&quot;&gt;&lt;br&gt;&lt;/span&gt;" style="ellipse;whiteSpace=wrap;html=1;fillColor=#3399FF;strokeColor=#66B2FF;" parent="1" vertex="1">
          <mxGeometry x="708.0700000000003" y="3400" width="300" height="200" as="geometry" />
        </mxCell>
        <mxCell id="oPP6584VSFWBGFHBGUR1-556" value="&lt;b style=&quot;text-wrap: nowrap;&quot;&gt;&lt;font color=&quot;#ffffff&quot; style=&quot;font-size: 47px;&quot;&gt;طلب تسجيل الدخول&lt;/font&gt;&lt;/b&gt;&lt;span style=&quot;background-color: rgb(51, 153, 255);&quot;&gt;&lt;br&gt;&lt;/span&gt;" style="ellipse;whiteSpace=wrap;html=1;fillColor=#3399FF;strokeColor=#66B2FF;" parent="1" vertex="1">
          <mxGeometry x="708.0700000000003" y="3670" width="300" height="200" as="geometry" />
        </mxCell>
        <mxCell id="oPP6584VSFWBGFHBGUR1-557" value="&lt;font style=&quot;font-size: 48px;&quot;&gt;&lt;b&gt;ادخال البيانات&lt;/b&gt;&lt;/font&gt;" style="text;html=1;align=center;verticalAlign=middle;resizable=0;points=[];autosize=1;strokeColor=none;fillColor=none;" parent="1" vertex="1">
          <mxGeometry x="363.07" y="2925" width="230" height="70" as="geometry" />
        </mxCell>
        <mxCell id="oPP6584VSFWBGFHBGUR1-558" value="&lt;b style=&quot;color: rgb(255, 255, 255);&quot;&gt;&lt;font style=&quot;font-size: 72px;&quot;&gt;العميل&lt;/font&gt;&lt;/b&gt;&lt;b style=&quot;color: rgb(255, 255, 255); font-size: 48px;&quot;&gt;&amp;nbsp;&lt;/b&gt;" style="rounded=1;whiteSpace=wrap;html=1;fillColor=#3399FF;gradientColor=none;strokeColor=#6c8ebf;" parent="1" vertex="1">
          <mxGeometry x="-686.93" y="2945" width="370" height="150" as="geometry" />
        </mxCell>
        <mxCell id="oPP6584VSFWBGFHBGUR1-559" style="edgeStyle=orthogonalEdgeStyle;rounded=0;orthogonalLoop=1;jettySize=auto;html=1;exitX=1;exitY=0.537;exitDx=0;exitDy=0;entryX=0;entryY=0.5;entryDx=0;entryDy=0;strokeWidth=5;exitPerimeter=0;" parent="1" source="oPP6584VSFWBGFHBGUR1-558" edge="1">
          <mxGeometry relative="1" as="geometry">
            <mxPoint x="-346.93" y="3025" as="sourcePoint" />
            <mxPoint x="-126.92999999999998" y="3025" as="targetPoint" />
          </mxGeometry>
        </mxCell>
        <mxCell id="oPP6584VSFWBGFHBGUR1-560" style="edgeStyle=orthogonalEdgeStyle;rounded=0;orthogonalLoop=1;jettySize=auto;html=1;entryX=0.959;entryY=0.704;entryDx=0;entryDy=0;entryPerimeter=0;strokeWidth=5;" parent="1" target="oPP6584VSFWBGFHBGUR1-554" edge="1">
          <mxGeometry relative="1" as="geometry">
            <mxPoint x="1310.1799999999998" y="3295" as="sourcePoint" />
            <mxPoint x="1008.68" y="3295.7999999999993" as="targetPoint" />
            <Array as="points">
              <mxPoint x="1020.68" y="3295" />
            </Array>
          </mxGeometry>
        </mxCell>
        <mxCell id="oPP6584VSFWBGFHBGUR1-561" style="edgeStyle=orthogonalEdgeStyle;rounded=0;orthogonalLoop=1;jettySize=auto;html=1;strokeWidth=5;exitX=0.641;exitY=1.009;exitDx=0;exitDy=0;exitPerimeter=0;entryX=0;entryY=0.518;entryDx=0;entryDy=0;entryPerimeter=0;" parent="1" target="oPP6584VSFWBGFHBGUR1-555" edge="1">
          <mxGeometry relative="1" as="geometry">
            <mxPoint x="178.7500000000003" y="3094.999999999998" as="sourcePoint" />
            <mxPoint x="583.07" y="3450" as="targetPoint" />
            <Array as="points">
              <mxPoint x="179.07000000000002" y="3504" />
            </Array>
          </mxGeometry>
        </mxCell>
        <mxCell id="oPP6584VSFWBGFHBGUR1-562" value="&lt;font style=&quot;font-size: 24px;&quot;&gt;&lt;b&gt;رد&lt;/b&gt;&lt;/font&gt;" style="text;html=1;align=center;verticalAlign=middle;resizable=0;points=[];autosize=1;strokeColor=none;fillColor=none;" parent="1" vertex="1">
          <mxGeometry x="1128.6799999999998" y="3295" width="40" height="40" as="geometry" />
        </mxCell>
        <mxCell id="oPP6584VSFWBGFHBGUR1-563" style="edgeStyle=orthogonalEdgeStyle;rounded=0;orthogonalLoop=1;jettySize=auto;html=1;strokeWidth=5;entryX=0;entryY=0.5;entryDx=0;entryDy=0;" parent="1" source="oPP6584VSFWBGFHBGUR1-540" target="oPP6584VSFWBGFHBGUR1-564" edge="1">
          <mxGeometry relative="1" as="geometry">
            <mxPoint x="-19.07000000000032" y="3095" as="sourcePoint" />
            <mxPoint x="703.07" y="4240" as="targetPoint" />
            <Array as="points">
              <mxPoint x="13.070000000000007" y="4240" />
            </Array>
          </mxGeometry>
        </mxCell>
        <mxCell id="oPP6584VSFWBGFHBGUR1-564" value="&lt;b style=&quot;color: rgb(255, 255, 255); font-size: 36px;&quot;&gt;طلب حذف اي منتجات&lt;/b&gt;" style="ellipse;whiteSpace=wrap;html=1;fillColor=#3399FF;strokeColor=#66B2FF;" parent="1" vertex="1">
          <mxGeometry x="708.6800000000002" y="4140" width="300" height="200" as="geometry" />
        </mxCell>
        <mxCell id="oPP6584VSFWBGFHBGUR1-565" style="edgeStyle=orthogonalEdgeStyle;rounded=0;orthogonalLoop=1;jettySize=auto;html=1;strokeWidth=5;exitX=0.209;exitY=1.002;exitDx=0;exitDy=0;exitPerimeter=0;entryX=0.001;entryY=0.517;entryDx=0;entryDy=0;entryPerimeter=0;" parent="1" source="oPP6584VSFWBGFHBGUR1-540" target="oPP6584VSFWBGFHBGUR1-566" edge="1">
          <mxGeometry relative="1" as="geometry">
            <mxPoint x="-59.90999999999967" y="3100.029999999999" as="sourcePoint" />
            <mxPoint x="683.07" y="4450" as="targetPoint" />
            <Array as="points">
              <mxPoint x="-38.92999999999999" y="3100" />
              <mxPoint x="-39.92999999999999" y="3100" />
              <mxPoint x="-39.92999999999999" y="4483" />
            </Array>
          </mxGeometry>
        </mxCell>
        <mxCell id="oPP6584VSFWBGFHBGUR1-566" value="&lt;font style=&quot;font-size: 38px;&quot; color=&quot;#ffffff&quot;&gt;&lt;b style=&quot;&quot;&gt;احتساب السعر الإجمالي&lt;/b&gt;&lt;/font&gt;" style="ellipse;whiteSpace=wrap;html=1;fillColor=#3399FF;strokeColor=#66B2FF;" parent="1" vertex="1">
          <mxGeometry x="728.68" y="4380" width="300" height="200" as="geometry" />
        </mxCell>
        <mxCell id="oPP6584VSFWBGFHBGUR1-567" value="" style="shape=flexArrow;endArrow=classic;startArrow=classic;html=1;rounded=0;strokeWidth=12;width=20;startSize=9;" parent="1" edge="1">
          <mxGeometry width="100" height="100" relative="1" as="geometry">
            <mxPoint x="-2170" y="12800" as="sourcePoint" />
            <mxPoint x="3150" y="12810" as="targetPoint" />
          </mxGeometry>
        </mxCell>
        <mxCell id="oPP6584VSFWBGFHBGUR1-568" value="&lt;b style=&quot;color: rgb(255, 255, 255); font-size: 36px;&quot;&gt;طلب حصول علي منتجات&lt;/b&gt;" style="ellipse;whiteSpace=wrap;html=1;fillColor=#3399FF;strokeColor=#66B2FF;" parent="1" vertex="1">
          <mxGeometry x="708.6800000000002" y="3905" width="300" height="200" as="geometry" />
        </mxCell>
        <mxCell id="oPP6584VSFWBGFHBGUR1-569" value="&lt;b&gt;&lt;font style=&quot;font-size: 36px;&quot;&gt;ملف السلة&lt;/font&gt;&lt;/b&gt;" style="html=1;dashed=0;whiteSpace=wrap;shape=partialRectangle;right=0;strokeWidth=5;" parent="1" vertex="1">
          <mxGeometry x="1326.7199999999996" y="3960" width="230" height="90" as="geometry" />
        </mxCell>
        <mxCell id="oPP6584VSFWBGFHBGUR1-570" value="&lt;font style=&quot;font-size: 24px;&quot;&gt;&lt;b&gt;حصول علي منتجات&lt;/b&gt;&lt;/font&gt;" style="text;html=1;align=center;verticalAlign=middle;resizable=0;points=[];autosize=1;strokeColor=none;fillColor=none;" parent="1" vertex="1">
          <mxGeometry x="1079.7699999999998" y="3960" width="180" height="40" as="geometry" />
        </mxCell>
        <mxCell id="oPP6584VSFWBGFHBGUR1-571" style="edgeStyle=orthogonalEdgeStyle;rounded=0;orthogonalLoop=1;jettySize=auto;html=1;strokeWidth=5;entryX=0.983;entryY=0.632;entryDx=0;entryDy=0;entryPerimeter=0;exitX=-0.001;exitY=0.794;exitDx=0;exitDy=0;exitPerimeter=0;" parent="1" source="oPP6584VSFWBGFHBGUR1-569" target="oPP6584VSFWBGFHBGUR1-568" edge="1">
          <mxGeometry relative="1" as="geometry">
            <mxPoint x="1323.07" y="4030" as="sourcePoint" />
            <mxPoint x="1003.07" y="4030" as="targetPoint" />
            <Array as="points">
              <mxPoint x="1323.07" y="4032" />
            </Array>
          </mxGeometry>
        </mxCell>
        <mxCell id="oPP6584VSFWBGFHBGUR1-572" value="&lt;font style=&quot;font-size: 24px;&quot;&gt;&lt;b&gt;رد&lt;/b&gt;&lt;/font&gt;" style="text;html=1;align=center;verticalAlign=middle;resizable=0;points=[];autosize=1;strokeColor=none;fillColor=none;" parent="1" vertex="1">
          <mxGeometry x="1149.7699999999998" y="4030" width="40" height="40" as="geometry" />
        </mxCell>
        <mxCell id="oPP6584VSFWBGFHBGUR1-573" style="edgeStyle=orthogonalEdgeStyle;rounded=0;orthogonalLoop=1;jettySize=auto;html=1;entryX=-0.007;entryY=0.439;entryDx=0;entryDy=0;entryPerimeter=0;strokeWidth=5;exitX=0.978;exitY=0.363;exitDx=0;exitDy=0;exitPerimeter=0;" parent="1" target="oPP6584VSFWBGFHBGUR1-569" edge="1">
          <mxGeometry relative="1" as="geometry">
            <mxPoint x="1008.6799999999997" y="3999.790000000001" as="sourcePoint" />
            <mxPoint x="1322.6799999999996" y="3999.790000000001" as="targetPoint" />
          </mxGeometry>
        </mxCell>
        <mxCell id="oPP6584VSFWBGFHBGUR1-574" value="&lt;b&gt;&lt;font style=&quot;font-size: 36px;&quot;&gt;ملف السلة&lt;/font&gt;&lt;/b&gt;" style="html=1;dashed=0;whiteSpace=wrap;shape=partialRectangle;right=0;strokeWidth=5;" parent="1" vertex="1">
          <mxGeometry x="1326.7199999999996" y="4200" width="230" height="90" as="geometry" />
        </mxCell>
        <mxCell id="oPP6584VSFWBGFHBGUR1-575" value="&lt;font style=&quot;font-size: 30px;&quot;&gt;&lt;b style=&quot;&quot;&gt;حذف المنتج ال&lt;/b&gt;&lt;b style=&quot;&quot;&gt;ذ&lt;/b&gt;&lt;b style=&quot;&quot;&gt;ي تم تحديده&lt;/b&gt;&lt;/font&gt;" style="text;html=1;align=center;verticalAlign=middle;resizable=0;points=[];autosize=1;strokeColor=none;fillColor=none;" parent="1" vertex="1">
          <mxGeometry x="1024.77" y="4190" width="290" height="50" as="geometry" />
        </mxCell>
        <mxCell id="oPP6584VSFWBGFHBGUR1-576" style="edgeStyle=orthogonalEdgeStyle;rounded=0;orthogonalLoop=1;jettySize=auto;html=1;strokeWidth=5;entryX=0.975;entryY=0.653;entryDx=0;entryDy=0;entryPerimeter=0;exitX=-0.001;exitY=0.794;exitDx=0;exitDy=0;exitPerimeter=0;" parent="1" source="oPP6584VSFWBGFHBGUR1-574" target="oPP6584VSFWBGFHBGUR1-564" edge="1">
          <mxGeometry relative="1" as="geometry">
            <mxPoint x="1323.07" y="4270" as="sourcePoint" />
            <mxPoint x="1004.07" y="4271" as="targetPoint" />
            <Array as="points">
              <mxPoint x="1323.07" y="4272" />
            </Array>
          </mxGeometry>
        </mxCell>
        <mxCell id="oPP6584VSFWBGFHBGUR1-577" value="&lt;font style=&quot;font-size: 24px;&quot;&gt;&lt;b&gt;رد&lt;/b&gt;&lt;/font&gt;" style="text;html=1;align=center;verticalAlign=middle;resizable=0;points=[];autosize=1;strokeColor=none;fillColor=none;" parent="1" vertex="1">
          <mxGeometry x="1149.7699999999998" y="4270" width="40" height="40" as="geometry" />
        </mxCell>
        <mxCell id="oPP6584VSFWBGFHBGUR1-578" style="edgeStyle=orthogonalEdgeStyle;rounded=0;orthogonalLoop=1;jettySize=auto;html=1;entryX=-0.007;entryY=0.439;entryDx=0;entryDy=0;entryPerimeter=0;strokeWidth=5;exitX=0.978;exitY=0.363;exitDx=0;exitDy=0;exitPerimeter=0;" parent="1" target="oPP6584VSFWBGFHBGUR1-574" edge="1">
          <mxGeometry relative="1" as="geometry">
            <mxPoint x="1008.6799999999997" y="4239.790000000001" as="sourcePoint" />
            <mxPoint x="1322.6799999999996" y="4239.790000000001" as="targetPoint" />
          </mxGeometry>
        </mxCell>
        <mxCell id="oPP6584VSFWBGFHBGUR1-579" style="edgeStyle=orthogonalEdgeStyle;rounded=0;orthogonalLoop=1;jettySize=auto;html=1;strokeWidth=5;exitX=0.092;exitY=1.022;exitDx=0;exitDy=0;exitPerimeter=0;" parent="1" edge="1">
          <mxGeometry relative="1" as="geometry">
            <mxPoint x="-86.07999999999963" y="3095" as="sourcePoint" />
            <mxPoint x="723.07" y="4737" as="targetPoint" />
            <Array as="points">
              <mxPoint x="-85.71999999999996" y="3386.7000000000007" />
              <mxPoint x="-86.71999999999996" y="4736.700000000001" />
            </Array>
          </mxGeometry>
        </mxCell>
        <mxCell id="oPP6584VSFWBGFHBGUR1-580" value="&lt;font style=&quot;font-size: 48px;&quot; color=&quot;#ffffff&quot;&gt;&lt;b style=&quot;&quot;&gt;طلب الشراء&lt;/b&gt;&lt;/font&gt;" style="ellipse;whiteSpace=wrap;html=1;fillColor=#3399FF;strokeColor=#66B2FF;" parent="1" vertex="1">
          <mxGeometry x="723.67" y="4640" width="300" height="200" as="geometry" />
        </mxCell>
        <mxCell id="oPP6584VSFWBGFHBGUR1-581" value="&lt;font style=&quot;font-size: 51px;&quot;&gt;&lt;b style=&quot;&quot;&gt;العميل&amp;nbsp;&lt;/b&gt;&lt;/font&gt;" style="rounded=1;whiteSpace=wrap;html=1;fillColor=light-dark(#FFFFFF,#000000);gradientColor=none;strokeColor=light-dark(#000000,#FFFFFF);fontColor=light-dark(#000000,#FFFFFF);strokeWidth=10;" parent="1" vertex="1">
          <mxGeometry x="325.38" y="-8990" width="330" height="120" as="geometry" />
        </mxCell>
        <mxCell id="oPP6584VSFWBGFHBGUR1-582" value="" style="endArrow=classic;html=1;rounded=0;exitX=0.635;exitY=0.007;exitDx=0;exitDy=0;entryX=0.671;entryY=0.979;entryDx=0;entryDy=0;entryPerimeter=0;strokeWidth=10;exitPerimeter=0;" parent="1" edge="1">
          <mxGeometry width="50" height="50" relative="1" as="geometry">
            <mxPoint x="520.9500000000002" y="-8990" as="sourcePoint" />
            <mxPoint x="519.4749999999998" y="-9422.244999999999" as="targetPoint" />
          </mxGeometry>
        </mxCell>
        <mxCell id="oPP6584VSFWBGFHBGUR1-583" value="" style="endArrow=classic;html=1;rounded=0;exitX=0.449;exitY=1.002;exitDx=0;exitDy=0;exitPerimeter=0;entryX=0.413;entryY=0.014;entryDx=0;entryDy=0;entryPerimeter=0;strokeWidth=10;" parent="1" edge="1">
          <mxGeometry width="50" height="50" relative="1" as="geometry">
            <mxPoint x="443.56500000000017" y="-9415" as="sourcePoint" />
            <mxPoint x="443.92999999999995" y="-8988.93" as="targetPoint" />
          </mxGeometry>
        </mxCell>
        <mxCell id="oPP6584VSFWBGFHBGUR1-584" value="&lt;font style=&quot;font-size: 48px;&quot;&gt;&lt;b&gt;معلومات عن المتجر&lt;/b&gt;&lt;/font&gt;" style="text;html=1;align=center;verticalAlign=middle;resizable=0;points=[];autosize=1;strokeColor=none;fillColor=none;" parent="1" vertex="1">
          <mxGeometry x="90" y="-9250" width="330" height="70" as="geometry" />
        </mxCell>
        <mxCell id="oPP6584VSFWBGFHBGUR1-585" value="&lt;font&gt;&lt;b&gt;طلب اطلاع علي لوحة التحكم&lt;/b&gt;&lt;/font&gt;" style="text;html=1;align=center;verticalAlign=middle;resizable=0;points=[];autosize=1;strokeColor=none;fillColor=none;fontSize=41;" parent="1" vertex="1">
          <mxGeometry x="649.71" y="-9660" width="400" height="60" as="geometry" />
        </mxCell>
        <mxCell id="oPP6584VSFWBGFHBGUR1-586" style="edgeStyle=orthogonalEdgeStyle;rounded=0;orthogonalLoop=1;jettySize=auto;html=1;exitX=1;exitY=0.5;exitDx=0;exitDy=0;entryX=0;entryY=0.5;entryDx=0;entryDy=0;strokeWidth=5;" parent="1" edge="1">
          <mxGeometry relative="1" as="geometry">
            <mxPoint x="5.769999999999911" y="-5430" as="sourcePoint" />
            <mxPoint x="225.7699999999999" y="-5430" as="targetPoint" />
          </mxGeometry>
        </mxCell>
        <mxCell id="oPP6584VSFWBGFHBGUR1-587" value="&lt;font color=&quot;#ffffff&quot; style=&quot;font-size: 72px;&quot;&gt;&lt;b style=&quot;&quot;&gt;المستخدم&lt;/b&gt;&lt;/font&gt;" style="rounded=1;whiteSpace=wrap;html=1;fillColor=#3399FF;gradientColor=none;strokeColor=#6c8ebf;" parent="1" vertex="1">
          <mxGeometry x="-324.23000000000013" y="-5470" width="330" height="120" as="geometry" />
        </mxCell>
        <mxCell id="oPP6584VSFWBGFHBGUR1-588" style="edgeStyle=orthogonalEdgeStyle;rounded=0;orthogonalLoop=1;jettySize=auto;html=1;exitX=0;exitY=0.75;exitDx=0;exitDy=0;entryX=1;entryY=0.75;entryDx=0;entryDy=0;strokeWidth=5;" parent="1" source="oPP6584VSFWBGFHBGUR1-589" target="oPP6584VSFWBGFHBGUR1-592" edge="1">
          <mxGeometry relative="1" as="geometry" />
        </mxCell>
        <mxCell id="oPP6584VSFWBGFHBGUR1-589" value="&lt;b style=&quot;color: rgb(255, 255, 255);&quot;&gt;&lt;font style=&quot;font-size: 48px;&quot;&gt;صفحة لوحة التحكم&lt;/font&gt;&lt;/b&gt;" style="rounded=1;whiteSpace=wrap;html=1;fillColor=#3399FF;gradientColor=none;strokeColor=#6c8ebf;" parent="1" vertex="1">
          <mxGeometry x="820.7699999999999" y="-5470" width="330" height="120" as="geometry" />
        </mxCell>
        <mxCell id="oPP6584VSFWBGFHBGUR1-590" style="edgeStyle=orthogonalEdgeStyle;rounded=0;orthogonalLoop=1;jettySize=auto;html=1;exitX=1;exitY=0.5;exitDx=0;exitDy=0;entryX=0;entryY=0.5;entryDx=0;entryDy=0;strokeWidth=5;" parent="1" edge="1">
          <mxGeometry relative="1" as="geometry">
            <mxPoint x="555.7699999999999" y="-5420" as="sourcePoint" />
            <mxPoint x="820.7699999999999" y="-5420" as="targetPoint" />
          </mxGeometry>
        </mxCell>
        <mxCell id="oPP6584VSFWBGFHBGUR1-591" style="edgeStyle=orthogonalEdgeStyle;rounded=0;orthogonalLoop=1;jettySize=auto;html=1;exitX=0;exitY=0.75;exitDx=0;exitDy=0;entryX=1;entryY=0.75;entryDx=0;entryDy=0;strokeWidth=5;" parent="1" source="oPP6584VSFWBGFHBGUR1-592" target="oPP6584VSFWBGFHBGUR1-587" edge="1">
          <mxGeometry relative="1" as="geometry" />
        </mxCell>
        <mxCell id="oPP6584VSFWBGFHBGUR1-592" value="&lt;b style=&quot;color: rgb(255, 255, 255);&quot;&gt;&lt;font style=&quot;font-size: 48px;&quot;&gt;صفحة تسجيل دخول&lt;/font&gt;&lt;/b&gt;" style="rounded=1;whiteSpace=wrap;html=1;fillColor=#3399FF;gradientColor=none;strokeColor=#6c8ebf;" parent="1" vertex="1">
          <mxGeometry x="225.7699999999999" y="-5470" width="330" height="120" as="geometry" />
        </mxCell>
        <mxCell id="oPP6584VSFWBGFHBGUR1-593" style="edgeStyle=orthogonalEdgeStyle;rounded=0;orthogonalLoop=1;jettySize=auto;html=1;exitX=1;exitY=0.5;exitDx=0;exitDy=0;entryX=0.005;entryY=0.429;entryDx=0;entryDy=0;strokeWidth=5;entryPerimeter=0;" parent="1" target="oPP6584VSFWBGFHBGUR1-597" edge="1">
          <mxGeometry relative="1" as="geometry">
            <mxPoint x="59.99999999999997" y="5745" as="sourcePoint" />
            <mxPoint x="450.00000000000045" y="5745" as="targetPoint" />
          </mxGeometry>
        </mxCell>
        <mxCell id="oPP6584VSFWBGFHBGUR1-594" value="&lt;b style=&quot;color: rgb(255, 255, 255);&quot;&gt;&lt;font style=&quot;font-size: 65px;&quot;&gt;صفحة لوحة التحكم&lt;/font&gt;&lt;/b&gt;" style="rounded=1;whiteSpace=wrap;html=1;fillColor=#3399FF;gradientColor=none;strokeColor=#6c8ebf;" parent="1" vertex="1">
          <mxGeometry x="-360" y="5685" width="420" height="150" as="geometry" />
        </mxCell>
        <mxCell id="oPP6584VSFWBGFHBGUR1-595" value="" style="endArrow=classic;html=1;rounded=0;exitX=0.025;exitY=0.631;exitDx=0;exitDy=0;exitPerimeter=0;entryX=1;entryY=0.75;entryDx=0;entryDy=0;strokeWidth=5;" parent="1" source="oPP6584VSFWBGFHBGUR1-597" edge="1">
          <mxGeometry width="50" height="50" relative="1" as="geometry">
            <mxPoint x="449.34000000000015" y="5785" as="sourcePoint" />
            <mxPoint x="59.99999999999997" y="5788.3" as="targetPoint" />
          </mxGeometry>
        </mxCell>
        <mxCell id="oPP6584VSFWBGFHBGUR1-596" value="&lt;b&gt;&lt;font style=&quot;font-size: 48px;&quot;&gt;استجابة&lt;/font&gt;&lt;/b&gt;" style="text;html=1;align=center;verticalAlign=middle;resizable=0;points=[];autosize=1;strokeColor=none;fillColor=none;" parent="1" vertex="1">
          <mxGeometry x="180.00000000000006" y="5805" width="140" height="70" as="geometry" />
        </mxCell>
        <mxCell id="oPP6584VSFWBGFHBGUR1-597" value="&lt;span style=&quot;background-color: rgb(51, 153, 255);&quot;&gt;&lt;font style=&quot;font-size: 48px;&quot;&gt;&lt;b style=&quot;forced-color-adjust: none; color: rgb(255, 255, 255); font-family: Helvetica; font-style: normal; font-variant-ligatures: normal; font-variant-caps: normal; letter-spacing: normal; orphans: 2; text-align: center; text-indent: 0px; text-transform: none; widows: 2; word-spacing: 0px; -webkit-text-stroke-width: 0px; white-space: normal; text-decoration-thickness: initial; text-decoration-style: initial; text-decoration-color: initial;&quot;&gt;عملية البحث&lt;/b&gt;&lt;/font&gt;&lt;br&gt;&lt;/span&gt;" style="ellipse;whiteSpace=wrap;html=1;fillColor=#3399FF;strokeColor=#66B2FF;" parent="1" vertex="1">
          <mxGeometry x="455.6100000000001" y="5660" width="300" height="200" as="geometry" />
        </mxCell>
        <mxCell id="oPP6584VSFWBGFHBGUR1-598" value="&lt;font style=&quot;font-size: 48px;&quot;&gt;&lt;b&gt;ادخال البيانات&lt;/b&gt;&lt;/font&gt;" style="text;html=1;align=center;verticalAlign=middle;resizable=0;points=[];autosize=1;strokeColor=none;fillColor=none;" parent="1" vertex="1">
          <mxGeometry x="130.00000000000006" y="5665" width="230" height="70" as="geometry" />
        </mxCell>
        <mxCell id="oPP6584VSFWBGFHBGUR1-599" style="edgeStyle=orthogonalEdgeStyle;rounded=0;orthogonalLoop=1;jettySize=auto;html=1;strokeWidth=5;entryX=0;entryY=0.5;entryDx=0;entryDy=0;" parent="1" target="oPP6584VSFWBGFHBGUR1-605" edge="1">
          <mxGeometry relative="1" as="geometry">
            <mxPoint x="-9.400000000000006" y="5840" as="sourcePoint" />
            <mxPoint x="392.5999999999999" y="6024.95" as="targetPoint" />
            <Array as="points">
              <mxPoint x="-9.400000000000006" y="5835" />
              <mxPoint x="-9.400000000000006" y="5995" />
            </Array>
          </mxGeometry>
        </mxCell>
        <mxCell id="oPP6584VSFWBGFHBGUR1-600" style="edgeStyle=orthogonalEdgeStyle;rounded=0;orthogonalLoop=1;jettySize=auto;html=1;strokeWidth=5;entryX=0.002;entryY=0.454;entryDx=0;entryDy=0;entryPerimeter=0;" parent="1" source="oPP6584VSFWBGFHBGUR1-594" target="oPP6584VSFWBGFHBGUR1-606" edge="1">
          <mxGeometry relative="1" as="geometry">
            <mxPoint x="-149.39999999999998" y="5840" as="sourcePoint" />
            <mxPoint x="436.19000000000597" y="6485" as="targetPoint" />
            <Array as="points">
              <mxPoint x="-145.6" y="6476" />
            </Array>
          </mxGeometry>
        </mxCell>
        <mxCell id="oPP6584VSFWBGFHBGUR1-601" style="edgeStyle=orthogonalEdgeStyle;rounded=0;orthogonalLoop=1;jettySize=auto;html=1;strokeWidth=5;entryX=0;entryY=0.5;entryDx=0;entryDy=0;" parent="1" source="oPP6584VSFWBGFHBGUR1-594" target="oPP6584VSFWBGFHBGUR1-607" edge="1">
          <mxGeometry relative="1" as="geometry">
            <mxPoint x="-209.39999999999998" y="5835" as="sourcePoint" />
            <mxPoint x="412.6800000000003" y="6714.6" as="targetPoint" />
            <Array as="points">
              <mxPoint x="-195.6" y="6735" />
            </Array>
          </mxGeometry>
        </mxCell>
        <mxCell id="oPP6584VSFWBGFHBGUR1-602" value="&lt;b&gt;&lt;font style=&quot;font-size: 36px;&quot;&gt;ملف مبيعات&lt;/font&gt;&lt;/b&gt;" style="html=1;dashed=0;whiteSpace=wrap;shape=partialRectangle;right=0;strokeWidth=5;" parent="1" vertex="1">
          <mxGeometry x="1072.0099999999998" y="6030" width="230" height="90" as="geometry" />
        </mxCell>
        <mxCell id="oPP6584VSFWBGFHBGUR1-603" value="" style="html=1;dashed=0;whiteSpace=wrap;shape=partialRectangle;right=0;strokeWidth=5;" parent="1" vertex="1">
          <mxGeometry x="1060.6" y="6255" height="10" as="geometry" />
        </mxCell>
        <mxCell id="oPP6584VSFWBGFHBGUR1-604" style="edgeStyle=orthogonalEdgeStyle;rounded=0;orthogonalLoop=1;jettySize=auto;html=1;exitX=0.924;exitY=0.754;exitDx=0;exitDy=0;strokeWidth=5;entryX=-0.002;entryY=0.347;entryDx=0;entryDy=0;entryPerimeter=0;exitPerimeter=0;" parent="1" target="oPP6584VSFWBGFHBGUR1-602" edge="1">
          <mxGeometry relative="1" as="geometry">
            <mxPoint x="723.3599999999996" y="6059.999999999999" as="sourcePoint" />
            <mxPoint x="1057.5699999999988" y="6060.21" as="targetPoint" />
            <Array as="points">
              <mxPoint x="714.4" y="6060" />
              <mxPoint x="714.4" y="6061" />
            </Array>
          </mxGeometry>
        </mxCell>
        <mxCell id="oPP6584VSFWBGFHBGUR1-605" value="&lt;font style=&quot;font-size: 40px;&quot;&gt;&lt;font color=&quot;#ffffff&quot;&gt;&lt;span style=&quot;background-color: rgb(51, 153, 255);&quot;&gt;&lt;b style=&quot;&quot;&gt;عرض قائمة&lt;/b&gt;&lt;/span&gt;&lt;/font&gt;&lt;b style=&quot;color: rgb(255, 255, 255);&quot;&gt;&amp;nbsp;الرئيسية&lt;/b&gt;&lt;/font&gt;" style="ellipse;whiteSpace=wrap;html=1;fillColor=#3399FF;strokeColor=#66B2FF;" parent="1" vertex="1">
          <mxGeometry x="460.5999999999999" y="5895" width="300" height="200" as="geometry" />
        </mxCell>
        <mxCell id="oPP6584VSFWBGFHBGUR1-606" value="&lt;font style=&quot;font-size: 40px;&quot;&gt;&lt;b style=&quot;&quot;&gt;&lt;font style=&quot;&quot;&gt;&lt;font style=&quot;&quot; color=&quot;#ffffff&quot;&gt;&lt;span style=&quot;background-color: rgb(51, 153, 255);&quot;&gt;عرض قائمة&lt;/span&gt;&lt;/font&gt;&lt;span style=&quot;color: rgb(255, 255, 255);&quot;&gt;&amp;nbsp;&lt;/span&gt;&lt;/font&gt;&lt;span style=&quot;color: rgb(255, 255, 255);&quot;&gt;إدارة المخزن&lt;/span&gt;&lt;/b&gt;&lt;/font&gt;&lt;span style=&quot;background-color: rgb(51, 153, 255);&quot;&gt;&lt;br&gt;&lt;/span&gt;" style="ellipse;whiteSpace=wrap;html=1;fillColor=#3399FF;strokeColor=#66B2FF;" parent="1" vertex="1">
          <mxGeometry x="464.4" y="6385" width="296.2" height="200" as="geometry" />
        </mxCell>
        <mxCell id="oPP6584VSFWBGFHBGUR1-607" value="&lt;font style=&quot;font-size: 35px;&quot;&gt;&lt;font style=&quot;&quot;&gt;&lt;b style=&quot;&quot;&gt;&lt;font style=&quot;&quot; color=&quot;#ffffff&quot;&gt;&lt;span style=&quot;background-color: rgb(51, 153, 255);&quot;&gt;عرض قائمة&lt;/span&gt;&lt;/font&gt;&lt;span style=&quot;color: rgb(255, 255, 255);&quot;&gt;&amp;nbsp;&lt;/span&gt;&lt;/b&gt;&lt;/font&gt;&lt;b style=&quot;color: rgb(255, 255, 255);&quot;&gt;أذونات المستخدم&lt;/b&gt;&lt;/font&gt;&lt;span style=&quot;background-color: rgb(51, 153, 255);&quot;&gt;&lt;br&gt;&lt;/span&gt;" style="ellipse;whiteSpace=wrap;html=1;fillColor=#3399FF;strokeColor=#66B2FF;" parent="1" vertex="1">
          <mxGeometry x="450.5999999999999" y="6635" width="300" height="200" as="geometry" />
        </mxCell>
        <mxCell id="oPP6584VSFWBGFHBGUR1-608" style="edgeStyle=orthogonalEdgeStyle;rounded=0;orthogonalLoop=1;jettySize=auto;html=1;strokeWidth=5;entryX=0.752;entryY=0.934;entryDx=0;entryDy=0;entryPerimeter=0;" parent="1" target="oPP6584VSFWBGFHBGUR1-605" edge="1">
          <mxGeometry relative="1" as="geometry">
            <mxPoint x="1072.0099999999998" y="6079.68" as="sourcePoint" />
            <mxPoint x="715.9999999999991" y="6079.470000000002" as="targetPoint" />
            <Array as="points">
              <mxPoint x="1072.4" y="6082" />
            </Array>
          </mxGeometry>
        </mxCell>
        <mxCell id="oPP6584VSFWBGFHBGUR1-609" style="edgeStyle=orthogonalEdgeStyle;rounded=0;orthogonalLoop=1;jettySize=auto;html=1;strokeWidth=5;entryX=0;entryY=0.5;entryDx=0;entryDy=0;exitX=0.641;exitY=1.009;exitDx=0;exitDy=0;exitPerimeter=0;" parent="1" target="oPP6584VSFWBGFHBGUR1-612" edge="1">
          <mxGeometry relative="1" as="geometry">
            <mxPoint x="-80.39999999999999" y="5836" as="sourcePoint" />
            <mxPoint x="392.5999999999999" y="6234.95" as="targetPoint" />
            <Array as="points">
              <mxPoint x="-80.39999999999999" y="6245" />
            </Array>
          </mxGeometry>
        </mxCell>
        <mxCell id="oPP6584VSFWBGFHBGUR1-610" value="&lt;b&gt;&lt;font style=&quot;font-size: 36px;&quot;&gt;ملف&amp;nbsp;&lt;/font&gt;&lt;/b&gt;&lt;span style=&quot;font-size: 36px;&quot;&gt;&lt;b&gt;مبيعات&lt;/b&gt;&lt;/span&gt;" style="html=1;dashed=0;whiteSpace=wrap;shape=partialRectangle;right=0;strokeWidth=5;" parent="1" vertex="1">
          <mxGeometry x="1060.6" y="6200" width="230" height="90" as="geometry" />
        </mxCell>
        <mxCell id="oPP6584VSFWBGFHBGUR1-611" style="edgeStyle=orthogonalEdgeStyle;rounded=0;orthogonalLoop=1;jettySize=auto;html=1;exitX=1;exitY=0.5;exitDx=0;exitDy=0;strokeWidth=5;entryX=0;entryY=0.289;entryDx=0;entryDy=0;entryPerimeter=0;" parent="1" target="oPP6584VSFWBGFHBGUR1-610" edge="1">
          <mxGeometry relative="1" as="geometry">
            <mxPoint x="752.4399999999998" y="6225.0599999999995" as="sourcePoint" />
            <mxPoint x="1050.6" y="6226" as="targetPoint" />
            <Array as="points">
              <mxPoint x="742.5999999999999" y="6225" />
            </Array>
          </mxGeometry>
        </mxCell>
        <mxCell id="oPP6584VSFWBGFHBGUR1-612" value="&lt;font style=&quot;font-size: 40px;&quot;&gt;&lt;b style=&quot;&quot;&gt;&lt;font style=&quot;&quot;&gt;&lt;font style=&quot;&quot; color=&quot;#ffffff&quot;&gt;&lt;span style=&quot;background-color: rgb(51, 153, 255);&quot;&gt;عرض قائمة&lt;/span&gt;&lt;/font&gt;&lt;span style=&quot;color: rgb(255, 255, 255);&quot;&gt;&amp;nbsp;&lt;/span&gt;&lt;/font&gt;&lt;span style=&quot;color: rgb(255, 255, 255);&quot;&gt;طلبات العملاء&lt;/span&gt;&lt;/b&gt;&lt;/font&gt;" style="ellipse;whiteSpace=wrap;html=1;fillColor=#3399FF;strokeColor=#66B2FF;" parent="1" vertex="1">
          <mxGeometry x="470.5999999999999" y="6145" width="300" height="200" as="geometry" />
        </mxCell>
        <mxCell id="oPP6584VSFWBGFHBGUR1-613" style="edgeStyle=orthogonalEdgeStyle;rounded=0;orthogonalLoop=1;jettySize=auto;html=1;strokeWidth=5;entryX=0.988;entryY=0.602;entryDx=0;entryDy=0;entryPerimeter=0;" parent="1" target="oPP6584VSFWBGFHBGUR1-612" edge="1">
          <mxGeometry relative="1" as="geometry">
            <mxPoint x="1060.6" y="6265" as="sourcePoint" />
            <mxPoint x="770" y="6265" as="targetPoint" />
            <Array as="points">
              <mxPoint x="821" y="6265" />
            </Array>
          </mxGeometry>
        </mxCell>
        <mxCell id="oPP6584VSFWBGFHBGUR1-614" value="&lt;font style=&quot;font-size: 24px;&quot;&gt;&lt;b&gt;رد&lt;/b&gt;&lt;/font&gt;" style="text;html=1;align=center;verticalAlign=middle;resizable=0;points=[];autosize=1;strokeColor=none;fillColor=none;" parent="1" vertex="1">
          <mxGeometry x="880.5999999999999" y="6265" width="40" height="40" as="geometry" />
        </mxCell>
        <mxCell id="oPP6584VSFWBGFHBGUR1-615" value="&lt;font style=&quot;font-size: 24px;&quot;&gt;&lt;b&gt;رد&lt;/b&gt;&lt;/font&gt;" style="text;html=1;align=center;verticalAlign=middle;resizable=0;points=[];autosize=1;strokeColor=none;fillColor=none;" parent="1" vertex="1">
          <mxGeometry x="880.5999999999997" y="6080" width="40" height="40" as="geometry" />
        </mxCell>
        <mxCell id="oPP6584VSFWBGFHBGUR1-616" style="edgeStyle=orthogonalEdgeStyle;rounded=0;orthogonalLoop=1;jettySize=auto;html=1;strokeWidth=5;entryX=0;entryY=0.5;entryDx=0;entryDy=0;" parent="1" target="oPP6584VSFWBGFHBGUR1-617" edge="1">
          <mxGeometry relative="1" as="geometry">
            <mxPoint x="-230.6" y="5835" as="sourcePoint" />
            <mxPoint x="408.3000000000003" y="6989.6" as="targetPoint" />
            <Array as="points">
              <mxPoint x="-230.6" y="7010" />
            </Array>
          </mxGeometry>
        </mxCell>
        <mxCell id="oPP6584VSFWBGFHBGUR1-617" value="&lt;font style=&quot;font-size: 48px;&quot;&gt;&lt;b style=&quot;&quot;&gt;&lt;font style=&quot;&quot; color=&quot;#ffffff&quot;&gt;&lt;span style=&quot;background-color: rgb(51, 153, 255);&quot;&gt;عرض قائمة&lt;/span&gt;&lt;/font&gt;&lt;span style=&quot;color: rgb(255, 255, 255);&quot;&gt;&amp;nbsp;&lt;br&gt;&lt;/span&gt;&lt;/b&gt;&lt;span style=&quot;color: rgb(255, 255, 255);&quot;&gt;&lt;b&gt;ارسال&lt;/b&gt;&lt;/span&gt;&lt;b style=&quot;color: rgb(255, 255, 255);&quot;&gt;&amp;nbsp;&lt;/b&gt;&lt;span style=&quot;color: rgb(255, 255, 255);&quot;&gt;&lt;b style=&quot;&quot;&gt;رسائل&lt;/b&gt;&lt;/span&gt;&lt;/font&gt;&lt;span style=&quot;background-color: rgb(51, 153, 255);&quot;&gt;&lt;br&gt;&lt;/span&gt;" style="ellipse;whiteSpace=wrap;html=1;fillColor=#3399FF;strokeColor=#66B2FF;" parent="1" vertex="1">
          <mxGeometry x="446.2199999999999" y="6910" width="300" height="200" as="geometry" />
        </mxCell>
        <mxCell id="oPP6584VSFWBGFHBGUR1-618" style="edgeStyle=orthogonalEdgeStyle;rounded=0;orthogonalLoop=1;jettySize=auto;html=1;strokeWidth=5;entryX=0.004;entryY=0.447;entryDx=0;entryDy=0;entryPerimeter=0;" parent="1" source="oPP6584VSFWBGFHBGUR1-594" target="oPP6584VSFWBGFHBGUR1-619" edge="1">
          <mxGeometry relative="1" as="geometry">
            <mxPoint x="-295.6" y="5900" as="sourcePoint" />
            <mxPoint x="459.7099999999999" y="7277.98" as="targetPoint" />
            <Array as="points">
              <mxPoint x="-280.6" y="7277" />
            </Array>
          </mxGeometry>
        </mxCell>
        <mxCell id="oPP6584VSFWBGFHBGUR1-619" value="&lt;b style=&quot;text-wrap: nowrap;&quot;&gt;&lt;font style=&quot;font-size: 45px;&quot; color=&quot;#ffffff&quot;&gt;طلب تسجيل الخروج&lt;/font&gt;&lt;/b&gt;" style="ellipse;whiteSpace=wrap;html=1;fillColor=#3399FF;strokeColor=#66B2FF;" parent="1" vertex="1">
          <mxGeometry x="460.30999999999983" y="7187.98" width="300" height="200" as="geometry" />
        </mxCell>
        <mxCell id="oPP6584VSFWBGFHBGUR1-620" value="&lt;font style=&quot;font-size: 48px;&quot;&gt;&lt;font style=&quot;&quot; color=&quot;#ffffff&quot;&gt;&lt;span style=&quot;text-wrap: nowrap; background-color: rgb(51, 153, 255);&quot;&gt;&lt;b style=&quot;&quot;&gt;انتقال الي&amp;nbsp;&lt;br&gt;صفحة&amp;nbsp;&lt;/b&gt;&lt;/span&gt;&lt;/font&gt;&lt;b style=&quot;color: rgb(255, 255, 255);&quot;&gt;&lt;font style=&quot;&quot;&gt;الرئيسية&lt;/font&gt;&lt;/b&gt;&lt;/font&gt;" style="ellipse;whiteSpace=wrap;html=1;fillColor=#3399FF;strokeColor=#66B2FF;" parent="1" vertex="1">
          <mxGeometry x="1049.71" y="7187.98" width="300" height="200" as="geometry" />
        </mxCell>
        <mxCell id="oPP6584VSFWBGFHBGUR1-621" style="edgeStyle=orthogonalEdgeStyle;rounded=0;orthogonalLoop=1;jettySize=auto;html=1;strokeWidth=5;exitX=0.978;exitY=0.363;exitDx=0;exitDy=0;exitPerimeter=0;" parent="1" edge="1">
          <mxGeometry relative="1" as="geometry">
            <mxPoint x="762.7099999999999" y="7287.98" as="sourcePoint" />
            <mxPoint x="1049.71" y="7287.98" as="targetPoint" />
          </mxGeometry>
        </mxCell>
        <mxCell id="oPP6584VSFWBGFHBGUR1-622" value="&lt;font style=&quot;font-size: 24px;&quot;&gt;&lt;b&gt;حصول علي قائمة مبيعات&lt;/b&gt;&lt;/font&gt;" style="text;html=1;align=center;verticalAlign=middle;resizable=0;points=[];autosize=1;strokeColor=none;fillColor=none;" parent="1" vertex="1">
          <mxGeometry x="789.9999999999999" y="6180" width="230" height="40" as="geometry" />
        </mxCell>
        <mxCell id="oPP6584VSFWBGFHBGUR1-623" value="&lt;font style=&quot;font-size: 24px;&quot;&gt;&lt;b&gt;حصول علي قائمة مبيعات&lt;/b&gt;&lt;/font&gt;" style="text;html=1;align=center;verticalAlign=middle;resizable=0;points=[];autosize=1;strokeColor=none;fillColor=none;" parent="1" vertex="1">
          <mxGeometry x="799.9999999999999" y="6020" width="230" height="40" as="geometry" />
        </mxCell>
        <mxCell id="oPP6584VSFWBGFHBGUR1-624" value="&lt;b&gt;&lt;font style=&quot;font-size: 36px;&quot;&gt;ملف لوحة التحكم&lt;/font&gt;&lt;/b&gt;" style="html=1;dashed=0;whiteSpace=wrap;shape=partialRectangle;right=0;strokeWidth=5;" parent="1" vertex="1">
          <mxGeometry x="1072.0099999999998" y="5890" width="230" height="90" as="geometry" />
        </mxCell>
        <mxCell id="oPP6584VSFWBGFHBGUR1-625" style="edgeStyle=orthogonalEdgeStyle;rounded=0;orthogonalLoop=1;jettySize=auto;html=1;strokeWidth=5;exitX=0.788;exitY=0.098;exitDx=0;exitDy=0;exitPerimeter=0;" parent="1" source="oPP6584VSFWBGFHBGUR1-605" edge="1">
          <mxGeometry relative="1" as="geometry">
            <mxPoint x="728.708836525368" y="5914.995641025643" as="sourcePoint" />
            <mxPoint x="1070.0899999999997" y="5914.995641025643" as="targetPoint" />
            <Array as="points">
              <mxPoint x="842.4000000000001" y="5915" />
            </Array>
          </mxGeometry>
        </mxCell>
        <mxCell id="oPP6584VSFWBGFHBGUR1-626" style="edgeStyle=orthogonalEdgeStyle;rounded=0;orthogonalLoop=1;jettySize=auto;html=1;entryX=0.936;entryY=0.258;entryDx=0;entryDy=0;entryPerimeter=0;strokeWidth=5;" parent="1" edge="1">
          <mxGeometry relative="1" as="geometry">
            <mxPoint x="1075.3299999999997" y="5945" as="sourcePoint" />
            <mxPoint x="738.7" y="5946.6" as="targetPoint" />
            <Array as="points">
              <mxPoint x="1071.7" y="5945" />
              <mxPoint x="1071.7" y="5947" />
            </Array>
          </mxGeometry>
        </mxCell>
        <mxCell id="oPP6584VSFWBGFHBGUR1-627" value="&lt;font style=&quot;font-size: 24px;&quot;&gt;&lt;b&gt;رد&lt;/b&gt;&lt;/font&gt;" style="text;html=1;align=center;verticalAlign=middle;resizable=0;points=[];autosize=1;strokeColor=none;fillColor=none;" parent="1" vertex="1">
          <mxGeometry x="889.3999999999999" y="5950" width="40" height="40" as="geometry" />
        </mxCell>
        <mxCell id="oPP6584VSFWBGFHBGUR1-628" value="&lt;font style=&quot;font-size: 24px;&quot;&gt;&lt;b&gt;حصول علي قائمة لوحة التحكم&lt;/b&gt;&lt;/font&gt;" style="text;html=1;align=center;verticalAlign=middle;resizable=0;points=[];autosize=1;strokeColor=none;fillColor=none;" parent="1" vertex="1">
          <mxGeometry x="774.3999999999997" y="5875" width="270" height="40" as="geometry" />
        </mxCell>
        <mxCell id="oPP6584VSFWBGFHBGUR1-629" value="" style="html=1;dashed=0;whiteSpace=wrap;shape=partialRectangle;right=0;strokeWidth=5;" parent="1" vertex="1">
          <mxGeometry x="1061.1" y="6747.5" height="10" as="geometry" />
        </mxCell>
        <mxCell id="oPP6584VSFWBGFHBGUR1-630" value="&lt;b&gt;&lt;font style=&quot;font-size: 36px;&quot;&gt;ملف&amp;nbsp;&lt;/font&gt;&lt;/b&gt;&lt;span style=&quot;font-size: 36px;&quot;&gt;&lt;b&gt;إذن المستخدم&lt;/b&gt;&lt;/span&gt;" style="html=1;dashed=0;whiteSpace=wrap;shape=partialRectangle;right=0;strokeWidth=5;" parent="1" vertex="1">
          <mxGeometry x="1061.1" y="6692.5" width="230" height="90" as="geometry" />
        </mxCell>
        <mxCell id="oPP6584VSFWBGFHBGUR1-631" style="edgeStyle=orthogonalEdgeStyle;rounded=0;orthogonalLoop=1;jettySize=auto;html=1;strokeWidth=5;entryX=-0.014;entryY=0.321;entryDx=0;entryDy=0;entryPerimeter=0;" parent="1" target="oPP6584VSFWBGFHBGUR1-630" edge="1">
          <mxGeometry relative="1" as="geometry">
            <mxPoint x="749.8634352304923" y="6722.032258064515" as="sourcePoint" />
            <mxPoint x="1044.4" y="6721" as="targetPoint" />
            <Array as="points">
              <mxPoint x="752.4" y="6722" />
            </Array>
          </mxGeometry>
        </mxCell>
        <mxCell id="oPP6584VSFWBGFHBGUR1-632" value="&lt;font style=&quot;font-size: 24px;&quot;&gt;&lt;b&gt;رد&lt;/b&gt;&lt;/font&gt;" style="text;html=1;align=center;verticalAlign=middle;resizable=0;points=[];autosize=1;strokeColor=none;fillColor=none;" parent="1" vertex="1">
          <mxGeometry x="884.3999999999999" y="6747.5" width="40" height="40" as="geometry" />
        </mxCell>
        <mxCell id="oPP6584VSFWBGFHBGUR1-633" value="&lt;font style=&quot;&quot;&gt;&lt;b style=&quot;font-size: 24px;&quot;&gt;اضافة الي ملف &lt;/b&gt;&lt;span style=&quot;font-size: 24px;&quot;&gt;&lt;b&gt;إذن المستخدم&lt;/b&gt;&lt;/span&gt;&lt;b style=&quot;font-size: 24px;&quot;&gt;&amp;nbsp;&lt;/b&gt;&lt;/font&gt;" style="text;html=1;align=center;verticalAlign=middle;resizable=0;points=[];autosize=1;strokeColor=none;fillColor=none;" parent="1" vertex="1">
          <mxGeometry x="779.3999999999999" y="6680" width="260" height="40" as="geometry" />
        </mxCell>
        <mxCell id="oPP6584VSFWBGFHBGUR1-634" style="edgeStyle=orthogonalEdgeStyle;rounded=0;orthogonalLoop=1;jettySize=auto;html=1;strokeWidth=5;entryX=0.993;entryY=0.589;entryDx=0;entryDy=0;entryPerimeter=0;exitX=-0.006;exitY=0.668;exitDx=0;exitDy=0;exitPerimeter=0;" parent="1" source="oPP6584VSFWBGFHBGUR1-630" target="oPP6584VSFWBGFHBGUR1-607" edge="1">
          <mxGeometry relative="1" as="geometry">
            <mxPoint x="1044.3999999999999" y="6752.39" as="sourcePoint" />
            <mxPoint x="751.1999999999999" y="6752.39" as="targetPoint" />
            <Array as="points" />
          </mxGeometry>
        </mxCell>
        <mxCell id="oPP6584VSFWBGFHBGUR1-635" style="edgeStyle=orthogonalEdgeStyle;rounded=0;orthogonalLoop=1;jettySize=auto;html=1;exitX=1;exitY=0.5;exitDx=0;exitDy=0;entryX=0.005;entryY=0.429;entryDx=0;entryDy=0;strokeWidth=5;entryPerimeter=0;" parent="1" target="oPP6584VSFWBGFHBGUR1-639" edge="1">
          <mxGeometry relative="1" as="geometry">
            <mxPoint x="107.22000000000003" y="8325" as="sourcePoint" />
            <mxPoint x="497.2200000000005" y="8325" as="targetPoint" />
          </mxGeometry>
        </mxCell>
        <mxCell id="oPP6584VSFWBGFHBGUR1-636" value="&lt;b style=&quot;color: rgb(255, 255, 255);&quot;&gt;&lt;font style=&quot;font-size: 65px;&quot;&gt;صفحة لوحة التحكم&lt;/font&gt;&lt;/b&gt;" style="rounded=1;whiteSpace=wrap;html=1;fillColor=#3399FF;gradientColor=none;strokeColor=#6c8ebf;" parent="1" vertex="1">
          <mxGeometry x="-312.78" y="8265" width="420" height="150" as="geometry" />
        </mxCell>
        <mxCell id="oPP6584VSFWBGFHBGUR1-637" value="" style="endArrow=classic;html=1;rounded=0;exitX=0.025;exitY=0.631;exitDx=0;exitDy=0;exitPerimeter=0;entryX=1;entryY=0.75;entryDx=0;entryDy=0;strokeWidth=5;" parent="1" source="oPP6584VSFWBGFHBGUR1-639" edge="1">
          <mxGeometry width="50" height="50" relative="1" as="geometry">
            <mxPoint x="496.5600000000002" y="8365" as="sourcePoint" />
            <mxPoint x="107.22000000000003" y="8368.3" as="targetPoint" />
          </mxGeometry>
        </mxCell>
        <mxCell id="oPP6584VSFWBGFHBGUR1-638" value="&lt;b&gt;&lt;font style=&quot;font-size: 48px;&quot;&gt;استجابة&lt;/font&gt;&lt;/b&gt;" style="text;html=1;align=center;verticalAlign=middle;resizable=0;points=[];autosize=1;strokeColor=none;fillColor=none;" parent="1" vertex="1">
          <mxGeometry x="227.22000000000003" y="8385" width="140" height="70" as="geometry" />
        </mxCell>
        <mxCell id="oPP6584VSFWBGFHBGUR1-639" value="&lt;span style=&quot;background-color: rgb(51, 153, 255);&quot;&gt;&lt;font style=&quot;font-size: 48px;&quot;&gt;&lt;b style=&quot;forced-color-adjust: none; color: rgb(255, 255, 255); font-family: Helvetica; font-style: normal; font-variant-ligatures: normal; font-variant-caps: normal; letter-spacing: normal; orphans: 2; text-align: center; text-indent: 0px; text-transform: none; widows: 2; word-spacing: 0px; -webkit-text-stroke-width: 0px; white-space: normal; text-decoration-thickness: initial; text-decoration-style: initial; text-decoration-color: initial;&quot;&gt;عملية البحث&lt;/b&gt;&lt;/font&gt;&lt;br&gt;&lt;/span&gt;" style="ellipse;whiteSpace=wrap;html=1;fillColor=#3399FF;strokeColor=#66B2FF;" parent="1" vertex="1">
          <mxGeometry x="502.83000000000015" y="8240" width="300" height="200" as="geometry" />
        </mxCell>
        <mxCell id="oPP6584VSFWBGFHBGUR1-640" value="&lt;font style=&quot;font-size: 48px;&quot;&gt;&lt;b&gt;ادخال البيانات&lt;/b&gt;&lt;/font&gt;" style="text;html=1;align=center;verticalAlign=middle;resizable=0;points=[];autosize=1;strokeColor=none;fillColor=none;" parent="1" vertex="1">
          <mxGeometry x="177.22000000000003" y="8245" width="230" height="70" as="geometry" />
        </mxCell>
        <mxCell id="oPP6584VSFWBGFHBGUR1-641" value="&lt;b style=&quot;color: rgb(255, 255, 255); font-size: 72px;&quot;&gt;المستخدم&lt;/b&gt;" style="rounded=1;whiteSpace=wrap;html=1;fillColor=#3399FF;gradientColor=none;strokeColor=#6c8ebf;" parent="1" vertex="1">
          <mxGeometry x="-2040" y="8265" width="370" height="150" as="geometry" />
        </mxCell>
        <mxCell id="oPP6584VSFWBGFHBGUR1-642" style="edgeStyle=orthogonalEdgeStyle;rounded=0;orthogonalLoop=1;jettySize=auto;html=1;strokeWidth=5;entryX=0;entryY=0.5;entryDx=0;entryDy=0;" parent="1" target="oPP6584VSFWBGFHBGUR1-647" edge="1">
          <mxGeometry relative="1" as="geometry">
            <mxPoint x="37.82000000000002" y="8420" as="sourcePoint" />
            <mxPoint x="439.81999999999994" y="8604.95" as="targetPoint" />
            <Array as="points">
              <mxPoint x="37.82000000000002" y="8415" />
              <mxPoint x="37.82000000000002" y="8575" />
            </Array>
          </mxGeometry>
        </mxCell>
        <mxCell id="oPP6584VSFWBGFHBGUR1-643" style="edgeStyle=orthogonalEdgeStyle;rounded=0;orthogonalLoop=1;jettySize=auto;html=1;strokeWidth=5;entryX=0.002;entryY=0.454;entryDx=0;entryDy=0;entryPerimeter=0;" parent="1" source="oPP6584VSFWBGFHBGUR1-636" target="oPP6584VSFWBGFHBGUR1-648" edge="1">
          <mxGeometry relative="1" as="geometry">
            <mxPoint x="-102.17999999999998" y="8420" as="sourcePoint" />
            <mxPoint x="483.410000000006" y="9065" as="targetPoint" />
            <Array as="points">
              <mxPoint x="-98.38" y="9056" />
            </Array>
          </mxGeometry>
        </mxCell>
        <mxCell id="oPP6584VSFWBGFHBGUR1-644" value="&lt;b&gt;&lt;font style=&quot;font-size: 36px;&quot;&gt;ملف مبيعات&lt;/font&gt;&lt;/b&gt;" style="html=1;dashed=0;whiteSpace=wrap;shape=partialRectangle;right=0;strokeWidth=5;" parent="1" vertex="1">
          <mxGeometry x="1119.2299999999998" y="8610" width="230" height="90" as="geometry" />
        </mxCell>
        <mxCell id="oPP6584VSFWBGFHBGUR1-645" value="" style="html=1;dashed=0;whiteSpace=wrap;shape=partialRectangle;right=0;strokeWidth=5;" parent="1" vertex="1">
          <mxGeometry x="1107.82" y="8835" height="10" as="geometry" />
        </mxCell>
        <mxCell id="oPP6584VSFWBGFHBGUR1-646" style="edgeStyle=orthogonalEdgeStyle;rounded=0;orthogonalLoop=1;jettySize=auto;html=1;exitX=0.924;exitY=0.754;exitDx=0;exitDy=0;strokeWidth=5;entryX=-0.002;entryY=0.347;entryDx=0;entryDy=0;entryPerimeter=0;exitPerimeter=0;" parent="1" target="oPP6584VSFWBGFHBGUR1-644" edge="1">
          <mxGeometry relative="1" as="geometry">
            <mxPoint x="770.5799999999996" y="8640" as="sourcePoint" />
            <mxPoint x="1104.7899999999988" y="8640.21" as="targetPoint" />
            <Array as="points">
              <mxPoint x="761.62" y="8640" />
              <mxPoint x="761.62" y="8641" />
            </Array>
          </mxGeometry>
        </mxCell>
        <mxCell id="oPP6584VSFWBGFHBGUR1-647" value="&lt;font style=&quot;font-size: 40px;&quot;&gt;&lt;font color=&quot;#ffffff&quot;&gt;&lt;span style=&quot;background-color: rgb(51, 153, 255);&quot;&gt;&lt;b style=&quot;&quot;&gt;عرض قائمة&lt;/b&gt;&lt;/span&gt;&lt;/font&gt;&lt;b style=&quot;color: rgb(255, 255, 255);&quot;&gt;&amp;nbsp;الرئيسية&lt;/b&gt;&lt;/font&gt;" style="ellipse;whiteSpace=wrap;html=1;fillColor=#3399FF;strokeColor=#66B2FF;" parent="1" vertex="1">
          <mxGeometry x="507.81999999999994" y="8475" width="300" height="200" as="geometry" />
        </mxCell>
        <mxCell id="oPP6584VSFWBGFHBGUR1-648" value="&lt;font style=&quot;font-size: 40px;&quot;&gt;&lt;b style=&quot;&quot;&gt;&lt;font style=&quot;&quot;&gt;&lt;font style=&quot;&quot; color=&quot;#ffffff&quot;&gt;&lt;span style=&quot;background-color: rgb(51, 153, 255);&quot;&gt;عرض قائمة&lt;/span&gt;&lt;/font&gt;&lt;span style=&quot;color: rgb(255, 255, 255);&quot;&gt;&amp;nbsp;&lt;/span&gt;&lt;/font&gt;&lt;span style=&quot;color: rgb(255, 255, 255);&quot;&gt;إدارة المخزن&lt;/span&gt;&lt;/b&gt;&lt;/font&gt;&lt;span style=&quot;background-color: rgb(51, 153, 255);&quot;&gt;&lt;br&gt;&lt;/span&gt;" style="ellipse;whiteSpace=wrap;html=1;fillColor=#3399FF;strokeColor=#66B2FF;" parent="1" vertex="1">
          <mxGeometry x="511.62" y="8965" width="296.2" height="200" as="geometry" />
        </mxCell>
        <mxCell id="oPP6584VSFWBGFHBGUR1-649" style="edgeStyle=orthogonalEdgeStyle;rounded=0;orthogonalLoop=1;jettySize=auto;html=1;strokeWidth=5;entryX=0.752;entryY=0.934;entryDx=0;entryDy=0;entryPerimeter=0;" parent="1" target="oPP6584VSFWBGFHBGUR1-647" edge="1">
          <mxGeometry relative="1" as="geometry">
            <mxPoint x="1119.2299999999998" y="8659.68" as="sourcePoint" />
            <mxPoint x="763.2199999999991" y="8659.470000000001" as="targetPoint" />
            <Array as="points">
              <mxPoint x="1119.6200000000001" y="8662" />
            </Array>
          </mxGeometry>
        </mxCell>
        <mxCell id="oPP6584VSFWBGFHBGUR1-650" style="edgeStyle=orthogonalEdgeStyle;rounded=0;orthogonalLoop=1;jettySize=auto;html=1;strokeWidth=5;entryX=0;entryY=0.5;entryDx=0;entryDy=0;exitX=0.641;exitY=1.009;exitDx=0;exitDy=0;exitPerimeter=0;" parent="1" target="oPP6584VSFWBGFHBGUR1-653" edge="1">
          <mxGeometry relative="1" as="geometry">
            <mxPoint x="-33.17999999999998" y="8416" as="sourcePoint" />
            <mxPoint x="439.81999999999994" y="8814.95" as="targetPoint" />
            <Array as="points">
              <mxPoint x="-33.17999999999998" y="8825" />
            </Array>
          </mxGeometry>
        </mxCell>
        <mxCell id="oPP6584VSFWBGFHBGUR1-651" value="&lt;b&gt;&lt;font style=&quot;font-size: 36px;&quot;&gt;ملف&amp;nbsp;&lt;/font&gt;&lt;/b&gt;&lt;span style=&quot;font-size: 36px;&quot;&gt;&lt;b&gt;مبيعات&lt;/b&gt;&lt;/span&gt;" style="html=1;dashed=0;whiteSpace=wrap;shape=partialRectangle;right=0;strokeWidth=5;" parent="1" vertex="1">
          <mxGeometry x="1107.82" y="8780" width="230" height="90" as="geometry" />
        </mxCell>
        <mxCell id="oPP6584VSFWBGFHBGUR1-652" style="edgeStyle=orthogonalEdgeStyle;rounded=0;orthogonalLoop=1;jettySize=auto;html=1;exitX=1;exitY=0.5;exitDx=0;exitDy=0;strokeWidth=5;entryX=0;entryY=0.289;entryDx=0;entryDy=0;entryPerimeter=0;" parent="1" target="oPP6584VSFWBGFHBGUR1-651" edge="1">
          <mxGeometry relative="1" as="geometry">
            <mxPoint x="799.6599999999999" y="8805.06" as="sourcePoint" />
            <mxPoint x="1097.82" y="8806" as="targetPoint" />
            <Array as="points">
              <mxPoint x="789.8199999999999" y="8805" />
            </Array>
          </mxGeometry>
        </mxCell>
        <mxCell id="oPP6584VSFWBGFHBGUR1-653" value="&lt;font style=&quot;font-size: 40px;&quot;&gt;&lt;b style=&quot;&quot;&gt;&lt;font style=&quot;&quot;&gt;&lt;font style=&quot;&quot; color=&quot;#ffffff&quot;&gt;&lt;span style=&quot;background-color: rgb(51, 153, 255);&quot;&gt;عرض قائمة&lt;/span&gt;&lt;/font&gt;&lt;span style=&quot;color: rgb(255, 255, 255);&quot;&gt;&amp;nbsp;&lt;/span&gt;&lt;/font&gt;&lt;span style=&quot;color: rgb(255, 255, 255);&quot;&gt;طلبات العملاء&lt;/span&gt;&lt;/b&gt;&lt;/font&gt;" style="ellipse;whiteSpace=wrap;html=1;fillColor=#3399FF;strokeColor=#66B2FF;" parent="1" vertex="1">
          <mxGeometry x="517.8199999999999" y="8725" width="300" height="200" as="geometry" />
        </mxCell>
        <mxCell id="oPP6584VSFWBGFHBGUR1-654" style="edgeStyle=orthogonalEdgeStyle;rounded=0;orthogonalLoop=1;jettySize=auto;html=1;strokeWidth=5;entryX=0.988;entryY=0.602;entryDx=0;entryDy=0;entryPerimeter=0;" parent="1" target="oPP6584VSFWBGFHBGUR1-653" edge="1">
          <mxGeometry relative="1" as="geometry">
            <mxPoint x="1107.82" y="8845" as="sourcePoint" />
            <mxPoint x="817.22" y="8845" as="targetPoint" />
            <Array as="points">
              <mxPoint x="868.22" y="8845" />
            </Array>
          </mxGeometry>
        </mxCell>
        <mxCell id="oPP6584VSFWBGFHBGUR1-655" value="&lt;font style=&quot;font-size: 24px;&quot;&gt;&lt;b&gt;رد&lt;/b&gt;&lt;/font&gt;" style="text;html=1;align=center;verticalAlign=middle;resizable=0;points=[];autosize=1;strokeColor=none;fillColor=none;" parent="1" vertex="1">
          <mxGeometry x="927.8199999999999" y="8845" width="40" height="40" as="geometry" />
        </mxCell>
        <mxCell id="oPP6584VSFWBGFHBGUR1-656" value="&lt;font style=&quot;font-size: 24px;&quot;&gt;&lt;b&gt;رد&lt;/b&gt;&lt;/font&gt;" style="text;html=1;align=center;verticalAlign=middle;resizable=0;points=[];autosize=1;strokeColor=none;fillColor=none;" parent="1" vertex="1">
          <mxGeometry x="927.8199999999997" y="8660" width="40" height="40" as="geometry" />
        </mxCell>
        <mxCell id="oPP6584VSFWBGFHBGUR1-657" style="edgeStyle=orthogonalEdgeStyle;rounded=0;orthogonalLoop=1;jettySize=auto;html=1;strokeWidth=5;entryX=0;entryY=0.5;entryDx=0;entryDy=0;exitX=0.337;exitY=1.002;exitDx=0;exitDy=0;exitPerimeter=0;" parent="1" source="oPP6584VSFWBGFHBGUR1-636" target="oPP6584VSFWBGFHBGUR1-658" edge="1">
          <mxGeometry relative="1" as="geometry">
            <mxPoint x="-171.07999999999998" y="8420" as="sourcePoint" />
            <mxPoint x="467.9100000000003" y="9297.1" as="targetPoint" />
            <Array as="points">
              <mxPoint x="-171.07999999999998" y="9318" />
            </Array>
          </mxGeometry>
        </mxCell>
        <mxCell id="oPP6584VSFWBGFHBGUR1-658" value="&lt;font style=&quot;font-size: 48px;&quot;&gt;&lt;b style=&quot;&quot;&gt;&lt;font style=&quot;&quot; color=&quot;#ffffff&quot;&gt;&lt;span style=&quot;background-color: rgb(51, 153, 255);&quot;&gt;عرض قائمة&lt;/span&gt;&lt;/font&gt;&lt;span style=&quot;color: rgb(255, 255, 255);&quot;&gt;&amp;nbsp;&lt;br&gt;&lt;/span&gt;&lt;/b&gt;&lt;span style=&quot;color: rgb(255, 255, 255);&quot;&gt;&lt;b&gt;ارسال&lt;/b&gt;&lt;/span&gt;&lt;b style=&quot;color: rgb(255, 255, 255);&quot;&gt;&amp;nbsp;&lt;/b&gt;&lt;span style=&quot;color: rgb(255, 255, 255);&quot;&gt;&lt;b style=&quot;&quot;&gt;رسائل&lt;/b&gt;&lt;/span&gt;&lt;/font&gt;&lt;span style=&quot;background-color: rgb(51, 153, 255);&quot;&gt;&lt;br&gt;&lt;/span&gt;" style="ellipse;whiteSpace=wrap;html=1;fillColor=#3399FF;strokeColor=#66B2FF;" parent="1" vertex="1">
          <mxGeometry x="505.8299999999999" y="9217.5" width="300" height="200" as="geometry" />
        </mxCell>
        <mxCell id="oPP6584VSFWBGFHBGUR1-659" style="edgeStyle=orthogonalEdgeStyle;rounded=0;orthogonalLoop=1;jettySize=auto;html=1;strokeWidth=5;entryX=0.004;entryY=0.447;entryDx=0;entryDy=0;entryPerimeter=0;exitX=0.182;exitY=1.002;exitDx=0;exitDy=0;exitPerimeter=0;" parent="1" source="oPP6584VSFWBGFHBGUR1-636" target="oPP6584VSFWBGFHBGUR1-660" edge="1">
          <mxGeometry relative="1" as="geometry">
            <mxPoint x="-235.07999999999998" y="8410" as="sourcePoint" />
            <mxPoint x="504.91999999999996" y="9582.98" as="targetPoint" />
            <Array as="points">
              <mxPoint x="-236.07999999999998" y="9582" />
            </Array>
          </mxGeometry>
        </mxCell>
        <mxCell id="oPP6584VSFWBGFHBGUR1-660" value="&lt;b style=&quot;text-wrap: nowrap;&quot;&gt;&lt;font style=&quot;font-size: 45px;&quot; color=&quot;#ffffff&quot;&gt;طلب تسجيل الخروج&lt;/font&gt;&lt;/b&gt;" style="ellipse;whiteSpace=wrap;html=1;fillColor=#3399FF;strokeColor=#66B2FF;" parent="1" vertex="1">
          <mxGeometry x="505.51999999999987" y="9492.98" width="300" height="200" as="geometry" />
        </mxCell>
        <mxCell id="oPP6584VSFWBGFHBGUR1-661" value="&lt;font style=&quot;font-size: 48px;&quot;&gt;&lt;font style=&quot;&quot; color=&quot;#ffffff&quot;&gt;&lt;span style=&quot;text-wrap: nowrap; background-color: rgb(51, 153, 255);&quot;&gt;&lt;b style=&quot;&quot;&gt;انتقال الي&amp;nbsp;&lt;br&gt;صفحة&amp;nbsp;&lt;/b&gt;&lt;/span&gt;&lt;/font&gt;&lt;b style=&quot;color: rgb(255, 255, 255);&quot;&gt;&lt;font style=&quot;&quot;&gt;الرئيسية&lt;/font&gt;&lt;/b&gt;&lt;/font&gt;" style="ellipse;whiteSpace=wrap;html=1;fillColor=#3399FF;strokeColor=#66B2FF;" parent="1" vertex="1">
          <mxGeometry x="1094.92" y="9492.98" width="300" height="200" as="geometry" />
        </mxCell>
        <mxCell id="oPP6584VSFWBGFHBGUR1-662" style="edgeStyle=orthogonalEdgeStyle;rounded=0;orthogonalLoop=1;jettySize=auto;html=1;strokeWidth=5;exitX=0.978;exitY=0.363;exitDx=0;exitDy=0;exitPerimeter=0;" parent="1" edge="1">
          <mxGeometry relative="1" as="geometry">
            <mxPoint x="807.92" y="9592.98" as="sourcePoint" />
            <mxPoint x="1094.92" y="9592.98" as="targetPoint" />
          </mxGeometry>
        </mxCell>
        <mxCell id="oPP6584VSFWBGFHBGUR1-663" value="&lt;font style=&quot;font-size: 24px;&quot;&gt;&lt;b&gt;حصول علي قائمة مبيعات&lt;/b&gt;&lt;/font&gt;" style="text;html=1;align=center;verticalAlign=middle;resizable=0;points=[];autosize=1;strokeColor=none;fillColor=none;" parent="1" vertex="1">
          <mxGeometry x="837.2199999999999" y="8760" width="230" height="40" as="geometry" />
        </mxCell>
        <mxCell id="oPP6584VSFWBGFHBGUR1-664" value="&lt;font style=&quot;font-size: 24px;&quot;&gt;&lt;b&gt;حصول علي قائمة مبيعات&lt;/b&gt;&lt;/font&gt;" style="text;html=1;align=center;verticalAlign=middle;resizable=0;points=[];autosize=1;strokeColor=none;fillColor=none;" parent="1" vertex="1">
          <mxGeometry x="847.2199999999999" y="8600" width="230" height="40" as="geometry" />
        </mxCell>
        <mxCell id="oPP6584VSFWBGFHBGUR1-665" value="&lt;b&gt;&lt;font style=&quot;font-size: 36px;&quot;&gt;ملف لوحة التحكم&lt;/font&gt;&lt;/b&gt;" style="html=1;dashed=0;whiteSpace=wrap;shape=partialRectangle;right=0;strokeWidth=5;" parent="1" vertex="1">
          <mxGeometry x="1119.2299999999998" y="8470" width="230" height="90" as="geometry" />
        </mxCell>
        <mxCell id="oPP6584VSFWBGFHBGUR1-666" style="edgeStyle=orthogonalEdgeStyle;rounded=0;orthogonalLoop=1;jettySize=auto;html=1;strokeWidth=5;exitX=0.788;exitY=0.098;exitDx=0;exitDy=0;exitPerimeter=0;" parent="1" source="oPP6584VSFWBGFHBGUR1-647" edge="1">
          <mxGeometry relative="1" as="geometry">
            <mxPoint x="775.9288365253681" y="8494.995641025642" as="sourcePoint" />
            <mxPoint x="1117.3099999999997" y="8494.995641025642" as="targetPoint" />
            <Array as="points">
              <mxPoint x="889.62" y="8495" />
            </Array>
          </mxGeometry>
        </mxCell>
        <mxCell id="oPP6584VSFWBGFHBGUR1-667" style="edgeStyle=orthogonalEdgeStyle;rounded=0;orthogonalLoop=1;jettySize=auto;html=1;entryX=0.936;entryY=0.258;entryDx=0;entryDy=0;entryPerimeter=0;strokeWidth=5;" parent="1" edge="1">
          <mxGeometry relative="1" as="geometry">
            <mxPoint x="1122.5499999999997" y="8525" as="sourcePoint" />
            <mxPoint x="785.9200000000001" y="8526.6" as="targetPoint" />
            <Array as="points">
              <mxPoint x="1118.92" y="8525" />
              <mxPoint x="1118.92" y="8527" />
            </Array>
          </mxGeometry>
        </mxCell>
        <mxCell id="oPP6584VSFWBGFHBGUR1-668" value="&lt;font style=&quot;font-size: 24px;&quot;&gt;&lt;b&gt;رد&lt;/b&gt;&lt;/font&gt;" style="text;html=1;align=center;verticalAlign=middle;resizable=0;points=[];autosize=1;strokeColor=none;fillColor=none;" parent="1" vertex="1">
          <mxGeometry x="936.6199999999999" y="8530" width="40" height="40" as="geometry" />
        </mxCell>
        <mxCell id="oPP6584VSFWBGFHBGUR1-669" value="&lt;font style=&quot;font-size: 24px;&quot;&gt;&lt;b&gt;حصول علي قائمة لوحة التحكم&lt;/b&gt;&lt;/font&gt;" style="text;html=1;align=center;verticalAlign=middle;resizable=0;points=[];autosize=1;strokeColor=none;fillColor=none;" parent="1" vertex="1">
          <mxGeometry x="821.6199999999998" y="8455" width="270" height="40" as="geometry" />
        </mxCell>
        <mxCell id="oPP6584VSFWBGFHBGUR1-670" value="" style="html=1;dashed=0;whiteSpace=wrap;shape=partialRectangle;right=0;strokeWidth=5;" parent="1" vertex="1">
          <mxGeometry x="1125.77" y="9085" height="10" as="geometry" />
        </mxCell>
        <mxCell id="oPP6584VSFWBGFHBGUR1-671" value="&lt;font style=&quot;font-size: 24px;&quot;&gt;&lt;b style=&quot;&quot;&gt;&lt;font style=&quot;&quot;&gt;ملف&amp;nbsp;&lt;/font&gt;&lt;/b&gt;&lt;b style=&quot;&quot;&gt;محتوي الرجال و محتوي النساء و محتوي الاطفال&lt;/b&gt;&lt;/font&gt;" style="html=1;dashed=0;whiteSpace=wrap;shape=partialRectangle;right=0;strokeWidth=5;" parent="1" vertex="1">
          <mxGeometry x="1196.4299999999998" y="9030" width="230" height="90" as="geometry" />
        </mxCell>
        <mxCell id="oPP6584VSFWBGFHBGUR1-672" style="edgeStyle=orthogonalEdgeStyle;rounded=0;orthogonalLoop=1;jettySize=auto;html=1;exitX=1;exitY=0.5;exitDx=0;exitDy=0;strokeWidth=5;entryX=0;entryY=0.289;entryDx=0;entryDy=0;entryPerimeter=0;" parent="1" target="oPP6584VSFWBGFHBGUR1-671" edge="1">
          <mxGeometry relative="1" as="geometry">
            <mxPoint x="817.6099999999999" y="9055.06" as="sourcePoint" />
            <mxPoint x="1115.77" y="9056" as="targetPoint" />
            <Array as="points">
              <mxPoint x="807.77" y="9055" />
            </Array>
          </mxGeometry>
        </mxCell>
        <mxCell id="oPP6584VSFWBGFHBGUR1-673" style="edgeStyle=orthogonalEdgeStyle;rounded=0;orthogonalLoop=1;jettySize=auto;html=1;strokeWidth=5;" parent="1" target="oPP6584VSFWBGFHBGUR1-648" edge="1">
          <mxGeometry relative="1" as="geometry">
            <mxPoint x="1196.43" y="9092" as="sourcePoint" />
            <mxPoint x="804.92" y="9092" as="targetPoint" />
            <Array as="points">
              <mxPoint x="1195.92" y="9094" />
            </Array>
          </mxGeometry>
        </mxCell>
        <mxCell id="oPP6584VSFWBGFHBGUR1-674" value="&lt;font style=&quot;font-size: 33px;&quot;&gt;&lt;b style=&quot;&quot;&gt;رد&lt;/b&gt;&lt;/font&gt;" style="text;html=1;align=center;verticalAlign=middle;resizable=0;points=[];autosize=1;strokeColor=none;fillColor=none;" parent="1" vertex="1">
          <mxGeometry x="970.52" y="9095" width="50" height="50" as="geometry" />
        </mxCell>
        <mxCell id="oPP6584VSFWBGFHBGUR1-675" value="&lt;font style=&quot;font-size: 28px;&quot;&gt;حصول علي قائمة محتوي الرجال&lt;br&gt;&amp;nbsp;و محتوي النساء و محتوي الاطفال&lt;/font&gt;" style="text;html=1;align=center;verticalAlign=middle;resizable=0;points=[];autosize=1;strokeColor=none;fillColor=none;strokeWidth=1;fontSize=27;fontStyle=1;labelPosition=center;verticalLabelPosition=middle;textDirection=rtl;spacing=-6;spacingTop=0;rotation=0;flipV=0;flipH=0;" parent="1" vertex="1">
          <mxGeometry x="835.5199999999999" y="8990" width="320" height="60" as="geometry" />
        </mxCell>
        <mxCell id="oPP6584VSFWBGFHBGUR1-676" value="&lt;font style=&quot;font-size: 36px;&quot;&gt;&lt;b&gt;ملف الرسائل&lt;/b&gt;&lt;/font&gt;" style="html=1;dashed=0;whiteSpace=wrap;shape=partialRectangle;right=0;strokeWidth=5;" parent="1" vertex="1">
          <mxGeometry x="1256.7000000000005" y="9277.5" width="230" height="90" as="geometry" />
        </mxCell>
        <mxCell id="oPP6584VSFWBGFHBGUR1-677" style="edgeStyle=orthogonalEdgeStyle;rounded=0;orthogonalLoop=1;jettySize=auto;html=1;strokeWidth=5;exitX=1;exitY=0.461;exitDx=0;exitDy=0;exitPerimeter=0;entryX=0;entryY=0.417;entryDx=0;entryDy=0;entryPerimeter=0;" parent="1" target="oPP6584VSFWBGFHBGUR1-676" edge="1">
          <mxGeometry relative="1" as="geometry">
            <mxPoint x="806.2000000000003" y="9314.7" as="sourcePoint" />
            <mxPoint x="1136.7000000000003" y="9242.5" as="targetPoint" />
            <Array as="points">
              <mxPoint x="1090.7000000000003" y="9314.5" />
            </Array>
          </mxGeometry>
        </mxCell>
        <mxCell id="oPP6584VSFWBGFHBGUR1-678" style="edgeStyle=orthogonalEdgeStyle;rounded=0;orthogonalLoop=1;jettySize=auto;html=1;strokeWidth=5;entryX=0.978;entryY=0.631;entryDx=0;entryDy=0;entryPerimeter=0;" parent="1" source="oPP6584VSFWBGFHBGUR1-676" target="oPP6584VSFWBGFHBGUR1-658" edge="1">
          <mxGeometry relative="1" as="geometry">
            <mxPoint x="1110.5900000000004" y="9345" as="sourcePoint" />
            <mxPoint x="802.3073200000003" y="9344.7" as="targetPoint" />
            <Array as="points">
              <mxPoint x="1267.3100000000002" y="9347.5" />
              <mxPoint x="1267.3100000000002" y="9343.5" />
            </Array>
          </mxGeometry>
        </mxCell>
        <mxCell id="oPP6584VSFWBGFHBGUR1-679" value="&lt;font style=&quot;font-size: 30px;&quot;&gt;&lt;b style=&quot;&quot;&gt;طلب حصول علي معلومات عن المستخدمين&amp;nbsp;&lt;/b&gt;&lt;/font&gt;" style="text;html=1;align=center;verticalAlign=middle;resizable=0;points=[];autosize=1;strokeColor=none;fillColor=none;" parent="1" vertex="1">
          <mxGeometry x="812.3" y="9257.5" width="450" height="50" as="geometry" />
        </mxCell>
        <mxCell id="oPP6584VSFWBGFHBGUR1-680" value="&lt;font style=&quot;font-size: 36px;&quot;&gt;&lt;b style=&quot;&quot;&gt;رد&lt;/b&gt;&lt;/font&gt;" style="text;html=1;align=center;verticalAlign=middle;resizable=0;points=[];autosize=1;strokeColor=none;fillColor=none;" parent="1" vertex="1">
          <mxGeometry x="1022.9300000000003" y="9337.5" width="50" height="60" as="geometry" />
        </mxCell>
        <mxCell id="oPP6584VSFWBGFHBGUR1-681" value="" style="html=1;dashed=0;whiteSpace=wrap;shape=partialRectangle;right=0;strokeWidth=5;" parent="1" vertex="1">
          <mxGeometry x="1088.8900000000003" y="6502.5" height="10" as="geometry" />
        </mxCell>
        <mxCell id="oPP6584VSFWBGFHBGUR1-682" value="&lt;font style=&quot;font-size: 24px;&quot;&gt;&lt;b style=&quot;&quot;&gt;&lt;font style=&quot;&quot;&gt;ملف&amp;nbsp;&lt;/font&gt;&lt;/b&gt;&lt;b style=&quot;&quot;&gt;محتوي الرجال و محتوي النساء و محتوي الاطفال&lt;/b&gt;&lt;/font&gt;" style="html=1;dashed=0;whiteSpace=wrap;shape=partialRectangle;right=0;strokeWidth=5;" parent="1" vertex="1">
          <mxGeometry x="1159.5500000000002" y="6447.5" width="230" height="90" as="geometry" />
        </mxCell>
        <mxCell id="oPP6584VSFWBGFHBGUR1-683" style="edgeStyle=orthogonalEdgeStyle;rounded=0;orthogonalLoop=1;jettySize=auto;html=1;strokeWidth=5;entryX=0;entryY=0.289;entryDx=0;entryDy=0;entryPerimeter=0;" parent="1" source="oPP6584VSFWBGFHBGUR1-606" target="oPP6584VSFWBGFHBGUR1-682" edge="1">
          <mxGeometry relative="1" as="geometry">
            <mxPoint x="780.73" y="6472.5599999999995" as="sourcePoint" />
            <mxPoint x="1078.8900000000003" y="6473.5" as="targetPoint" />
            <Array as="points">
              <mxPoint x="770.4" y="6473" />
              <mxPoint x="770.4" y="6474" />
            </Array>
          </mxGeometry>
        </mxCell>
        <mxCell id="oPP6584VSFWBGFHBGUR1-684" style="edgeStyle=orthogonalEdgeStyle;rounded=0;orthogonalLoop=1;jettySize=auto;html=1;strokeWidth=5;" parent="1" target="oPP6584VSFWBGFHBGUR1-606" edge="1">
          <mxGeometry relative="1" as="geometry">
            <mxPoint x="1159.5500000000002" y="6509.5" as="sourcePoint" />
            <mxPoint x="765.0400000000002" y="6509.5" as="targetPoint" />
            <Array as="points">
              <mxPoint x="1159.4" y="6512" />
            </Array>
          </mxGeometry>
        </mxCell>
        <mxCell id="oPP6584VSFWBGFHBGUR1-685" value="&lt;font style=&quot;font-size: 33px;&quot;&gt;&lt;b style=&quot;&quot;&gt;رد&lt;/b&gt;&lt;/font&gt;" style="text;html=1;align=center;verticalAlign=middle;resizable=0;points=[];autosize=1;strokeColor=none;fillColor=none;" parent="1" vertex="1">
          <mxGeometry x="933.6400000000003" y="6512.5" width="50" height="50" as="geometry" />
        </mxCell>
        <mxCell id="oPP6584VSFWBGFHBGUR1-686" value="&lt;font style=&quot;font-size: 28px;&quot;&gt;حصول علي قائمة محتوي الرجال&lt;br&gt;&amp;nbsp;و محتوي النساء و محتوي الاطفال&lt;/font&gt;" style="text;html=1;align=center;verticalAlign=middle;resizable=0;points=[];autosize=1;strokeColor=none;fillColor=none;strokeWidth=1;fontSize=27;fontStyle=1;labelPosition=center;verticalLabelPosition=middle;textDirection=rtl;spacing=-6;spacingTop=0;rotation=0;flipV=0;flipH=0;" parent="1" vertex="1">
          <mxGeometry x="798.6400000000001" y="6407.5" width="320" height="60" as="geometry" />
        </mxCell>
        <mxCell id="oPP6584VSFWBGFHBGUR1-687" value="&lt;font style=&quot;font-size: 36px;&quot;&gt;&lt;b&gt;ملف الرسائل&lt;/b&gt;&lt;/font&gt;" style="html=1;dashed=0;whiteSpace=wrap;shape=partialRectangle;right=0;strokeWidth=5;" parent="1" vertex="1">
          <mxGeometry x="1194.0900000000004" y="6960" width="230" height="90" as="geometry" />
        </mxCell>
        <mxCell id="oPP6584VSFWBGFHBGUR1-688" style="edgeStyle=orthogonalEdgeStyle;rounded=0;orthogonalLoop=1;jettySize=auto;html=1;strokeWidth=5;exitX=1.002;exitY=0.447;exitDx=0;exitDy=0;exitPerimeter=0;entryX=0;entryY=0.417;entryDx=0;entryDy=0;entryPerimeter=0;" parent="1" source="oPP6584VSFWBGFHBGUR1-617" target="oPP6584VSFWBGFHBGUR1-687" edge="1">
          <mxGeometry relative="1" as="geometry">
            <mxPoint x="743.5900000000003" y="6997.200000000001" as="sourcePoint" />
            <mxPoint x="1074.0900000000001" y="6925" as="targetPoint" />
            <Array as="points">
              <mxPoint x="746.4" y="6998" />
            </Array>
          </mxGeometry>
        </mxCell>
        <mxCell id="oPP6584VSFWBGFHBGUR1-689" style="edgeStyle=orthogonalEdgeStyle;rounded=0;orthogonalLoop=1;jettySize=auto;html=1;strokeWidth=5;" parent="1" source="oPP6584VSFWBGFHBGUR1-687" edge="1">
          <mxGeometry relative="1" as="geometry">
            <mxPoint x="1047.9800000000002" y="7027.5" as="sourcePoint" />
            <mxPoint x="744.4" y="7026" as="targetPoint" />
            <Array as="points">
              <mxPoint x="1204.7" y="7030" />
              <mxPoint x="1204.7" y="7026" />
            </Array>
          </mxGeometry>
        </mxCell>
        <mxCell id="oPP6584VSFWBGFHBGUR1-690" value="&lt;font style=&quot;font-size: 30px;&quot;&gt;&lt;b style=&quot;&quot;&gt;طلب حصول علي معلومات عن المستخدمين&amp;nbsp;&lt;/b&gt;&lt;/font&gt;" style="text;html=1;align=center;verticalAlign=middle;resizable=0;points=[];autosize=1;strokeColor=none;fillColor=none;" parent="1" vertex="1">
          <mxGeometry x="749.6899999999999" y="6940" width="450" height="50" as="geometry" />
        </mxCell>
        <mxCell id="oPP6584VSFWBGFHBGUR1-691" value="&lt;font style=&quot;font-size: 36px;&quot;&gt;&lt;b style=&quot;&quot;&gt;رد&lt;/b&gt;&lt;/font&gt;" style="text;html=1;align=center;verticalAlign=middle;resizable=0;points=[];autosize=1;strokeColor=none;fillColor=none;" parent="1" vertex="1">
          <mxGeometry x="933.6400000000001" y="7020" width="50" height="60" as="geometry" />
        </mxCell>
        <mxCell id="oPP6584VSFWBGFHBGUR1-692" style="edgeStyle=orthogonalEdgeStyle;rounded=0;orthogonalLoop=1;jettySize=auto;html=1;exitX=1;exitY=0.5;exitDx=0;exitDy=0;entryX=0;entryY=0.5;entryDx=0;entryDy=0;strokeWidth=5;" parent="1" edge="1">
          <mxGeometry relative="1" as="geometry">
            <mxPoint x="339.7" y="-7670" as="sourcePoint" />
            <mxPoint x="729.7000000000005" y="-7670" as="targetPoint" />
          </mxGeometry>
        </mxCell>
        <mxCell id="oPP6584VSFWBGFHBGUR1-693" style="edgeStyle=orthogonalEdgeStyle;rounded=0;orthogonalLoop=1;jettySize=auto;html=1;exitX=0.881;exitY=1.02;exitDx=0;exitDy=0;entryX=0;entryY=0.25;entryDx=0;entryDy=0;strokeWidth=5;exitPerimeter=0;" parent="1" edge="1">
          <mxGeometry relative="1" as="geometry">
            <mxPoint x="300.42999999999995" y="-7567.6" as="sourcePoint" />
            <mxPoint x="729.7" y="-7400" as="targetPoint" />
            <Array as="points">
              <mxPoint x="300.69999999999993" y="-7580" />
              <mxPoint x="299.69999999999993" y="-7580" />
              <mxPoint x="299.69999999999993" y="-7400" />
            </Array>
          </mxGeometry>
        </mxCell>
        <mxCell id="oPP6584VSFWBGFHBGUR1-694" value="&lt;b style=&quot;color: rgb(255, 255, 255);&quot;&gt;&lt;font style=&quot;font-size: 80px;&quot;&gt;العميل&lt;/font&gt;&lt;/b&gt;&lt;b style=&quot;color: rgb(255, 255, 255); font-size: 48px;&quot;&gt;&amp;nbsp;&lt;/b&gt;" style="rounded=1;whiteSpace=wrap;html=1;fillColor=#3399FF;gradientColor=none;strokeColor=#6c8ebf;" parent="1" vertex="1">
          <mxGeometry x="-270.30000000000007" y="-7730" width="610" height="150" as="geometry" />
        </mxCell>
        <mxCell id="oPP6584VSFWBGFHBGUR1-695" value="&lt;span style=&quot;color: rgb(255, 255, 255);&quot;&gt;&lt;font style=&quot;font-size: 60px;&quot;&gt;&lt;b style=&quot;&quot;&gt;صفحة الرئيسية&lt;/b&gt;&lt;/font&gt;&lt;/span&gt;" style="rounded=1;whiteSpace=wrap;html=1;fillColor=#3399FF;gradientColor=none;strokeColor=#6c8ebf;" parent="1" vertex="1">
          <mxGeometry x="729.7" y="-7715" width="330" height="120" as="geometry" />
        </mxCell>
        <mxCell id="oPP6584VSFWBGFHBGUR1-696" value="&lt;span style=&quot;color: rgb(255, 255, 255);&quot;&gt;&lt;font style=&quot;font-size: 72px;&quot;&gt;&lt;b style=&quot;&quot;&gt;صفحة فئات&lt;/b&gt;&lt;/font&gt;&lt;/span&gt;" style="rounded=1;whiteSpace=wrap;html=1;fillColor=#3399FF;gradientColor=none;strokeColor=#6c8ebf;" parent="1" vertex="1">
          <mxGeometry x="729.7" y="-7440" width="330" height="120" as="geometry" />
        </mxCell>
        <mxCell id="oPP6584VSFWBGFHBGUR1-697" value="&lt;span style=&quot;color: rgb(255, 255, 255);&quot;&gt;&lt;b style=&quot;&quot;&gt;&lt;font style=&quot;font-size: 45px;&quot;&gt;صفحة تسجيل الدخول&lt;/font&gt;&lt;/b&gt;&lt;/span&gt;" style="rounded=1;whiteSpace=wrap;html=1;fillColor=#3399FF;gradientColor=none;strokeColor=#6c8ebf;" parent="1" vertex="1">
          <mxGeometry x="749.7" y="-6880" width="330" height="120" as="geometry" />
        </mxCell>
        <mxCell id="oPP6584VSFWBGFHBGUR1-698" value="&lt;b style=&quot;color: rgb(255, 255, 255);&quot;&gt;&lt;font style=&quot;font-size: 50px;&quot;&gt;صفحة عربة تسوق&lt;/font&gt;&lt;/b&gt;" style="rounded=1;whiteSpace=wrap;html=1;fillColor=#3399FF;gradientColor=none;strokeColor=#6c8ebf;" parent="1" vertex="1">
          <mxGeometry x="749.7" y="-6620" width="330" height="120" as="geometry" />
        </mxCell>
        <mxCell id="oPP6584VSFWBGFHBGUR1-699" style="edgeStyle=orthogonalEdgeStyle;rounded=0;orthogonalLoop=1;jettySize=auto;html=1;strokeWidth=5;" parent="1" edge="1">
          <mxGeometry relative="1" as="geometry">
            <mxPoint x="729.7" y="-7370" as="sourcePoint" />
            <mxPoint x="256.69999999999993" y="-7580" as="targetPoint" />
            <Array as="points">
              <mxPoint x="729.7" y="-7370" />
              <mxPoint x="256.69999999999993" y="-7370" />
            </Array>
          </mxGeometry>
        </mxCell>
        <mxCell id="oPP6584VSFWBGFHBGUR1-700" value="" style="endArrow=classic;html=1;rounded=0;exitX=-0.002;exitY=0.66;exitDx=0;exitDy=0;exitPerimeter=0;entryX=1;entryY=0.75;entryDx=0;entryDy=0;strokeWidth=5;" parent="1" edge="1">
          <mxGeometry width="50" height="50" relative="1" as="geometry">
            <mxPoint x="729.0400000000002" y="-7630" as="sourcePoint" />
            <mxPoint x="339.7" y="-7626.7" as="targetPoint" />
          </mxGeometry>
        </mxCell>
        <mxCell id="oPP6584VSFWBGFHBGUR1-701" style="edgeStyle=orthogonalEdgeStyle;rounded=0;orthogonalLoop=1;jettySize=auto;html=1;strokeWidth=5;entryX=-0.001;entryY=0.425;entryDx=0;entryDy=0;entryPerimeter=0;" parent="1" source="oPP6584VSFWBGFHBGUR1-694" target="oPP6584VSFWBGFHBGUR1-702" edge="1">
          <mxGeometry relative="1" as="geometry">
            <mxPoint x="193.42999999999995" y="-7267.6" as="sourcePoint" />
            <mxPoint x="719.7" y="-7100" as="targetPoint" />
            <Array as="points">
              <mxPoint x="192.7" y="-7099" />
            </Array>
          </mxGeometry>
        </mxCell>
        <mxCell id="oPP6584VSFWBGFHBGUR1-702" value="&lt;span style=&quot;color: rgb(255, 255, 255);&quot;&gt;&lt;b style=&quot;&quot;&gt;&lt;font style=&quot;font-size: 60px;&quot;&gt;صفحة المنتجات&lt;/font&gt;&lt;/b&gt;&lt;/span&gt;" style="rounded=1;whiteSpace=wrap;html=1;fillColor=#3399FF;gradientColor=none;strokeColor=#6c8ebf;" parent="1" vertex="1">
          <mxGeometry x="729.7" y="-7150" width="330" height="120" as="geometry" />
        </mxCell>
        <mxCell id="oPP6584VSFWBGFHBGUR1-703" style="edgeStyle=orthogonalEdgeStyle;rounded=0;orthogonalLoop=1;jettySize=auto;html=1;strokeWidth=5;entryX=0.687;entryY=0.993;entryDx=0;entryDy=0;entryPerimeter=0;exitX=0;exitY=0.669;exitDx=0;exitDy=0;exitPerimeter=0;" parent="1" source="oPP6584VSFWBGFHBGUR1-702" target="oPP6584VSFWBGFHBGUR1-694" edge="1">
          <mxGeometry relative="1" as="geometry">
            <mxPoint x="699.7" y="-7070" as="sourcePoint" />
            <mxPoint x="149.69999999999993" y="-7530" as="targetPoint" />
            <Array as="points">
              <mxPoint x="148.7" y="-7070" />
            </Array>
          </mxGeometry>
        </mxCell>
        <mxCell id="oPP6584VSFWBGFHBGUR1-704" style="edgeStyle=orthogonalEdgeStyle;rounded=0;orthogonalLoop=1;jettySize=auto;html=1;strokeWidth=5;entryX=0;entryY=0.411;entryDx=0;entryDy=0;entryPerimeter=0;" parent="1" target="oPP6584VSFWBGFHBGUR1-697" edge="1">
          <mxGeometry relative="1" as="geometry">
            <mxPoint x="80.69999999999999" y="-7580" as="sourcePoint" />
            <mxPoint x="729.7" y="-6806" as="targetPoint" />
            <Array as="points">
              <mxPoint x="80.69999999999999" y="-6830" />
              <mxPoint x="729.7" y="-6830" />
            </Array>
          </mxGeometry>
        </mxCell>
        <mxCell id="oPP6584VSFWBGFHBGUR1-705" style="edgeStyle=orthogonalEdgeStyle;rounded=0;orthogonalLoop=1;jettySize=auto;html=1;strokeWidth=5;entryX=0.461;entryY=1.01;entryDx=0;entryDy=0;entryPerimeter=0;" parent="1" target="oPP6584VSFWBGFHBGUR1-694" edge="1">
          <mxGeometry relative="1" as="geometry">
            <mxPoint x="749.7" y="-6800" as="sourcePoint" />
            <mxPoint x="10.699999999999989" y="-7570" as="targetPoint" />
            <Array as="points">
              <mxPoint x="749.7" y="-6800" />
              <mxPoint x="10.699999999999989" y="-6800" />
            </Array>
          </mxGeometry>
        </mxCell>
        <mxCell id="oPP6584VSFWBGFHBGUR1-706" style="edgeStyle=orthogonalEdgeStyle;rounded=0;orthogonalLoop=1;jettySize=auto;html=1;entryX=0;entryY=0.25;entryDx=0;entryDy=0;strokeWidth=5;exitX=0.297;exitY=1.001;exitDx=0;exitDy=0;exitPerimeter=0;" parent="1" source="oPP6584VSFWBGFHBGUR1-694" edge="1">
          <mxGeometry relative="1" as="geometry">
            <mxPoint x="-90.30000000000005" y="-7540" as="sourcePoint" />
            <mxPoint x="749.7" y="-6579.99" as="targetPoint" />
            <Array as="points">
              <mxPoint x="-89.30000000000005" y="-7060" />
              <mxPoint x="-90.30000000000005" y="-7060" />
              <mxPoint x="-90.30000000000005" y="-6580" />
            </Array>
          </mxGeometry>
        </mxCell>
        <mxCell id="oPP6584VSFWBGFHBGUR1-707" style="edgeStyle=orthogonalEdgeStyle;rounded=0;orthogonalLoop=1;jettySize=auto;html=1;strokeWidth=5;exitX=0;exitY=0.5;exitDx=0;exitDy=0;entryX=0.196;entryY=1.012;entryDx=0;entryDy=0;entryPerimeter=0;" parent="1" target="oPP6584VSFWBGFHBGUR1-694" edge="1">
          <mxGeometry relative="1" as="geometry">
            <mxPoint x="749.7" y="-6539" as="sourcePoint" />
            <mxPoint x="168.69999999999993" y="-7050" as="targetPoint" />
            <Array as="points">
              <mxPoint x="-150.30000000000007" y="-6539" />
            </Array>
          </mxGeometry>
        </mxCell>
        <mxCell id="oPP6584VSFWBGFHBGUR1-708" value="&lt;span style=&quot;color: rgb(255, 255, 255);&quot;&gt;&lt;font style=&quot;font-size: 48px;&quot;&gt;&lt;b style=&quot;&quot;&gt;صفحة تسجيل الدخول&lt;/b&gt;&lt;/font&gt;&lt;/span&gt;" style="rounded=1;whiteSpace=wrap;html=1;fillColor=#3399FF;gradientColor=none;strokeColor=#6c8ebf;" parent="1" vertex="1">
          <mxGeometry x="-1490" y="8267.24" width="390" height="147.76" as="geometry" />
        </mxCell>
        <mxCell id="oPP6584VSFWBGFHBGUR1-709" style="edgeStyle=orthogonalEdgeStyle;rounded=0;orthogonalLoop=1;jettySize=auto;html=1;strokeWidth=5;entryX=-0.002;entryY=0.579;entryDx=0;entryDy=0;entryPerimeter=0;" parent="1" target="oPP6584VSFWBGFHBGUR1-708" edge="1">
          <mxGeometry relative="1" as="geometry">
            <mxPoint x="-1670" y="8352.17" as="sourcePoint" />
            <mxPoint x="-1540" y="8307.24" as="targetPoint" />
            <Array as="points">
              <mxPoint x="-1560" y="8352.24" />
            </Array>
          </mxGeometry>
        </mxCell>
        <mxCell id="oPP6584VSFWBGFHBGUR1-710" style="edgeStyle=orthogonalEdgeStyle;rounded=0;orthogonalLoop=1;jettySize=auto;html=1;strokeWidth=5;entryX=0;entryY=0.5;entryDx=0;entryDy=0;exitX=0.512;exitY=0.001;exitDx=0;exitDy=0;exitPerimeter=0;" parent="1" source="oPP6584VSFWBGFHBGUR1-708" target="oPP6584VSFWBGFHBGUR1-716" edge="1">
          <mxGeometry relative="1" as="geometry">
            <mxPoint x="-1460" y="8337.24" as="sourcePoint" />
            <mxPoint x="-1020" y="8612.5" as="targetPoint" />
            <Array as="points">
              <mxPoint x="-1290" y="8100" />
              <mxPoint x="-1285" y="8100" />
            </Array>
          </mxGeometry>
        </mxCell>
        <mxCell id="oPP6584VSFWBGFHBGUR1-711" value="&lt;b&gt;&lt;font style=&quot;font-size: 36px;&quot;&gt;ملف&amp;nbsp;&lt;/font&gt;&lt;/b&gt;&lt;b style=&quot;font-size: 36px;&quot;&gt;إذن المستخدم&lt;/b&gt;" style="html=1;dashed=0;whiteSpace=wrap;shape=partialRectangle;right=0;strokeWidth=5;" parent="1" vertex="1">
          <mxGeometry x="-310" y="8049.48" width="230" height="90" as="geometry" />
        </mxCell>
        <mxCell id="oPP6584VSFWBGFHBGUR1-712" style="edgeStyle=orthogonalEdgeStyle;rounded=0;orthogonalLoop=1;jettySize=auto;html=1;entryX=-0.01;entryY=0.306;entryDx=0;entryDy=0;entryPerimeter=0;strokeWidth=5;exitX=0.978;exitY=0.363;exitDx=0;exitDy=0;exitPerimeter=0;" parent="1" source="oPP6584VSFWBGFHBGUR1-716" target="oPP6584VSFWBGFHBGUR1-711" edge="1">
          <mxGeometry relative="1" as="geometry">
            <mxPoint x="-610" y="8077.48" as="sourcePoint" />
            <mxPoint x="-293.90999999999985" y="8077.299999999999" as="targetPoint" />
            <Array as="points">
              <mxPoint x="-627" y="8077.24" />
            </Array>
          </mxGeometry>
        </mxCell>
        <mxCell id="oPP6584VSFWBGFHBGUR1-713" style="edgeStyle=orthogonalEdgeStyle;rounded=0;orthogonalLoop=1;jettySize=auto;html=1;exitX=0;exitY=0.75;exitDx=0;exitDy=0;entryX=0.999;entryY=0.56;entryDx=0;entryDy=0;entryPerimeter=0;strokeWidth=5;" parent="1" source="oPP6584VSFWBGFHBGUR1-711" target="oPP6584VSFWBGFHBGUR1-716" edge="1">
          <mxGeometry relative="1" as="geometry">
            <mxPoint x="-290.6600000000001" y="8117.299999999999" as="sourcePoint" />
            <mxPoint x="-560" y="8116.539999999999" as="targetPoint" />
            <Array as="points">
              <mxPoint x="-310" y="8113.24" />
            </Array>
          </mxGeometry>
        </mxCell>
        <mxCell id="oPP6584VSFWBGFHBGUR1-714" value="&lt;b&gt;&lt;font style=&quot;font-size: 36px;&quot;&gt;تحقق من التسجيل&lt;/font&gt;&lt;/b&gt;" style="text;html=1;align=center;verticalAlign=middle;resizable=0;points=[];autosize=1;strokeColor=none;fillColor=none;" parent="1" vertex="1">
          <mxGeometry x="-580" y="8014.48" width="230" height="60" as="geometry" />
        </mxCell>
        <mxCell id="oPP6584VSFWBGFHBGUR1-715" value="&lt;font style=&quot;font-size: 36px;&quot;&gt;&lt;b style=&quot;&quot;&gt;رد&lt;/b&gt;&lt;/font&gt;" style="text;html=1;align=center;verticalAlign=middle;resizable=0;points=[];autosize=1;strokeColor=none;fillColor=none;" parent="1" vertex="1">
          <mxGeometry x="-490" y="8119.48" width="50" height="60" as="geometry" />
        </mxCell>
        <mxCell id="oPP6584VSFWBGFHBGUR1-716" value="&lt;b style=&quot;text-wrap: nowrap;&quot;&gt;&lt;font color=&quot;#ffffff&quot; style=&quot;font-size: 48px;&quot;&gt;طلب تسجيل الدخول&lt;/font&gt;&lt;/b&gt;&lt;span style=&quot;background-color: rgb(51, 153, 255);&quot;&gt;&lt;br&gt;&lt;/span&gt;" style="ellipse;whiteSpace=wrap;html=1;fillColor=#3399FF;strokeColor=#66B2FF;" parent="1" vertex="1">
          <mxGeometry x="-950" y="7997.24" width="330" height="207.24" as="geometry" />
        </mxCell>
        <mxCell id="oPP6584VSFWBGFHBGUR1-717" style="edgeStyle=orthogonalEdgeStyle;rounded=0;orthogonalLoop=1;jettySize=auto;html=1;strokeWidth=5;entryX=0;entryY=0.5;entryDx=0;entryDy=0;" parent="1" source="oPP6584VSFWBGFHBGUR1-716" target="oPP6584VSFWBGFHBGUR1-636" edge="1">
          <mxGeometry relative="1" as="geometry">
            <mxPoint x="-789.9999999999991" y="8244.68724" as="sourcePoint" />
            <mxPoint x="-338.54999999999995" y="8335.74" as="targetPoint" />
            <Array as="points">
              <mxPoint x="-800" y="8340" />
            </Array>
          </mxGeometry>
        </mxCell>
        <mxCell id="oPP6584VSFWBGFHBGUR1-718" value="&lt;b style=&quot;color: rgb(255, 255, 255); font-size: 72px;&quot;&gt;المدير&lt;/b&gt;" style="rounded=1;whiteSpace=wrap;html=1;fillColor=#3399FF;gradientColor=none;strokeColor=#6c8ebf;" parent="1" vertex="1">
          <mxGeometry x="-2086.93" y="5685" width="370" height="150" as="geometry" />
        </mxCell>
        <mxCell id="oPP6584VSFWBGFHBGUR1-719" value="&lt;span style=&quot;color: rgb(255, 255, 255);&quot;&gt;&lt;font style=&quot;font-size: 48px;&quot;&gt;&lt;b style=&quot;&quot;&gt;صفحة تسجيل الدخول&lt;/b&gt;&lt;/font&gt;&lt;/span&gt;" style="rounded=1;whiteSpace=wrap;html=1;fillColor=#3399FF;gradientColor=none;strokeColor=#6c8ebf;" parent="1" vertex="1">
          <mxGeometry x="-1536.93" y="5687.24" width="390" height="147.76" as="geometry" />
        </mxCell>
        <mxCell id="oPP6584VSFWBGFHBGUR1-720" style="edgeStyle=orthogonalEdgeStyle;rounded=0;orthogonalLoop=1;jettySize=auto;html=1;strokeWidth=5;entryX=-0.002;entryY=0.579;entryDx=0;entryDy=0;entryPerimeter=0;" parent="1" target="oPP6584VSFWBGFHBGUR1-719" edge="1">
          <mxGeometry relative="1" as="geometry">
            <mxPoint x="-1716.93" y="5772.17" as="sourcePoint" />
            <mxPoint x="-1586.93" y="5727.24" as="targetPoint" />
            <Array as="points">
              <mxPoint x="-1606.93" y="5772.24" />
            </Array>
          </mxGeometry>
        </mxCell>
        <mxCell id="oPP6584VSFWBGFHBGUR1-721" style="edgeStyle=orthogonalEdgeStyle;rounded=0;orthogonalLoop=1;jettySize=auto;html=1;strokeWidth=5;entryX=0;entryY=0.5;entryDx=0;entryDy=0;exitX=0.512;exitY=0.001;exitDx=0;exitDy=0;exitPerimeter=0;" parent="1" source="oPP6584VSFWBGFHBGUR1-719" target="oPP6584VSFWBGFHBGUR1-727" edge="1">
          <mxGeometry relative="1" as="geometry">
            <mxPoint x="-1506.93" y="5757.24" as="sourcePoint" />
            <mxPoint x="-1066.93" y="6032.5" as="targetPoint" />
            <Array as="points">
              <mxPoint x="-1336.93" y="5520" />
              <mxPoint x="-1331.93" y="5520" />
            </Array>
          </mxGeometry>
        </mxCell>
        <mxCell id="oPP6584VSFWBGFHBGUR1-722" value="&lt;b&gt;&lt;font style=&quot;font-size: 36px;&quot;&gt;ملف&amp;nbsp;&lt;/font&gt;&lt;/b&gt;&lt;b style=&quot;font-size: 36px;&quot;&gt;المدير&lt;/b&gt;" style="html=1;dashed=0;whiteSpace=wrap;shape=partialRectangle;right=0;strokeWidth=5;" parent="1" vertex="1">
          <mxGeometry x="-356.93" y="5469.48" width="230" height="90" as="geometry" />
        </mxCell>
        <mxCell id="oPP6584VSFWBGFHBGUR1-723" style="edgeStyle=orthogonalEdgeStyle;rounded=0;orthogonalLoop=1;jettySize=auto;html=1;entryX=-0.01;entryY=0.306;entryDx=0;entryDy=0;entryPerimeter=0;strokeWidth=5;exitX=0.978;exitY=0.363;exitDx=0;exitDy=0;exitPerimeter=0;" parent="1" source="oPP6584VSFWBGFHBGUR1-727" target="oPP6584VSFWBGFHBGUR1-722" edge="1">
          <mxGeometry relative="1" as="geometry">
            <mxPoint x="-656.93" y="5497.48" as="sourcePoint" />
            <mxPoint x="-340.83999999999986" y="5497.299999999999" as="targetPoint" />
            <Array as="points">
              <mxPoint x="-673.93" y="5497.24" />
            </Array>
          </mxGeometry>
        </mxCell>
        <mxCell id="oPP6584VSFWBGFHBGUR1-724" style="edgeStyle=orthogonalEdgeStyle;rounded=0;orthogonalLoop=1;jettySize=auto;html=1;exitX=0;exitY=0.75;exitDx=0;exitDy=0;entryX=0.999;entryY=0.56;entryDx=0;entryDy=0;entryPerimeter=0;strokeWidth=5;" parent="1" source="oPP6584VSFWBGFHBGUR1-722" target="oPP6584VSFWBGFHBGUR1-727" edge="1">
          <mxGeometry relative="1" as="geometry">
            <mxPoint x="-337.5900000000001" y="5537.299999999999" as="sourcePoint" />
            <mxPoint x="-606.93" y="5536.539999999999" as="targetPoint" />
            <Array as="points">
              <mxPoint x="-356.93" y="5533.24" />
            </Array>
          </mxGeometry>
        </mxCell>
        <mxCell id="oPP6584VSFWBGFHBGUR1-725" value="&lt;b&gt;&lt;font style=&quot;font-size: 36px;&quot;&gt;تحقق من التسجيل&lt;/font&gt;&lt;/b&gt;" style="text;html=1;align=center;verticalAlign=middle;resizable=0;points=[];autosize=1;strokeColor=none;fillColor=none;" parent="1" vertex="1">
          <mxGeometry x="-626.93" y="5434.48" width="230" height="60" as="geometry" />
        </mxCell>
        <mxCell id="oPP6584VSFWBGFHBGUR1-726" value="&lt;font style=&quot;font-size: 36px;&quot;&gt;&lt;b style=&quot;&quot;&gt;رد&lt;/b&gt;&lt;/font&gt;" style="text;html=1;align=center;verticalAlign=middle;resizable=0;points=[];autosize=1;strokeColor=none;fillColor=none;" parent="1" vertex="1">
          <mxGeometry x="-536.93" y="5539.48" width="50" height="60" as="geometry" />
        </mxCell>
        <mxCell id="oPP6584VSFWBGFHBGUR1-727" value="&lt;b style=&quot;text-wrap: nowrap;&quot;&gt;&lt;font color=&quot;#ffffff&quot; style=&quot;font-size: 48px;&quot;&gt;طلب تسجيل الدخول&lt;/font&gt;&lt;/b&gt;&lt;span style=&quot;background-color: rgb(51, 153, 255);&quot;&gt;&lt;br&gt;&lt;/span&gt;" style="ellipse;whiteSpace=wrap;html=1;fillColor=#3399FF;strokeColor=#66B2FF;" parent="1" vertex="1">
          <mxGeometry x="-996.93" y="5417.24" width="330" height="207.24" as="geometry" />
        </mxCell>
        <mxCell id="oPP6584VSFWBGFHBGUR1-728" style="edgeStyle=orthogonalEdgeStyle;rounded=0;orthogonalLoop=1;jettySize=auto;html=1;strokeWidth=5;entryX=0;entryY=0.5;entryDx=0;entryDy=0;" parent="1" source="oPP6584VSFWBGFHBGUR1-727" edge="1">
          <mxGeometry relative="1" as="geometry">
            <mxPoint x="-836.929999999999" y="5664.687239999999" as="sourcePoint" />
            <mxPoint x="-359.93" y="5760" as="targetPoint" />
            <Array as="points">
              <mxPoint x="-846.93" y="5760" />
            </Array>
          </mxGeometry>
        </mxCell>
      </root>
    </mxGraphModel>
  </diagram>
</mxfile>
